<?xml version="1.0" encoding="UTF-8" standalone="no"?>
<!-- Created with Inkscape (http://www.inkscape.org/) -->

<svg
   width="65.175293mm"
   height="286.00803mm"
   viewBox="0 0 65.175293 286.00803"
   version="1.1"
   id="svg1"
   xml:space="preserve"
   sodipodi:docname="cnTowerDoc.svg"
   inkscape:export-filename="cnTower.svg"
   inkscape:export-xdpi="2600.4973"
   inkscape:export-ydpi="2600.4973"
   inkscape:version="1.3 (0e150ed, 2023-07-21)"
   xmlns:inkscape="http://www.inkscape.org/namespaces/inkscape"
   xmlns:sodipodi="http://sodipodi.sourceforge.net/DTD/sodipodi-0.dtd"
   xmlns="http://www.w3.org/2000/svg"
   xmlns:svg="http://www.w3.org/2000/svg"><sodipodi:namedview
     id="namedview1"
     pagecolor="#ffffff"
     bordercolor="#000000"
     borderopacity="0"
     inkscape:showpageshadow="false"
     inkscape:pageopacity="0.0"
     inkscape:pagecheckerboard="true"
     inkscape:deskcolor="#ffffff"
     inkscape:document-units="mm"
     inkscape:export-bgcolor="#00000000"
     inkscape:zoom="1.2243626"
     inkscape:cx="349.16127"
     inkscape:cy="378.15595"
     inkscape:window-width="1800"
     inkscape:window-height="1097"
     inkscape:window-x="0"
     inkscape:window-y="44"
     inkscape:window-maximized="1"
     inkscape:current-layer="g8"
     showborder="false"
     shape-rendering="crispEdges"
     borderlayer="false" /><defs
     id="defs1"><linearGradient
       id="swatch2"
       inkscape:swatch="solid"><stop
         style="stop-color:#000000;stop-opacity:1;"
         offset="0"
         id="stop2" /></linearGradient><linearGradient
       id="swatch1"
       inkscape:swatch="solid"><stop
         style="stop-color:#000000;stop-opacity:1;"
         offset="0"
         id="stop1" /></linearGradient></defs><g
     inkscape:label="Layer 1"
     inkscape:groupmode="layer"
     id="layer1"
     transform="translate(-25.455336,-4.9317387)"><g
       id="g8"
       style="fill:none;stroke:#d62b2b;stroke-opacity:1"
       transform="translate(-17.936203)"><path
         style="fill:#fff;fill-opacity:1;stroke:#fff;stroke-width:0;stroke-dasharray:none;stroke-opacity:1"
         d="m 62.710874,268.10372 0.854512,-22.83559 -6.446122,-4.49239 c -9.294709,-6.47736 -11.315806,-10.22996 -12.09724,-22.46132 -0.368337,-5.76495 -1.023068,-12.94765 -1.454942,-15.96151 -0.886674,-6.18666 1.629581,-12.82033 6.552822,-17.27545 1.704407,-1.54241 4.022389,-4.80261 5.151059,-7.24495 1.195092,-2.58607 4.45285,-5.69145 7.800333,-7.43556 l 5.748192,-2.99478 0.0064,-31.44596 c 0.0043,-25.33871 -0.383283,-32.01038 -1.998303,-34.35262 -2.688548,-3.898839 -2.550075,-4.910556 1.200294,-8.769771 l 3.204698,-3.297758 0.85011,-25.33664 c 0.471631,-14.053697 1.476228,-26.02334 2.256032,-26.878758 0.782448,-0.857637 1.405896,-8.382062 1.405896,-16.965521 0,-8.482909 0.540226,-15.4234026 1.200428,-15.4234026 1.151451,0 1.793758,10.5024936 3.751864,61.3441956 l 0.892015,23.16002 3.221219,2.779184 c 3.65144,3.150483 4.222614,8.770811 1.173472,11.546441 -1.700139,1.54774 -2.047776,7.15165 -2.047776,33.01056 v 31.14639 l 4.57739,1.65701 c 5.134807,1.85885 9.663393,6.63559 11.051245,11.65675 0.508998,1.84156 2.742748,5.34175 4.963898,7.77802 l 4.03846,4.4297 -0.90002,16.92944 c -0.49498,9.31126 -1.73605,18.74778 -2.7578,20.97009 -1.88517,4.10023 -8.769048,10.48017 -13.123342,12.16275 -2.132027,0.82362 -2.389075,3.34492 -2.389075,23.43136 0,14.00741 -0.515669,22.50836 -1.365178,22.50836 -0.849977,0 -1.403375,-9.18321 -1.466378,-24.33305 -0.05606,-13.38327 -0.593075,-27.3654 -1.194291,-31.07156 -0.72733,-4.48322 -1.164797,4.03635 -1.30746,25.45625 -0.180572,27.12038 -0.500189,31.78149 -2.027864,29.57411 -2.224269,-3.21391 -3.560328,-3.35455 -3.560328,-0.3741 0,1.2347 -0.695569,2.24612 -1.545557,2.24612 -1.133568,0 -1.279969,-8.58153 -0.549303,-32.19462 0.625773,-20.22086 0.511267,-32.19464 -0.307747,-32.19464 -1.921327,0 -3.058151,15.38939 -3.058151,41.39884 0,16.36561 -0.453612,22.99042 -1.574436,22.99042 -1.163996,0 -1.370451,-8.19796 -0.792056,-31.44583 l 0.782314,-31.44596 h -2.620885 c -2.325028,0 -2.621445,1.14154 -2.625876,10.10768 -0.01047,21.20475 -1.838692,52.78411 -3.055816,52.78411 -0.7663,0 -0.931649,-9.06803 -0.41638,-22.83576 z m 18.49421,13.85128 c 0,-0.82363 -0.614294,-1.49746 -1.365192,-1.49746 -0.750818,0 -1.36518,0.67428 -1.36518,1.49746 0,0.82362 0.614294,1.49731 1.36518,1.49731 0.750819,0 1.365192,-0.67428 1.365192,-1.49731 z m 0,-5.15262 c 0,-0.36375 -0.614294,-1.07647 -1.365192,-1.58589 -0.750818,-0.50867 -1.36518,-0.21145 -1.36518,0.66098 0,0.87241 0.614294,1.58573 1.36518,1.58573 0.750819,0 1.365192,-0.2972 1.365192,-0.65949 z m 0,-5.32933 c 0,-0.82362 -0.650594,-1.49745 -1.445759,-1.49745 -0.795127,0 -1.06604,0.67427 -0.602017,1.49745 0.464025,0.82363 1.114617,1.49733 1.445746,1.49733 0.331104,0 0.602017,-0.67429 0.602017,-1.49733 z m 0,-5.9897 c 0,-0.82362 -0.650594,-1.49745 -1.445759,-1.49745 -0.795127,0 -1.06604,0.67427 -0.602017,1.49745 0.464025,0.82363 1.114617,1.49733 1.445746,1.49733 0.331104,0 0.602017,-0.67429 0.602017,-1.49733 z m 0,-5.9897 c 0,-0.82362 -0.614294,-1.49745 -1.365192,-1.49745 -0.750818,0 -1.36518,0.67427 -1.36518,1.49745 0,0.82363 0.614294,1.49731 1.36518,1.49731 0.750819,0 1.365192,-0.67427 1.365192,-1.49731 z m 0,-5.9897 c 0,-0.82362 -0.614294,-1.49745 -1.365192,-1.49745 -0.750818,0 -1.36518,0.67427 -1.36518,1.49745 0,0.82363 0.614294,1.49731 1.36518,1.49731 0.750819,0 1.365192,-0.67427 1.365192,-1.49731 z m 0,-5.9897 c 0,-0.82362 -0.614294,-1.49745 -1.365192,-1.49745 -0.750818,0 -1.36518,0.67427 -1.36518,1.49745 0,0.82363 0.614294,1.49731 1.36518,1.49731 0.750819,0 1.365192,-0.67427 1.365192,-1.49731 z m 0,-5.9897 c 0,-0.82362 -0.614294,-1.49745 -1.365192,-1.49745 -0.750818,0 -1.36518,0.67427 -1.36518,1.49745 0,0.82363 0.614294,1.49746 1.36518,1.49746 0.750819,0 1.365192,-0.67427 1.365192,-1.49746 z m -25.83938,-6.94033 c -5.418158,-7.55535 -2.404768,-15.93976 7.156985,-19.91357 5.060911,-2.10329 19.796131,-2.04133 25.64587,0.10356 10.002567,3.67467 12.963641,10.29207 8.675504,19.38761 l -2.108391,4.47212 2.631949,-1.80295 c 8.239349,-5.64399 9.141299,-19.78596 1.725535,-27.05442 -10.680988,-10.46879 -35.549376,-11.40746 -45.47051,-1.71618 -4.109523,4.01418 -6.849411,12.0699 -5.832509,17.1483 0.47817,2.38807 2.71046,6.36129 4.960566,8.82936 5.053414,5.54298 6.401764,5.82247 2.615001,0.54267 z m 8.091997,-0.2647 c 0,-1.49229 -1.842988,-4.20789 -4.095537,-6.03465 l -4.095551,-3.32126 v 3.03971 c 0,3.15567 4.440386,9.02943 6.82591,9.02943 0.750818,0 1.365178,-1.22139 1.365178,-2.71323 z m 30.639202,-0.61514 c 2.038259,-3.19186 2.918289,-8.65132 1.394565,-8.65132 -2.697394,0 -7.460474,5.36807 -7.460474,8.4081 0,4.536 3.241612,4.66612 6.065909,0.24249 z m -13.432205,-5.25094 c -1.387732,-1.52216 -2.532752,0.76891 -1.394139,2.79028 0.860118,1.52644 1.181612,1.52762 1.644074,0.006 0.316155,-1.041 0.203786,-2.29875 -0.249962,-2.79634 z M 62.155086,223.6838 c -1.584019,-3.24645 -3.015978,-3.87667 -4.674667,-2.05729 -0.534354,0.58556 0.42906,2.22469 2.141141,3.64111 3.760245,3.11115 4.57559,2.60145 2.533526,-1.58382 z m 29.189199,0.58851 c 1.446893,-1.20067 2.197737,-2.65793 1.668548,-3.23831 -0.52915,-0.58111 -2.310267,0.42291 -3.957958,2.2306 -3.354796,3.67969 -1.770763,4.37704 2.28941,1.00845 z m -22.425853,-0.0591 c 0,-2.38674 -3.072644,-6.63989 -4.796884,-6.63989 -1.606401,0 -1.683163,0.69203 -0.415447,3.7436 1.336901,3.21833 5.212331,5.37191 5.212331,2.89629 z m 19.112562,-5.37457 c 0,-0.69646 -0.921508,-1.26576 -2.047776,-1.26576 -1.126228,0 -2.047775,0.6181 -2.047775,1.37518 0,0.75561 -0.411309,2.60928 -0.914034,4.11798 l -0.914035,2.74295 2.961851,-2.85252 c 1.629018,-1.56902 2.961862,-3.4221 2.961862,-4.11798 z M 74.379161,219.819 c 0,-2.74532 -0.72813,-3.74358 -2.730358,-3.74358 -3.119352,0 -3.281435,0.56485 -1.317202,4.59072 1.973801,4.04538 4.047508,3.6114 4.047508,-0.84729 z m 6.577524,0 c 1.37348,-3.30648 1.239665,-3.74358 -1.146113,-3.74358 -1.971039,0 -2.701093,1.01142 -2.701093,3.74358 0,2.05893 0.515671,3.74358 1.14598,3.74358 0.630308,0 1.845832,-1.68465 2.701119,-3.74358 z M 49.805882,206.91407 c 0,-0.82363 -0.614294,-1.08092 -1.365178,-0.57226 -0.750819,0.50867 -1.365192,1.59935 -1.365192,2.42298 0,0.82362 0.614294,1.08091 1.365192,0.57223 0.750819,-0.50867 1.365178,-1.59933 1.365178,-2.42295 z m 53.735818,0.92564 c -0.43227,-1.23617 -1.40965,-2.24612 -2.17209,-2.24612 -0.799,0 -0.66635,0.95081 0.31322,2.24612 0.93472,1.23618 1.91215,2.24612 2.17208,2.24612 0.25998,0 0.11878,-1.01142 -0.31321,-2.24612 z m -44.179536,-8.18583 c 0,-2.62008 -2.302929,-2.9065 -5.238246,-0.65063 -1.62407,1.24801 -2.952855,3.25843 -2.952855,4.46829 0,1.9072 0.544495,1.89079 4.09555,-0.1183 2.252549,-1.27759 4.095551,-2.93977 4.095551,-3.69361 z m 40.21514,3.04726 c 0.881206,-1.56385 -4.375233,-6.09202 -7.071933,-6.09202 -2.57108,0 -2.120176,4.10305 0.645121,5.86963 3.020903,1.92998 5.418038,2.01293 6.426878,0.2218 z m 1.409016,-13.11281 c -9.55393,-9.07778 -25.345046,-11.9241 -39.882713,-7.18861 -8.028127,2.61505 -15.393275,10.58751 -15.393275,16.66268 v 3.84665 l 4.74082,-4.56573 c 6.082123,-5.85751 12.410351,-7.72109 25.975786,-7.64982 12.799493,0.0739 20.517122,2.66045 25.255872,8.48616 l 3.41297,4.19591 0.45775,-4.50643 c 0.37061,-3.64791 -0.49939,-5.41568 -4.56725,-9.28081 z m -30.361397,8.53866 c 1.313998,-0.0116 2.38906,-1.11493 2.38906,-2.45388 0,-1.92657 -0.888277,-2.23843 -4.266188,-1.49731 -2.34642,0.51458 -5.091632,0.936 -6.100486,0.936 -1.111148,0 -1.507844,0.93305 -1.006253,2.36678 0.544498,1.55632 1.815298,2.07607 3.711416,1.51787 1.58586,-0.46726 3.958465,-0.85763 5.272451,-0.86946 z m 17.841988,-0.60478 c 0.715854,-2.04606 -4.126779,-3.90861 -10.162847,-3.90861 -4.024285,0 -2.99903,4.22031 1.194557,4.91721 7.143999,1.18739 8.243455,1.06318 8.968304,-1.00846 z m 7.755171,-17.27841 c 0,-2.02122 -4.066097,-6.16242 -7.379054,-7.51541 -11.042544,-4.50969 -23.989573,-2.81526 -29.569786,3.86986 l -3.324033,3.98224 3.412955,-1.07796 c 7.481722,-2.36397 22.526852,-2.55191 28.66883,-0.35784 7.67331,2.74059 8.191088,2.81024 8.191088,1.10014 z M 74.709623,133.34234 c 0.527282,-26.7615 0.311618,-32.56888 -1.209503,-32.56888 -1.503866,0 -1.851277,6.3786 -1.851277,33.99152 0,19.81716 0.504326,33.39827 1.209504,32.56888 0.665275,-0.78223 1.498315,-16.07861 1.851263,-33.99152 z m 6.495461,0.99811 c 0,-26.38739 -0.374876,-33.67996 -1.706477,-33.19407 -1.276499,0.46579 -1.799696,8.50554 -2.076401,31.90643 -0.37501,31.71036 -0.145334,35.10438 2.374846,35.10438 0.925646,0 1.408032,-11.58459 1.408032,-33.81674 z m 4.095538,-35.728529 c 0,-2.783323 -5.253968,-6.823381 -8.873684,-6.823381 -3.105408,0 -8.873686,3.902984 -8.873686,6.004192 0,0.737862 2.988595,0.953751 6.641342,0.479092 4.245114,-0.551548 6.983265,-0.255811 7.589071,0.819191 1.342733,2.383045 3.516957,2.086715 3.516957,-0.479094 z M 79.541926,71.199062 c -0.316021,-14.453977 -0.750152,-17.5947 -2.432392,-17.5947 -1.682243,0 -2.116439,3.140723 -2.432393,17.5947 l -0.384618,17.594702 h 2.817024 2.817025 z M 78.474687,44.619738 c 0,-3.706025 -0.614294,-6.738359 -1.36518,-6.738359 -0.750819,0 -1.365179,3.032334 -1.365179,6.738359 0,3.70617 0.614294,6.738504 1.365179,6.738504 0.750818,0 1.36518,-3.032334 1.36518,-6.738504 z"
         id="path10" /></g></g></svg>
