<?xml version="1.0" encoding="UTF-8" standalone="no"?>
<svg
   version="1.0"
   width="2400pt"
   height="1200pt"
   viewBox="0 0 2400 1200"
   preserveAspectRatio="xMidYMid"
   id="svg21"
   sodipodi:docname="discord_gopher3.svg"
   inkscape:version="1.3 (0e150ed, 2023-07-21)"
   inkscape:export-filename="discord_gopher3_v2.png"
   inkscape:export-xdpi="54.851402"
   inkscape:export-ydpi="54.851402"
   xmlns:inkscape="http://www.inkscape.org/namespaces/inkscape"
   xmlns:sodipodi="http://sodipodi.sourceforge.net/DTD/sodipodi-0.dtd"
   xmlns="http://www.w3.org/2000/svg"
   xmlns:svg="http://www.w3.org/2000/svg">
  <defs
     id="defs21">
    <filter
       inkscape:label="Fast Crop"
       inkscape:auto-region="false"
       inkscape:menu="Fill and Transparency"
       inkscape:menu-tooltip="Does not filter but adds a filter region"
       style="color-interpolation-filters:sRGB"
       id="filter1">
      <feColorMatrix
         type="saturate"
         values="1"
         id="feColorMatrix1" />
    </filter>
  </defs>
  <sodipodi:namedview
     id="namedview21"
     pagecolor="#ffffff"
     bordercolor="#000000"
     borderopacity="0.25"
     inkscape:showpageshadow="2"
     inkscape:pageopacity="0.0"
     inkscape:pagecheckerboard="0"
     inkscape:deskcolor="#d1d1d1"
     inkscape:document-units="pt"
     inkscape:lockguides="true"
     inkscape:zoom="0.21117275"
     inkscape:cx="1529.5534"
     inkscape:cy="1003.9174"
     inkscape:window-width="904"
     inkscape:window-height="1097"
     inkscape:window-x="896"
     inkscape:window-y="44"
     inkscape:window-maximized="0"
     inkscape:current-layer="g21"
     showguides="false" />
  <g
     transform="matrix(0.1,0,0,-0.1,0,1365)"
     fill="#000000"
     stroke="none"
     id="g21">
    <path
       d="m 68.43638,8525.8558 v -6825 H 12013.435 23958.436 v 6825 6825.0002 H 12013.435 68.43638 Z M 9786.4364,12320.857 c 186.9996,-45 383.9986,-190 508.9986,-375 40,-60 123,-217 123,-233.001 0,-5 -21,-21 -47,-36 -27,-15 -62,-36 -79,-46 l -30,-20 -105,93 c -134.999,119.001 -372.9986,297.001 -382.9986,286.001 -2,-2 45,-96 105,-209 60,-113.001 108.9996,-213.001 108.9996,-222.001 0,-10 -21.9995,-29 -56.9996,-48 -128,-68 -329,-234 -460,-380 -247,-275 -428,-595 -573,-1012 -19,-54 -40,-98 -46,-98 -19,0 -170,317 -213,445 -22,66 -50,174 -62,240 -43,231 -26,574 38,780 103,331.001 299,591.001 558,742.001 180,105 415,140 613,93 z m 5438.9986,0 c 185,-44 368,-168 512,-345 366,-450.001 423,-1133.001 144,-1725.001 -55,-116 -124,-231 -137,-227 -5,2 -23,46 -41,98 -105,313 -241,591 -398,814 -156,220 -392,448 -582,560 -33,19 -71,44 -84,54 l -23,18 41,84 c 51,105.001 100,195.001 138,251.001 46,68 46,68 26,61 -56,-20 -203,-129 -351,-260.001 -51,-46 -100,-83 -109,-83 -13,0 -48,21 -137,82 -32,22 168,328.001 281,428.001 106,93 229,160 351,189 107,26 263,27 369,1 z m -2898,-266 31,-6 v -957.001 c 0,-526 3,-973 6,-993 6,-32 13,-41 48,-58 36,-17 76,-58.0002 106,-110.0002 5,-8 12,-12 15,-8 4,4 8,482.0002 8,1062.0002 l 2,1056.001 h 53 c 34,0 52,-4 53,-12 1,-7 2,-694.001 3,-1526.001 1,-1472.0002 2,-1514.0002 20,-1524.0002 10,-6 36,-26 56,-44 44,-40 56,-42 64,-11 3,12 6,590 6,1285.0002 v 1262 h 54 c 52,0 54,-1 60,-31 11,-55 6,-2530.0002 -5,-2579.0002 -23,-99 -24,-93 23,-144 l 44,-49 82,-2 c 45,-1 87,2 94,6 7,4 102,97 211,206 126,126 195,202 190,209 -4,6 -30,38 -56,70 -68,82 -152,257 -184,384 -25,94 -28,123 -28,275 0,179 9,232.0002 60,375.0002 120,337 447,580 820,609 459,36 900,-222 1094,-640 224,-482.0002 45,-1059.0002 -409,-1324.0002 -172,-100 -462,-150 -675,-115 -150,25 -136,17 -175,97 -42,86 -68,115 -126,142 -51,24 -111,27 -157,7 -18,-7 -78,-63 -137,-128 -314,-342 -375,-412 -378,-427 -2,-11 13,-27 40,-45 39,-26 48,-28 108,-22 64,5 66,6 120,66 59,65 79,72 113,39 45,-44 82,-52 209,-44 l 118,7 53,67 c 30,36 66,78 80,94 l 26,27 h 408 408 l 160,155 c 88,86 165,160 172,166 8,7 20,6 42,-5 l 30,-16 3,38 c 3,33 6,37 33,40 31,4 55,-18 55,-50 0,-10 -19,-35 -41,-55 -113,-103 -299,-294 -299,-307 0,-8 6,-19 13,-23 6,-4 72,-72 145,-149 l 132,-142 v -78 c 0,-136 -21,-124 221,-124 h 209 l 138,-141 c 75,-77 190,-195 255,-260 64,-66 117,-123 117,-127 -1,-10 -48,-62 -57,-62 -4,0 -116,108 -248,240 l -241,240 h -211 -211 l -46,61 c -46,61 -46,62 -46,140 v 80 l -126,127 -126,127 -416,-3 -417,-2 -75,-75 -75,-75 h -96 c -134,0 -187,-12 -282,-67 -124,-71 -267,-175 -267,-194 0,-5 15,-7 33,-5 17,3 66,8 107,11 79,7 220,35 430,85 69,16 137,29 151,30 16,0 36,12 52,30 l 27,30 h 158 c 86,0 249,2 362,4 113,2 212,0 222,-5 9,-5 122,-114 251,-243 234,-234 277,-271 277,-242 0,8 5,27 12,41 l 12,27 128,-4 129,-3 37,-41 c 31,-34 380,-400 447,-468 30,-30 75,-88 75,-95 0,-3 -12,-19 -27,-36 l -26,-30 -273,280 -273,280 -111,3 c -112,4 -112,4 -100,-18 6,-12 96,-108 200,-213 405,-413 489,-503 490,-518 0,-8 -14,-28 -31,-45 l -30,-29 -617,624 -617,623 -307,-3 -307,-4 -68,-72 c -53,-57 -74,-73 -96,-73 -75,0 -355,-77 -547,-150 -30,-12 -67,-26 -82,-32 -51,-19 -29,-28 70,-29 53,0 202,-4 330,-8 185,-6 236,-11 243,-22 5,-8 9,-37 9,-66 0,-64 -4,-67 -130,-83 -209,-26 -523,-88 -514,-101 5,-9 60,-20 214,-43 477,-73 424,-59 417,-108 -3,-22 -10,-45 -16,-51 -7,-7 -90,-14 -214,-18 -261,-9 -427,-20 -427,-28 0,-4 73,-28 163,-55 397,-118 417,-125 417,-150 0,-8 -8,-24 -18,-37 l -19,-22 -264,26 c -145,15 -285,30 -311,32 -27,3 -48,3 -48,0 0,-6 236,-122 409,-200 73,-33 135,-65 138,-72 3,-7 -4,-24 -14,-38 -22,-31 -38,-30 -168,9 -98,29 -416,99 -422,92 -7,-6 149,-111 289,-195 70,-42 128,-82 128,-88 0,-17 -301,-18 -451,-2 -363,37 -656,209 -769,450 -44,96 -60,183 -60,345 v 141 l 78,28 c 269,94 558,300 643,458 30,55 34,71 34,137 0,84 -22,138 -79,198 -68,73 -193,108 -353,98 -163,-10 -171,-13 -309,-125 -54,-45 -105,-81 -113,-81 -7,0 -56,34 -107,75 -123,99 -146,111 -229,123 -131,19 -281,4 -356,-34 -102,-51 -152,-133 -153,-249 -2,-123 66,-225 240,-361 136,-107 328,-211 457,-248 l 57,-17 v -100 c 0,-231 -30,-356 -114,-472 -151,-211 -411,-337 -756,-367 -148,-13 -391,-13 -410,0 -17,12 -18,11 69,62 30,17 90,54 133,82 43,28 110,71 148,96 38,24 68,46 65,48 -8,9 -352,-68 -484,-109 -88,-27 -103,-25 -120,12 -7,17 -10,34 -5,39 12,11 106,58 244,120 211,95 303,140 297,146 -5,6 -137,-6 -317,-27 -194,-23 -278,-32 -301,-30 -19,1 -44,54 -36,74 6,16 155,64 510,165 31,9 57,20 57,23 0,10 -87,17 -369,28 -270,11 -273,11 -275,77 l -1,37 105,18 c 58,9 190,31 294,48 187,31 238,45 206,54 -80,23 -321,66 -493,87 -57,8 -104,19 -113,27 -19,20 -19,107 1,123 12,10 95,15 308,21 161,4 308,11 327,14 l 35,7 -35,15 c -148,63 -486,166 -590,179 -67,8 -87,20 -155,92 l -53,57 -298.999,1 c -254.9996,1 -301.9996,-1 -322.9996,-14 -14,-9 -295,-287 -625,-619 -330,-332 -605,-603 -610,-603 -6,0 -23,16 -39,36 l -29,36 104,107 c 58,58 220,223 362,367 141,143 257,264 257,267 0,4 -53,7 -117,7 h -118 l -109,-112 c -61,-62 -184,-189 -275,-282 l -165,-168 -23,26 c -28,33 -29,56 -3,86 11,12 137,144 281,291 l 262,269 h 127 c 136,0 142,-2 154,-53 4,-16 11,-27 16,-25 6,2 122,114 259,250 l 249,247 369.9996,3 370.999,3 32,-32 c 17,-18 41,-33 54,-33 12,0 91,-17 176,-39 203,-51 539,-102 539,-82 0,27 -278,207 -365,236 -27,9 -104,20 -169,24 l -119,8 -65,68 c -62,64 -69,69 -121,77 -31,4 -221,5 -422.999,1 l -366.9996,-6 -126,-127 -125,-127 v -84 -84 l -46,-53 -46,-52 h -216 -217 l -238,-240 c -132,-132 -242,-240 -246,-240 -10,0 -51,57 -51,70 0,6 113,125 251,265 l 252,255 h 217 c 253,0 230,-13 230,128 v 82 l 145,149 c 80,81 145,155 145,163 0,17 -294,318 -310,318 -16,0 -12,52 7,72 9,10 27,18 41,18 23,0 24,-2 18,-40 -7,-44 2,-50 29,-20 16,17 20,18 44,5 15,-7 95,-84 179,-170 l 152,-157 386.9996,3 c 213.999,2 396.999,0 407.999,-4 11,-4 50,-41 85,-83 36,-42 74,-83 85,-90 14,-10 54,-14 146,-14 h 127 l 42,35 c 23,19 47,35 53,35 6,0 41,-31 78,-70 l 67,-70 h 59 c 48,0 64,4 79,21 10,12 32,28 47,36 l 28,14 -40,47 c -21,26 -52,61 -68,78 -15,17 -101,113 -191,213 -90,99 -177,191 -195,203 -45,32 -131,37 -183,9 -75,-40 -119,-95 -137,-172 -13,-51 -117,-74 -332,-73 -187.999,0 -273.999,16 -401.9986,74 -139,63 -298,192 -398,320 -57,74 -130,221 -161,322 -47,157 -51,430 -9,552 8,22.0002 15,47.0002 15,54.0002 0,14 10,38 65,157 70,152 257,356 395,432 19,11 64,36 100,55 166.9996,93 387.9986,137 583.9986,117 168,-17 319,-65 438,-142 289,-185 448,-492 448,-867.0002 0,-254 -77,-467 -237,-657 -30,-36 -42,-57 -36,-67 4,-8 93,-101 197,-206 l 188,-193 92,2 91,2 33,37 c 64,71 65,74 48,129 -13,41 -16,263 -20,1596.0002 -4,985 -2,1555.001 4,1567.001 12,23 55,34 80,20 20,-11 20,-26 20,-1509.001 0,-824.0002 3,-1519.0002 6,-1545.0002 4,-26 13,-50 20,-53 8,-3 32,11 56,31 23,20 47,36 54,36 6,0 14,10 18,23 3,12 6,700 6,1529.0002 v 1507.001 l 34,6 c 19,4 42,5 53,3 17,-3 18,-42 23,-1055.001 3,-578 8,-1054.0002 11,-1057.0002 4,-4 12,6 18,23 12,27 88,91.0002 109,91.0002 6,0 17,7 26,15 13,14 15,129 16,997 0,539 3,984.001 6,989.001 6,11 30,11 73,3 z m 568,-56 c 36,-33 30,-73 -14,-97 -46,-24 -83,-1 -83,51 0,62 53,87 97,46 z m -1339,-54 c 44,-30 13,-115 -36,-100 -45,15 -61,77 -26,103 23,17 35,16 62,-3 z m 1418,-169 c 12,-8 29,-30 38,-50 17,-34.001 16,-37.001 -4,-69.001 -28,-46 -71,-61 -113,-39 -43,22 -56,41 -57,85 0,66.001 83,111.001 136,73.001 z m -1514,-71.001 c 106,-74 129,-198 55,-297 -64,-84 -163,-108 -260,-62 -148,69 -156,300 -13,374 63,32.001 161,26.001 218,-15 z m 1847,-10 c 26,-33 26,-42 -1,-71 -25,-27 -54,-29 -80,-6 -24,21 -23,58 2,83 27,27.001 55,25.001 79,-6 z m 414,-43 c 6,-23 66,-38 93,-23 11,6 27,7 42,1 37,-14 112,-79 128,-112 12,-21 21,-28 35,-24 16,4 28,-6 55,-50 54,-84 60,-107 35,-139 -25,-32 -26,-40 -6,-78 29,-55 14,-115 -39,-165 -14,-14 -26,-30 -26,-37 0,-12 -110,-104 -124,-104 -3,0 -17,22 -31,50 l -25,50 39,35 c 78,71 105,192 64,286 -44,99 -122,157 -225,166 -139,13 -252,-85 -266,-229 -4,-51 -2,-64 17,-89 16,-21 21,-38 16,-56 -3,-13 -75,-95 -160,-181 l -155,-157 v -921.0002 -921 l -39,-27 c -47,-33 -77,-31 -104,6 -28,38 -26,80 6,118 l 27,32 v 885 l -1,886.0002 141,143 141,143 -6,73 c -6,54 -12,77 -26,88 -17,14 -18,20 -8,50 20,57 44,94 67,105 13,6 27,25 32,45 11,41 67,90 110,95 36,5 69,25 76,47 6,19 23,25 75,27 28,1 38,-3 42,-18 z m -2977,-44 c 32,-33 37,-68 14,-105 -25,-41 -63,-56 -103,-42 -41,14 -56,38 -57,86 0,82 89,120 146,61 z m 226,-34 c 38,-34 11,-103 -40,-103 -14,0 -31,8 -38,18 -17,21 -18,74 -2,90 17,17 58,15 80,-5 z m -52,-226 c 25,-12 59,-41 77,-64 117,-156 10,-373 -183,-373 -77,0 -174,63 -208,134 -18,39 -21,141 -5,183 19,50 77,111 121,126 64,23 145,20 198,-6 z m -567,-38 c 40,-43 34,-100 -17,-141 -24,-20 -77,-23 -108,-7 -27,14 -51,74 -43,109 11,50 67,84 120,73 11,-3 32,-18 48,-34 z m 4049,13 c 26,-22 40,-74 29,-104 -13,-35 -58,-68 -91,-68 -60,0 -113,75 -90,129 27,67 101,88 152,43 z m -1308,-33 c 33,-26 35,-70 4,-99 -26,-24 -40,-25 -78,-5 -24,12 -30,22 -30,48 0,37 31,77 59,77 10,0 30,-9 45,-21 z m -1812,-173 c 29,-24 97,-89 151,-144 l 97,-100 v -904.0002 -905 l 25,-23 c 44,-41 25,-116 -34,-135 -25,-7 -100,35 -102,58 0,6 0,426 1,933 l 1,921.0002 -102,104 c -99,102 -159,173 -159,191 0,13 39,48 54,48 8,0 38,-20 68,-44 z m -894,-128 3,-58 h -164 -163.999 l -158.9996,-96 c -88,-53 -168,-103 -179,-110 -37,-26 -47,-15 -18,21 36,45 252,241 305.9996,278 l 41,27 164.999,-2 166,-3 z m 4269,-12 c 122,-103 263,-239 263,-255 0,-8 -10,-6 -29,8 -16,12 -32,21 -35,21 -3,0 -30,16 -60,35 -30,19 -58,35 -62,35 -4,0 -46,24 -93,53 l -86,52 -180,5 -180,5 -3,49 c -2,32 1,52 10,57 7,5 93,9 190,9 h 177 z m -1004,-28 c 13,-24 28,-53 31,-65 6,-20 4,-23 -17,-23 -19,0 -66,-42 -197,-177 -161,-165 -173,-176 -186,-158 -8,10 -14,42 -14,70 0,64 11,79 155,215 61,57 127,121 149,142 21,21 42,38 46,38 5,0 19,-19 33,-42 z m -2347,-162 c 19,-19 34,-44 34,-55 0,-62 -66,-115 -115,-93 -28,13 -65,67 -65,96 0,25 63,86 90,86 12,0 37,-15 56,-34 z M 9091.4364,9978.8558 c 76,-40 54,-148 -30,-148 -73,0 -103,87 -47,138 28,25 45,27 77,10 z m 6500.9986,-18 c 45,-44 5,-130 -60,-130 -23,0 -38,8 -53,26 -63,80 40,174.0002 113,104 z m -6563.9986,-250 c 43,-12 70,-53 70,-105 0,-74 -88,-120 -150,-79 -40,27 -50,45 -50,90 0,47 28,90 63,97 12,2 24,5 27,6 3,0 21,-4 40,-9 z m 6652.9986,-30 c 41,-46 38,-98 -8,-139 -60,-52 -127,-35 -159,40 -15,36 -7,80 20,110 34,38 106,33 147,-11 z m -6757.9986,-272 c 24,-11 55,-54 55,-77 0,-5 -12,-23 -26,-40 -49,-58 -125,-33 -127,43 -1,25 6,43 23,61 26,28 38,30 75,13 z m 6830.9986,-22 c 40,-40 43,-64 9,-100 -36,-39 -89,-37 -115,7 -27,44 -25,63 9,98 38,37 55,37 97,-5 z m -7031.9986,-16 c 25,-24 23,-66 -4,-96 -30,-31 -65,-31 -95,2 -29,31 -31,61 -7,90 30,38 69,39 106,4 z m 7258.9986,2 c 27,-24 22,-76 -9,-101 -33,-26 -58,-27 -84,-1 -30,30 -27,83 7,109 28,23 54,21 86,-7 z m -6842.9986,-32 c 25,-25 26,-62 1,-84 -28,-25 -53,-16 -76,27 l -20,38 24,20 c 30,24 46,24 71,-1 z m 6403.9986,-12 c 16,-23 11,-50 -13,-72 -14,-13 -24,-14 -49,-5 -18,6 -32,15 -32,19 0,5 -3,15 -6,24 -3,9 4,25 19,40 28,28 59,26 81,-6 z m -6289.9986,-135 c 35,-31 36,-84 1,-118 -73,-74 -179,31 -114,113 36,46 64,47 113,5 z m 6224.9986,6 c 45,-48 35,-116 -21,-145 -41,-21 -57,-17 -94,22 -41,43 -43,72 -8,113 32,39 92,43 123,10 z m -6903.9986,-54 c 14,-13 25,-34 25,-46 0,-30 -38,-69 -66,-69 -25,0 -64,43 -64,70 0,26 39,70 61,70 11,0 31,-11 44,-25 z m 7519.9986,19 c 26,-10 47,-61 35,-84 -12,-23 -49,-50 -68,-50 -20,0 -62,47 -62,70 0,24 42,70 64,70 8,0 22,-3 31,-6 z m -7108.9986,-101 c 27,-16 80,-52 117,-82 53,-42 66,-57 62,-73 -4,-11 2,-33 14,-54 23,-38 28,-89 10,-100 -7,-4 -9,-22 -6,-48 5,-33 1,-48 -20,-78 -14,-21 -30,-38 -36,-38 -5,0 -28,-19 -49,-42 -35,-38 -44,-42 -89,-44 -28,-2 -56,-7 -62,-12 -38,-30 -89,-20 -144,28 -19,17 -42,30 -52,30 -35,0 -113,113 -100,147 4,12 2,42 -6,72 -12,46 -11,54 6,88 10,20 17,44 14,53 -6,18 38,64 71,74 11,3 30,20 42,36 16,21 31,30 50,30 38,0 102,19 102,30 0,17 25,11 76,-17 z m 6758.9986,7 c 13,-14 31,-20 62,-20 36,0 49,-6 71,-29 15,-16 46,-41 70,-56 36,-24 42,-33 42,-62 0,-19 8,-48 17,-64 16,-27 16,-32 0,-83 -14,-45 -15,-59 -6,-75 11,-17 7,-27 -29,-75 -30,-40 -49,-56 -66,-56 -12,0 -31,-9 -42,-21 -44,-48 -99,-62 -150,-38 -21,10 -58,18 -82,19 -27,0 -45,5 -48,14 -3,8 -23,26 -44,40 -62,41 -93,89 -95,149 -2,29 -6,64 -10,79 -5,20 -2,35 14,57 12,16 21,43 21,59 0,22 8,36 29,51 16,12 33,21 38,21 5,0 22,14 39,31 31,33 108,78 135,79 9,0 24,-9 34,-20 z m -7239.9986,-196 c 8,-4 22,-19 30,-34 12,-24 12,-31 -3,-61 -22,-44 -69,-52 -101,-18 -51,55 5,139 74,113 z m 7678.9986,-15 c 66,-52 -8,-151 -78,-105 -43,28 -43,68 0,110 21,22 46,20 78,-5 z m -5304,-84 c 66,-34 81,-111 31,-164 -87,-93 -228,33 -150,133 36,45 73,55 119,31 z m 2946,-19 c 38,-38 44,-77 19,-126 -19,-37 -43,-50 -93,-50 -40,0 -66,20 -91,67 -17,34 -13,59 16,93 50,60 100,65 149,16 z m -4600.9986,-238 c 49,-22 41,-91 -12,-104 -14,-4 -33,-2 -42,3 -23,14 -26,71 -5,94 20,22 25,23 59,7 z m 6235.9986,-9 c 40,-40 2,-106 -56,-94 -38,7 -47,17 -47,50 0,57 62,85 103,44 z m -6840.9986,-59 c 102,-52 146,-177 99,-280 -40,-88 -107,-133 -197,-132 -177,1 -278,196 -179,347 57,87 178,115 277,65 z m 7569.9986,5 c 144.001,-73 161.001,-289 31,-379 -48,-33 -137,-45 -195,-26 -120,39 -183,187 -128,297 28,54 96,111 141,119 20,3 41,7 46,9 16,5 78,-7 105,-20 z m -7179.9986,-135 c 45,-23 62,-49 62,-95 0,-44 -16,-72 -54,-91 -66,-34 -148,13 -148,85 0,54 7,68 49,96 43,30 42,30 91,5 z m 6667.9986,0 c 41,-25 67,-78 58,-115 -4,-16 -21,-41 -38,-57 -43,-40 -95,-39 -137,3 -17,17 -32,40 -33,52 -4,67 13,99 67,123 40,18 45,17 83,-6 z m -5442,-430 h 204 l 10,-25 c 13,-33 -5,-81 -33,-89 -12,-3 -99,-6 -192,-6 -149.999,0 -174.999,-2 -209.999,-20 -43,-22 -77.9996,-18 -111.9996,13 -75,68 1,180 95.9996,141 25,-10 86,-14 236.999,-14 z m 4464,-6 c 32,-31 33,-84 1,-118 -36,-38 -66,-41 -125,-10 l -51,27 -172,-6 c -146,-5 -175,-4 -188,9 -18,18 -20,75 -3,92 8,8 69,12 207,12 152,1 202,4 221,15 32,19 78,10 110,-21 z m -6277.9986,-51 c 36,-32 13,-93 -36,-93 -45,0 -63,55 -29,92 20,22 41,23 65,1 z m 7817.9986,-3 c 22,-22 24,-33 10,-60 -11,-20 -50,-33 -73,-24 -24,9 -30,53 -12,80 19,29 48,31 75,4 z m -5822,-232 c 19,-23 26,-89 11,-99 -8,-5 -234,-9 -503.9986,-9 h -490 l -160,-163 c -88,-89 -222,-227 -299,-305 -76,-78 -141,-142 -145,-142 -4,0 -22,16 -41,35 l -33,34 46,53 c 25,29 169,178 319,331 l 274,277 h 506 c 391.9986,0 507.9986,-3 515.9986,-12 z m 4977,-200 c 116,-117 262,-266 324,-331 123,-128 123,-128 57,-168 l -30,-18 -302,305 -303,304 h -481 c -264,0 -485,2 -490,5 -15,10 -12,68 6,93 l 15,22 h 496 496 z m -280,-167 c 71,-67 81,-82 91,-126 10,-48 22,-62 342,-381 207,-206 332,-338 332,-350 0,-19 -50,-74 -67,-74 -4,0 -172,163 -371,363 l -364,364 7,35 c 6,33 3,38 -42,76 l -48,42 h -402 c -390,0 -404,1 -423,20 -20,20 -25,47 -14,87 l 6,23 412,2 c 226,2 422,1 436,-1 14,-2 61,-38 105,-80 z m -4675,59 c 6,-12 10,-38 8,-58 -3,-36 -5,-37 -48,-44 -25,-3 -219,-7 -430.9985,-7 l -386.0001,-1 -42,-45 c -35,-38 -40,-49 -35,-75 6,-28 -10,-47 -346,-390 -193,-197 -361,-362 -372,-365 -19,-7 -27,0 -64,52 -15,21 -14,25 11,55 23,28 569,578 626,631 13,11 19,31 19,59 0,39 5,46 88,124 l 87,83 436.9996,1 c 429.999,0 436.999,0 447.999,-20 z m 100,-360 c 6,-12 10,-35 8,-53 -2,-23 -9,-33 -28,-38 -14,-4 -185,-7 -379.999,-8 l -354.9996,-1 -399,-402 -399,-402 -33,39 c -19,22 -34,44 -34,49 0,6 186,196 413,423 l 413,413 h 390.9996 c 384.999,0 391.999,0 402.999,-20 z m 4722,-400 423,-420 -41,-41 -41,-41 -404,401 -403,401 h -366 c -271,0 -369,3 -378,12 -17,17 -15,59 4,86 l 15,22 h 384 384 z m -6654.9986,188 c 32,-30 30,-71 -4,-97 -30,-24 -58,-20 -85,11 -23,27 -23,49 3,82 25,32 55,33 86,4 z m 7447.9986,16 c 8,-4 22,-19 31,-35 13,-26 13,-32 0,-58 -25,-48 -64,-54 -101,-16 -30,30 -31,54 -4,89 20,26 42,32 74,20 z m -5425,-126 c 25,-28 26,-52 0,-78 -54,-54 -125,25 -73,82 22,24 48,23 73,-4 z m 3407,0 c 28,-26 29,-38 2,-72 -28,-36 -64,-34 -84,4 -16,31 -14,41 13,73 20,23 41,22 69,-5 z m -3901.999,-63 c 32.999,-32 32.999,-74 0,-105 -73,-69 -181.9996,34 -113,107 30,32 81,31 113,-2 z m 4419.999,0 c 50,-49 17,-125 -55,-125 -46,0 -70,25 -72,73 -3,73 75,105 127,52 z m -4861.9986,-63 c 46,-50 18,-132 -44,-132 -36,0 -79,42 -79,77 0,57 87,95 123,55 z m 5311.9986,-7 c 32,-33 32,-65 0,-99 -29,-32 -52,-33 -87,-3 -38,31 -44,66 -18,100 28,35 70,36 105,2 z m -4611,-26 c 40,-31 34,-93 -10,-110 -31,-11 -66,3 -83,34 -11,21 -11,29 3,55 24,46 50,53 90,21 z m 1775,-181 c 3,-445 -21,-731 -80,-995 l -21,-93 h -169 -168 l -11,43 c -6,23 -15,52 -20,65 -5,12 -23,79 -40,150 -16,70 -34,143 -39,162 -18,68 -37,230 -57,501 -7,99 -17,88 106,114 154,32 289,94 416,190 38,29 72,51 75,49 4,-2 7,-86 8,-186 z m 2113,175 c 28,-25 23,-67 -12,-97 -35,-29 -63,-25 -93,16 -18,24 -18,27 -2,62 15,31 22,36 53,36 19,0 44,-7 54,-17 z m -1799,-27 c 111,-82 306,-171 443,-200 43,-10 88,-20 98,-23 18,-5 18,-13 12,-142 -14,-269 -60,-545 -129,-761 l -33,-105 -170,-3 -171,-2 -26,132 c -53,269 -60,337 -66,693 -6,336 -5,435 5,435 3,0 20,-11 37,-24 z m -1578,-65 c 18,-37 11,-57 -27,-77 -27,-14 -31,-14 -49,2 -28,25 -33,52 -15,79 24,37 71,34 91,-4 z m 2857,12 c 24,-21 23,-58 -2,-83 -25,-25 -31,-25 -64,1 -30,23 -33,54 -9,81 20,22 51,23 75,1 z m -3793.9985,-65 3,-38 h 57.9995 c 62,0 81,11 81,47 0,26 17,29 66.999,11 29,-11 33,-16 33,-49 0,-36 3,-40 53,-64 28,-15 62,-36 74,-47 l 21,-20 17,26 c 10,14 23,26 29,26 13,0 44,-32 72,-75 16,-25 16,-27 -11,-55 l -28,-29 24,-48 c 21,-42 28,-48 60,-51 34,-3 36,-6 48,-53 7,-28 12,-52 10,-54 -2,-2 -20,-7 -39,-12 -35,-9 -35,-10 -38,-71 l -3,-62 31,-7 c 30,-5 31,-8 25,-40 -9,-51 -23,-83 -35,-83 -6,0 -19,6 -31,13 -18,11 -24,7 -59,-33 -43,-50 -47,-62 -25,-80 23,-19 18,-46 -16,-74 -37,-31 -41,-32 -65,-5 -21,23 -57,21 -99,-7 -21,-14 -25,-22 -20,-44 7,-33 -7,-46 -61,-54 -39.999,-7 -40.999,-6 -49.999,26 -9,29 -14,33 -48,36 -65,6 -85.9996,-4 -85.9996,-38 0,-27 -3,-30 -32,-30 -18,0 -44,3 -56,7 -20,5 -23,10 -18,38 6,29 2,35 -35,60 -28,20 -45,26 -53,19 -7,-5 -25,-17 -40,-28 l -26,-18 -35,38 c -19,21 -35,41 -35,44 0,4 11,13 25,20 14,7 25,16 25,20 0,14 -63,90 -75,90 -7,0 -18,-7 -25,-15 -21,-25 -37,-17 -59,30 -12,25 -21,49 -21,54 0,5 16,16 36,26 29,14 35,21 30,38 -3,12 -6,30 -6,40 0,25 -36,57 -65,57 -23,0 -25,4 -25,45 0,36 4,45 18,46 9,1 24,3 32,4 8,1 20,3 27,4 13,1 33,53 33,86 0,14 -9,26 -25,33 -36,17 -40,35 -13,76 25,39 37,43 68,24 33,-21 55,1 56,57 1,38 6,52 25,66 32,25 44,24 63,-6 l 17,-25 37,19 c 49,25 60,38 64,81 2,27 9,36 28,41 50,14 65,7 68.0001,-33 z m 4543.9985,4 9,-33 62,3 c 60,3 62,4 67,33 6,34 36,43 83,26 23,-9 26,-15 24,-48 -2,-36 0,-39 58,-70 33,-18 63,-33 66,-33 3,0 11,11 17,25 10,22 14,24 37,13 25,-11 31,-25 37,-78 2,-20 10,-26 38,-30 27,-4 36,-10 38,-28 2,-16 -4,-29 -17,-39 -26,-18 -26,-29 -2,-87 19,-43 21,-45 54,-39 32,5 34,3 41,-27 13,-66 9,-79 -28,-85 -37,-7 -46,-23 -46,-88 0,-33 4,-39 30,-48 34,-12 37,-29 15,-83 -15,-35 -46,-49 -60,-26 -12,19 -30,9 -64,-36 -30,-40 -32,-46 -19,-62 29,-33 28,-41 -3,-77 l -32,-36 -29,28 -29,28 -47,-25 c -44,-24 -47,-27 -44,-62 3,-41 -4,-45 -78,-51 -33,-2 -35,0 -38,30 -3,30 -5,31 -58,35 -70,4 -74,2 -74,-33 0,-24 -4,-29 -24,-29 -13,0 -40,7 -60,15 -31,13 -34,18 -27,38 8,20 5,26 -17,39 -52,30 -80,31 -106,4 l -23,-25 -36,37 c -43,44 -45,55 -15,76 20,15 21,16 5,34 -9,10 -17,23 -17,29 0,5 -11,20 -25,33 -21,20 -28,22 -50,12 -42,-19 -52,-14 -65,33 -15,53 -4,75 37,75 25,0 25,1 21,61 -5,66 -15,79 -62,79 h -29 l 7,52 c 9,67 12,71 51,64 30,-6 35,-3 54,29 27,46 27,79 -1,104 -19,19 -20,23 -8,46 7,13 25,39 40,57 l 27,32 28,-22 c 28,-22 51,-28 57,-14 7,16 84,72 99,72 19,0 29,20 29,59 0,23 6,30 33,39 47,15 60,11 69,-26 z m -5207.9986,-219 c 36,-36 43,-69 21,-109 -33,-61 -116,-68 -155,-14 -31,43 -26,93 11,124 41,35 88,35 123,-1 z m 6098.9986,-1 c 10,-11 21,-37 24,-58 4,-32 0,-44 -20,-66 -53,-57 -133,-43 -163,27 -20,48 4,97 56,118 26,11 83,-1 103,-21 z m -6195.9986,-266 c 38,-33 39,-98 3,-127 -55,-42 -111,-32 -139,26 -42,87 62,165 136,101 z m 6283.9986,14 c 21,-12 49,-60 49,-86 0,-26 -65,-84 -95,-84 -60,0 -105,85 -74,141 18,35 81,49 120,29 z m -4700,-551 c 113,-38 178,-159 143,-267 -30,-91 -101,-145 -194,-146 -155,-1 -255,142 -200,286 41,109 145,162 251,127 z m 3165,-5 c 50,-20 81,-49 105,-96 76,-148 -19,-311 -181,-311 -167,0 -260,160 -182,314 22,45 36,59 81,82 63,31 120,35 177,11 z m -3640,-88 c 51,-51 41,-106 -27,-141 -26,-14 -32,-14 -59,0 -60,31 -69,100 -19,146 40,38 63,37 105,-5 z m 4097,-4 c 36,-34 37,-80 0,-116 -35,-35 -67,-42 -99,-22 -47,32 -59,109 -21,143 40,38 74,36 120,-5 z m -6167.9986,-704 c 78,9 382,9 461,0 l 60,-7 33,68 33,68 46,-9 c 100,-18 253,-63 363,-105 l 116,-45 63,-101 c 229,-367 347,-811 324,-1223 l -7,-124 -109,-71 c -189,-123 -516,-266 -544,-237 -20,21 -124,190 -124,202 0,6 31,23 68,39 37,15 85,38 106,51 l 38,23 -27,17 c -27,17 -29,17 -122,-18 -217,-83 -455,-118 -672,-98 -150,14 -302,49 -422,97 -48,19 -90,35 -95,35 -5,0 -20,-9 -33,-19 l -24,-18 95,-46 c 53,-26 100,-47 107,-47 6,0 11,-6 11,-13 0,-14 -102,-182 -124,-205 -28,-29 -364,119 -552,243 l -101,67 -6,121 c -22,430 93,858 335,1243 l 51,81 106,41 c 137,52 184,67 311,96 l 105,24 35,-69 34,-68 z m 3887.9986,-232 c 111,-47 131,-189 36,-256 -73,-53 -166,-45 -230,19 -42,42 -54,75 -45,126 18,96 141,153 239,111 z m 5245.001,-518 -3,-503 -172,-3 -173,-2 v 87 87 l -30,-47 c -70,-110 -234,-173 -382,-147 -198,36 -318.001,201 -318.001,435 0,136 41.001,245 121.001,327 175,177 493,147 593,-56 15,-29 16,-19 16,147 v 177 h 175 175 z m -6020.001,456 c 258,-52 412,-225 412,-464 0,-138 -44,-242 -140,-334 -68,-65 -152,-109 -263,-138 -73,-18 -118,-21 -414,-25 l -333,-5 v 491 491 h 330 c 259,0 348,-3 408,-16 z m 1675,-130 c 34,-8 88,-27 120,-41 l 57,-26 v -108 c 0,-60 -2,-109 -5,-109 -3,0 -24,9 -46,21 -66,33 -185,59 -275,59 -102,0 -137,-11 -132,-42 4,-31 35,-44 148,-63 52,-8 126,-25 163,-36 225,-66 256,-336 53,-454 -144,-84 -458,-76 -658,17 l -68,31 v 118 119 l 48,-29 c 100,-62 335,-108 415,-82 29,10 37,18 37,37 0,34 -32,50 -156,78 -129,30 -183,48 -241,82 -121,70 -132,255 -21,349 47,40 128,75 211,91 88,17 262,11 350,-12 z m 990,11 c 43,-7 107,-27 142,-44 l 65,-30 v -127 c 0,-97 -3,-125 -12,-121 -128,57 -144,61 -238,61 -117,1 -178,-16 -232,-63 -35,-32 -41,-43 -45,-87 -12,-119 83,-184 269,-185 80,0 152,16 241,55 16,8 17,-2 17,-117 v -124 l -57,-26 c -96,-42 -179,-60 -293,-60 -168,-1 -300,39 -398,122 -168,141 -188,428 -42,595 117,133 348,193 583,151 z m 1023,-10 c 196,-51 316,-172 343,-346 29,-183 -68,-372 -231,-449 -100,-47 -191,-63 -331,-57 -187,7 -293,51 -394,161 -76,83 -97,144 -98,281 0,99 3,116 27,167 31,66 105,149 163,184 132,77 353,102 521,59 z m 1167,-15 27,-13 v -149 c 0,-81 -3,-148 -6,-148 -3,0 -28,7 -55,16 -81,27 -183,8 -243,-45 -10,-9 -28,-34 -39,-56 -19,-36 -22,-61 -27,-230 l -5,-190 -172,-3 -173,-2 v 410 410 h 170 170 v -117 l 1,-118 20,58 c 36,105 80,158 154,185 37,14 140,9 178,-8 z m -4148,-221 c 47,0 98,6 123,15 l 42,15 v -314 -315 h -170 -170 v 314 314 l 48,-15 c 26,-8 83,-14 127,-14 z"
       id="path1"
       style="fill:#5ec9e3;fill-opacity:1;stroke:#000000;stroke-width:10;stroke-dasharray:none;stroke-opacity:1;filter:url(#filter1)" />
    <path
       d="m 10403.435,10426.856 c -185,-40 -325.999,-141 -439.9986,-312 -115,-173.0002 -143,-450.0002 -66,-649.0002 74.9996,-194 235.9996,-342 445.9986,-411 68,-23 98,-27 200,-27 86,0 137,4 180,17 182,53 306,139 407,282 119,166 158,387 104,591 -34,133.0002 -85,222.0002 -186,324.0002 -141,142 -252,189 -460,195 -79,2 -147,-2 -185,-10 z m 485,-257 c 109,-61 103,-226.0002 -10,-286.0002 -54,-29 -101,-29 -157,-2 -116,56 -124,232.0002 -13,290.0002 48,26 131,25 180,-2 z"
       id="path2"
       style="fill:#5ec9e3;fill-opacity:1;stroke:#000000;stroke-width:10;stroke-dasharray:none;stroke-opacity:1" />
    <path
       d="m 14456.435,10430.856 c -66,-12 -154,-43 -213,-76 -73,-41 -224,-196 -263,-270 -63,-122.0002 -77,-183.0002 -76,-349.0002 0,-136 3,-158 27,-230 68,-203 231,-362 458,-446 78,-30 93,-32 214,-32 173,-1 272,29 400,119 191,133 295,338 295,582 0,209 -71,374.0002 -221,518.0002 -134,127 -273,184 -459,190 -63,1 -136,-1 -162,-6 z m 3,-275 c 44,-42 59,-77 59,-133 0,-90.0002 -63,-153.0002 -157,-160.0002 -50,-3 -64,0 -99,24 -57,37 -76,73 -77,144.0002 0,44 5,65 23,90 39,55 76,72 152,68 59,-3 71,-7 99,-33 z"
       id="path3"
       style="fill:#5ec9e3;fill-opacity:1;stroke:#000000;stroke-width:10;stroke-dasharray:none;stroke-opacity:1" />
    <path
       d="m 12222.435,9896.8558 c -27,-27 -34,-42 -34,-75 0,-76 42,-121 114,-121 44,0 102,47 111,91 9,41 -18,100 -55,122 -47,28 -97,22 -136,-17 z"
       id="path4"
       style="fill:#5ec9e3;fill-opacity:1;stroke:#000000;stroke-width:10;stroke-dasharray:none;stroke-opacity:1" />
    <path
       d="m 12514.435,9686.8558 c -7,-29 -89,-106 -114,-106 -10,0 -23,-5 -30,-12 -14,-14 -15,-137 -5,-380 l 6,-158 54,-37 53,-36 30,28 30,29 v 342 c 0,310 -6,399 -24,330 z"
       id="path5"
       style="fill:#5ec9e3;fill-opacity:1;stroke:#000000;stroke-width:10;stroke-dasharray:none;stroke-opacity:1" />
    <path
       d="m 12068.435,9367.8558 v -337 l 28,-32 29,-31 55,38 55,39 6,140 c 9,178 9,360 1,380 -3,9 -13,16 -21,16 -33,0 -86,35 -119,78 l -34,45 z"
       id="path6"
       style="fill:#5ec9e3;fill-opacity:1;stroke:#000000;stroke-width:10;stroke-dasharray:none;stroke-opacity:1" />
    <path
       d="m 11298.435,11591.856 c -37,-36 -38,-69 -5,-105 39,-42 95,-32 124,22 15,28 8,52 -22,79 -39,37 -64,38 -97,4 z"
       id="path7"
       style="fill:#5ec9e3;fill-opacity:1;stroke:#000000;stroke-width:10;stroke-dasharray:none;stroke-opacity:1" />
    <path
       d="m 10749.435,11209.856 c -29,-31 -35,-72 -17,-108 31,-60 99,-70 147,-22 38,38 39,85 4,124 -34,35 -103,39 -134,6 z"
       id="path8"
       style="fill:#5ec9e3;fill-opacity:1;stroke:#000000;stroke-width:10;stroke-dasharray:none;stroke-opacity:1" />
    <path
       d="m 8815.4364,8931.8558 c -53,-34 -79,-83 -80,-148 -1,-37 5,-70 16,-90 21,-40 76,-83 120,-93 79,-17 197,57 211,134 14,76 -32,169 -101,205 -35,18 -134,14 -166,-8 z"
       id="path9"
       style="fill:#5ec9e3;fill-opacity:1;stroke:#000000;stroke-width:10;stroke-dasharray:none;stroke-opacity:1" />
    <path
       d="m 15603.435,8906.8558 c -65,-67 -72,-162 -18,-234 82,-110 251,-89 308,39 16,34 17,46 6,94 -23,100 -82,145 -192,145 -61,0 -64,-1 -104,-44 z"
       id="path10"
       style="fill:#5ec9e3;fill-opacity:1;stroke:#000000;stroke-width:10;stroke-dasharray:none;stroke-opacity:1" />
    <path
       d="m 8463.4364,8323.8558 c -38,-41 -37,-96 1,-130 85,-77 196,47 115,128 -39,38 -81,39 -116,2 z"
       id="path11"
       style="fill:#5ec9e3;fill-opacity:1;stroke:#000000;stroke-width:10;stroke-dasharray:none;stroke-opacity:1" />
    <path
       d="m 16037.435,8321.8558 c -71,-72 10,-183 99,-137 33,17 42,34 42,78 0,38 -48,88 -85,88 -16,0 -38,-12 -56,-29 z"
       id="path12"
       style="fill:#5ec9e3;fill-opacity:1;stroke:#000000;stroke-width:10;stroke-dasharray:none;stroke-opacity:1" />
    <path
       d="m 9951.4364,6110.8558 c -121,-25 -222,-131 -241,-252 -24,-153 42,-284 176,-350 55,-27 78,-33 131.9996,-33 128.999,1 256.999,82 305.999,193 67,149 -10,342 -167,419 -50.999,25 -144.999,36 -205.9986,23 z m 125.9996,-251 c 47,-47 39,-104 -19,-134 -41,-21 -58,-19 -90.9995,14 -37.0001,37 -38.0001,79 -3.0001,120 33.9996,41 71.9996,41 112.9996,0 z"
       id="path13"
       style="fill:#5ec9e3;fill-opacity:1;stroke:#000000;stroke-width:10;stroke-dasharray:none;stroke-opacity:1" />
    <path
       d="m 14489.435,6109.8558 c -79,-24 -166,-103 -203,-184 -33,-73 -32,-201 1,-269 52,-106 146,-167 268,-174 84,-5 144,12 217,61 60,38 100,100 122,187 15,59 15,68 -1,129 -24,87 -45,128 -92,173 -61,58 -112,79 -200,84 -43,2 -93,-1 -112,-7 z m 128,-234 c 32,-16 56,-64 46,-94 -8,-26 -61,-71 -84,-71 -25,0 -59,27 -77,62 -13,25 -13,35 -3,59 22,55 66,71 118,44 z"
       id="path14"
       style="fill:#5ec9e3;fill-opacity:1;stroke:#000000;stroke-width:10;stroke-dasharray:none;stroke-opacity:1" />
    <path
       d="m 10678.435,5130.8558 c -12,-12 -20,-33 -20,-55 0,-46 29,-75 74,-75 38,0 76,36 76,72 0,22 -18,60 -34,70 -22,15 -76,8 -96,-12 z"
       id="path15"
       style="fill:#5ec9e3;fill-opacity:1;stroke:#000000;stroke-width:10;stroke-dasharray:none;stroke-opacity:1" />
    <path
       d="m 13819.435,5124.8558 c -25,-31 -26,-45 -7,-83 33,-63 113,-55 136,14 11,33 10,40 -7,64 -30,39 -93,42 -122,5 z"
       id="path16"
       style="fill:#5ec9e3;fill-opacity:1;stroke:#000000;stroke-width:10;stroke-dasharray:none;stroke-opacity:1" />
    <path
       d="m 7972.4364,3786.8558 c -157,-69 -198,-301 -75,-424 86,-85 202,-91 291,-15 103,88 120,251 38,364 -53,74 -174,109 -254,75 z"
       id="path17"
       style="fill:#5ec9e3;fill-opacity:1;stroke:#000000;stroke-width:10;stroke-dasharray:none;stroke-opacity:1" />
    <path
       d="m 8799.4364,3774.8558 c -135,-68 -173,-262 -76,-390 102,-134 291,-114 369,38 24,47 29,70 29,125 0,78 -17,124 -64,178 -68,77 -164,95 -258,49 z"
       id="path18"
       style="fill:#5ec9e3;fill-opacity:1;stroke:#000000;stroke-width:10;stroke-dasharray:none;stroke-opacity:1" />
    <path
       d="m 16794.436,3809.8558 c -80,-19 -127,-65 -141,-140 -15,-78 40,-176 111,-199 20,-7 64,-10 99,-8 105,6 166,70 167,172 1,56 -16,98 -54,133 -42,39 -118,57 -182,42 z"
       id="path19"
       style="fill:#5ec9e3;fill-opacity:1;stroke:#000000;stroke-width:10;stroke-dasharray:none;stroke-opacity:1" />
    <path
       d="m 10968.435,3709.8558 v -242 l 123,5 c 168,7 228,35 280,133 32,60 30,164 -4,230 -46,91 -105,115 -281,115 h -118 z"
       id="path20"
       style="fill:#5ec9e3;fill-opacity:1;stroke:#000000;stroke-width:10;stroke-dasharray:none;stroke-opacity:1" />
    <path
       d="m 14773.435,3801.8558 c -71,-33 -105,-86 -105,-164 0,-47 27,-113 56,-139 96,-85 270,-48 313,65 20,51 13,126 -14,173 -45,77 -159,107 -250,65 z"
       id="path21"
       style="fill:#5ec9e3;fill-opacity:1;stroke:#000000;stroke-width:10;stroke-dasharray:none;stroke-opacity:1" />
  </g>
</svg>
