<?xml version="1.0" encoding="UTF-8" standalone="no"?>
<svg
   version="1.0"
   width="1828.000000pt"
   height="914.000000pt"
   viewBox="0 0 1828.000000 914.000000"
   preserveAspectRatio="xMidYMid meet"
   id="svg153"
   sodipodi:docname="discord_gopher3_v2.svg"
   inkscape:export-filename="discord_gopher3_v3.svg"
   inkscape:export-xdpi="96"
   inkscape:export-ydpi="96"
   inkscape:version="1.3 (0e150ed, 2023-07-21)"
   xmlns:inkscape="http://www.inkscape.org/namespaces/inkscape"
   xmlns:sodipodi="http://sodipodi.sourceforge.net/DTD/sodipodi-0.dtd"
   xmlns:xlink="http://www.w3.org/1999/xlink"
   xmlns="http://www.w3.org/2000/svg"
   xmlns:svg="http://www.w3.org/2000/svg">
  <defs
     id="defs153">
    <linearGradient
       id="swatch153"
       inkscape:swatch="solid">
      <stop
         style="stop-color:#ffffff;stop-opacity:1;"
         offset="0"
         id="stop153" />
    </linearGradient>
    <filter
       inkscape:label="Fill Background"
       inkscape:menu="Fill and Transparency"
       inkscape:menu-tooltip="Adds a colorizable opaque background"
       style="color-interpolation-filters:sRGB;"
       id="filter154"
       x="-0.0016490751"
       y="-0.0032912781"
       width="1.0032982"
       height="1.0032934">
      <feFlood
         result="result1"
         flood-color="rgb(200,55,55)"
         flood-opacity="1"
         id="feFlood153" />
      <feImage
         xlink:href=""
         result="result2"
         id="feImage153" />
      <feBlend
         result="result4"
         in2="result1"
         mode="multiply"
         id="feBlend153" />
      <feMerge
         result="fbSourceGraphic"
         id="feMerge154">
        <feMergeNode
           in="result1"
           id="feMergeNode153" />
        <feMergeNode
           in="SourceGraphic"
           id="feMergeNode154" />
      </feMerge>
      <feColorMatrix
         result="fbSourceGraphicAlpha"
         in="fbSourceGraphic"
         values="0 0 0 -1 0 0 0 0 -1 0 0 0 0 -1 0 0 0 0 1 0"
         id="feColorMatrix154" />
      <feFlood
         id="feFlood154"
         result="result1"
         flood-color="rgb(200,55,55)"
         flood-opacity="1"
         in="fbSourceGraphic" />
      <feImage
         id="feImage154"
         xlink:href=""
         result="result2" />
      <feBlend
         id="feBlend154"
         result="result4"
         in2="result1"
         mode="multiply" />
      <feMerge
         id="feMerge155"
         result="result3">
        <feMergeNode
           id="feMergeNode155"
           in="result1" />
        <feMergeNode
           id="feMergeNode156"
           in="fbSourceGraphic" />
      </feMerge>
    </filter>
  </defs>
  <sodipodi:namedview
     id="namedview153"
     pagecolor="#5ec9f7"
     bordercolor="#000000"
     borderopacity="0.25"
     inkscape:showpageshadow="2"
     inkscape:pageopacity="0.0"
     inkscape:pagecheckerboard="0"
     inkscape:deskcolor="#d1d1d1"
     inkscape:document-units="pt"
     inkscape:export-bgcolor="#5ec9ff00"
     inkscape:zoom="0.16866442"
     inkscape:cx="1200.6089"
     inkscape:cy="71.147194"
     inkscape:window-width="1248"
     inkscape:window-height="853"
     inkscape:window-x="0"
     inkscape:window-y="44"
     inkscape:window-maximized="0"
     inkscape:current-layer="svg153" />
  <g
     transform="matrix(0.1,0,0,-0.1,-1.929627,917.64321)"
     fill="#000000"
     stroke="none"
     id="g153"
     style="fill:#00ffff;fill-opacity:1;stroke:#ffffff;stroke-width:24.99999998;stroke-dasharray:none;stroke-opacity:1;filter:url(#filter154)">
    <path
       d="M 52,4588 50,30 h 9100 9100 l -2,4558 -3,4557 -2,-4552 -3,-4553 H 9150 60 l -3,4553 -2,4552 z"
       id="path1"
       style="fill:#00ffff;fill-opacity:1;stroke:#ffffff;stroke-width:24.99999998;stroke-dasharray:none;stroke-opacity:1" />
    <path
       d="m 7235,8144 c -11,-2 -45,-9 -75,-15 -163,-33 -349,-170 -463,-342 -93,-140 -163,-331 -172,-467 l -4,-65 9,63 c 48,339 245,634 504,756 98,47 164,61 286,61 84,0 119,-5 172,-23 123,-42 251,-141 333,-257 54,-76 109,-185 98,-195 -4,-4 -30,-22 -58,-38 l -50,-31 -35,33 c -91,86 -326,264 -336,253 -2,-2 32,-74 76,-159 44,-86 80,-161 80,-167 0,-5 -37,-35 -82,-65 -309,-203 -555,-533 -717,-961 -26,-71 -53,-131 -59,-133 -10,-3 -89,151 -136,267 -51,126 -78,264 -87,436 l -7,160 3,-165 c 3,-136 8,-183 29,-267 39,-155 171,-447 201,-446 6,1 21,30 34,64 148,393 290,629 504,842 81,80 197,171 280,220 27,16 47,35 47,45 0,9 -34,82 -75,161 -41,80 -73,146 -71,148 5,6 153,-106 258,-195 l 95,-80 50,29 c 82,47 81,46 26,151 -38,73 -67,112 -138,184 -137,139 -248,193 -410,199 -49,2 -99,2 -110,-1 z"
       id="path2"
       style="fill:#00ffff;fill-opacity:1;stroke:#ffffff;stroke-width:24.99999998;stroke-dasharray:none;stroke-opacity:1" />
    <path
       d="m 11332,8135 c -131,-29 -267,-113 -350,-217 -72,-91 -152,-220 -152,-244 0,-15 15,-32 48,-53 27,-17 54,-31 60,-31 6,0 53,35 104,78 103,87 217,172 231,172 4,0 -4,-19 -18,-42 -49,-81 -126,-239 -120,-248 3,-5 50,-39 103,-74 299,-197 531,-518 697,-966 25,-69 50,-129 54,-133 30,-30 196,343 215,483 3,25 -5,4 -19,-46 -30,-113 -62,-198 -110,-294 -46,-92 -75,-134 -85,-123 -4,4 -22,49 -40,98 -76,211 -160,382 -268,545 -98,148 -293,347 -432,439 -52,35 -99,67 -103,71 -9,8 66,165 120,249 19,29 32,55 30,58 -13,12 -130,-70 -276,-194 -41,-35 -78,-63 -82,-63 -18,0 -99,56 -99,68 0,42 115,213 197,294 110,108 233,163 400,177 84,8 85,8 23,9 -36,0 -93,-6 -128,-13 z"
       id="path3"
       style="fill:#00ffff;fill-opacity:1;stroke:#ffffff;stroke-width:24.99999998;stroke-dasharray:none;stroke-opacity:1" />
    <path
       d="m 11587,8125 c 193,-42 394,-214 507,-434 55,-109 82,-183 106,-296 10,-49 19,-78 19,-64 2,57 -51,228 -103,334 -88,180 -203,311 -346,395 -73,43 -175,80 -217,79 -16,0 -1,-6 34,-14 z"
       id="path4"
       style="fill:#00ffff;fill-opacity:1;stroke:#ffffff;stroke-width:24.99999998;stroke-dasharray:none;stroke-opacity:1" />
    <path
       d="m 9123,7923 -23,-4 V 6760 5602 l -42,-31 c -23,-17 -45,-31 -50,-31 -4,0 -9,39 -11,88 l -3,87 -2,-88 c -2,-105 5,-112 72,-66 l 46,33 v 1157 1157 l 26,6 c 15,4 31,3 35,-1 5,-5 10,-74 12,-153 l 3,-145 -1,155 c 0,170 2,166 -62,153 z"
       id="path5"
       style="fill:#00ffff;fill-opacity:1;stroke:#ffffff;stroke-width:24.99999998;stroke-dasharray:none;stroke-opacity:1" />
    <path
       d="m 9332,7838 c 1,-95 5,-83 10,30 2,34 0,62 -4,62 -5,0 -7,-42 -6,-92 z"
       id="path6"
       style="fill:#00ffff;fill-opacity:1;stroke:#ffffff;stroke-width:24.99999998;stroke-dasharray:none;stroke-opacity:1" />
    <path
       d="m 9388,7923 22,-4 v -745 -744 l 67,-65 c 37,-36 68,-65 70,-65 2,0 2,82 1,183 l -2,182 -3,-173 -3,-173 -33,33 c -17,19 -43,41 -57,49 l -25,16 -5,754 -5,754 -25,1 c -22,1 -22,0 -2,-3 z"
       id="path7"
       style="fill:#00ffff;fill-opacity:1;stroke:#ffffff;stroke-width:24.99999998;stroke-dasharray:none;stroke-opacity:1" />
    <path
       d="m 9552,7313 3,-608 2,603 3,602 h 35 35 l 3,-1020 2,-1020 v 1022 1023 l -42,3 -43,3 z"
       id="path8"
       style="fill:#00ffff;fill-opacity:1;stroke:#ffffff;stroke-width:24.99999998;stroke-dasharray:none;stroke-opacity:1" />
    <path
       d="m 8916,7894 c -14,-14 -16,-117 -14,-1007 l 3,-992 2,989 c 2,711 6,993 14,1003 10,11 44,18 51,11 2,-2 5,-487 8,-1078 l 5,-1075 3,1063 c 1,718 -1,1070 -8,1083 -13,23 -43,25 -64,3 z"
       id="path9"
       style="fill:#00ffff;fill-opacity:1;stroke:#ffffff;stroke-width:24.99999998;stroke-dasharray:none;stroke-opacity:1" />
    <path
       d="m 9748,7875 c -17,-38 3,-75 41,-75 34,0 63,32 54,59 -16,45 -77,56 -95,16 z m 79,-11 c 12,-19 12,-24 -2,-38 -26,-25 -63,-21 -71,9 -13,51 43,73 73,29 z"
       id="path10"
       style="fill:#00ffff;fill-opacity:1;stroke:#ffffff;stroke-width:24.99999998;stroke-dasharray:none;stroke-opacity:1" />
    <path
       d="m 8746,7839 c -26,-38 14,-96 52,-73 24,16 28,65 6,81 -25,18 -41,16 -58,-8 z m 54,-3 c 18,-23 8,-61 -18,-64 -16,-2 -25,3 -31,20 -16,43 21,77 49,44 z"
       id="path11"
       style="fill:#00ffff;fill-opacity:1;stroke:#ffffff;stroke-width:24.99999998;stroke-dasharray:none;stroke-opacity:1" />
    <path
       d="m 9322,7078 -2,-658 -27,-17 c -38,-23 -93,-75 -93,-87 0,-6 13,6 30,25 16,20 43,42 60,49 17,7 33,22 35,34 3,11 4,311 3,666 l -3,645 z"
       id="path12"
       style="fill:#00ffff;fill-opacity:1;stroke:#ffffff;stroke-width:24.99999998;stroke-dasharray:none;stroke-opacity:1" />
    <path
       d="m 9814,7718 c -48,-23 -53,-93 -8,-122 36,-25 69,-20 98,14 22,26 24,34 14,60 -17,52 -59,70 -104,48 z m 73,-20 c 11,-13 23,-31 26,-40 9,-24 -29,-68 -59,-68 -28,0 -74,41 -74,65 0,22 45,65 68,65 10,0 28,-10 39,-22 z"
       id="path13"
       style="fill:#00ffff;fill-opacity:1;stroke:#ffffff;stroke-width:24.99999998;stroke-dasharray:none;stroke-opacity:1" />
    <path
       d="m 8564,7676 c -102,-44 -111,-219 -15,-281 77,-51 155,-42 215,25 59,65 60,142 3,207 -53,60 -133,79 -203,49 z m 163,-22 c 50,-38 68,-72 68,-128 0,-43 -6,-60 -29,-90 -92,-122 -276,-55 -276,100 0,48 35,109 74,129 41,21 128,15 163,-11 z"
       id="path14"
       style="fill:#00ffff;fill-opacity:1;stroke:#ffffff;stroke-width:24.99999998;stroke-dasharray:none;stroke-opacity:1" />
    <path
       d="m 8596,7568 c -22,-30 -20,-54 5,-79 27,-27 67,-21 92,14 l 21,27 -21,28 c -27,36 -75,42 -97,10 z m 84,-8 c 24,-24 24,-29 4,-58 -18,-26 -50,-28 -76,-5 -22,20 -23,41 -1,65 21,24 48,23 73,-2 z"
       id="path15"
       style="fill:#00ffff;fill-opacity:1;stroke:#ffffff;stroke-width:24.99999998;stroke-dasharray:none;stroke-opacity:1" />
    <path
       d="m 10081,7664 c -30,-21 -26,-73 7,-85 33,-12 78,32 62,61 -17,32 -44,41 -69,24 z m 60,-25 c 14,-27 -23,-64 -51,-49 -25,13 -26,55 -3,68 21,12 41,5 54,-19 z"
       id="path16"
       style="fill:#00ffff;fill-opacity:1;stroke:#ffffff;stroke-width:24.99999998;stroke-dasharray:none;stroke-opacity:1" />
    <path
       d="m 10355,7610 c -21,-16 -46,-30 -56,-30 -22,0 -79,-47 -79,-65 0,-8 -15,-30 -33,-49 -42,-44 -58,-93 -41,-121 7,-11 16,-41 19,-67 l 7,-47 -111,-114 -112,-114 4,-94 3,-94 2,95 2,95 111,110 110,110 -6,55 c -4,30 -12,61 -17,67 -16,20 0,77 28,104 14,13 34,40 44,59 18,34 41,52 86,65 12,3 34,17 48,30 33,30 60,32 94,4 20,-16 34,-19 65,-14 36,7 41,4 90,-45 29,-29 61,-56 72,-60 11,-4 31,-28 44,-53 23,-42 24,-49 12,-85 -10,-31 -11,-44 -1,-62 21,-40 4,-83 -63,-154 -34,-36 -67,-66 -73,-66 -6,0 -18,15 -26,34 -16,33 -16,34 13,62 67,64 77,179 23,257 -66,95 -214,117 -292,44 -33,-30 -62,-91 -61,-124 1,-25 2,-25 8,7 19,93 73,142 162,148 45,3 68,-1 102,-17 120,-58 142,-227 42,-321 l -24,-23 20,-38 c 11,-22 26,-39 33,-39 21,0 120,102 140,144 12,25 16,47 11,65 -8,32 -9,66 0,106 5,23 -1,41 -24,78 -17,26 -37,47 -45,47 -9,0 -25,13 -37,30 -39,52 -92,82 -131,75 -25,-5 -40,-1 -60,14 -36,28 -59,26 -103,-9 z"
       id="path17"
       style="fill:#00ffff;fill-opacity:1;stroke:#ffffff;stroke-width:24.99999998;stroke-dasharray:none;stroke-opacity:1" />
    <path
       d="m 8090,7590 c -55,-55 6,-154 72,-119 53,28 62,76 23,114 -29,30 -68,32 -95,5 z m 91,-11 c 27,-27 21,-67 -14,-93 -26,-19 -30,-19 -55,-5 -19,10 -28,24 -30,48 -6,62 55,94 99,50 z"
       id="path18"
       style="fill:#00ffff;fill-opacity:1;stroke:#ffffff;stroke-width:24.99999998;stroke-dasharray:none;stroke-opacity:1" />
    <path
       d="m 9195,6985 c 0,-341 1,-482 2,-313 2,169 2,448 0,620 -1,172 -2,34 -2,-307 z"
       id="path19"
       style="fill:#00ffff;fill-opacity:1;stroke:#ffffff;stroke-width:24.99999998;stroke-dasharray:none;stroke-opacity:1" />
    <path
       d="m 8296,7567 c -23,-17 -18,-65 9,-83 18,-12 24,-11 43,2 32,22 30,71 -4,84 -31,12 -27,13 -48,-3 z m 45,-7 c 24,-13 25,-56 1,-69 -26,-14 -52,5 -52,39 0,24 7,34 28,39 2,1 12,-4 23,-9 z"
       id="path20"
       style="fill:#00ffff;fill-opacity:1;stroke:#ffffff;stroke-width:24.99999998;stroke-dasharray:none;stroke-opacity:1" />
    <path
       d="m 9747,7483 c -4,-3 -7,-444 -7,-980 0,-535 -3,-973 -6,-973 -3,0 -24,14 -45,31 l -38,30 -4,127 -3,127 -2,-127 -2,-126 42,-36 c 23,-20 47,-35 52,-33 8,3 12,309 14,980 l 2,976 33,4 32,4 -31,1 c -17,1 -34,-1 -37,-5 z"
       id="path21"
       style="fill:#00ffff;fill-opacity:1;stroke:#ffffff;stroke-width:24.99999998;stroke-dasharray:none;stroke-opacity:1" />
    <path
       d="m 9830,7312 5,-167 3,159 c 1,88 -1,163 -5,167 -5,5 -6,-67 -3,-159 z"
       id="path22"
       style="fill:#00ffff;fill-opacity:1;stroke:#ffffff;stroke-width:24.99999998;stroke-dasharray:none;stroke-opacity:1" />
    <path
       d="m 8176,7400 c -34,-11 -82,-54 -102,-92 -17,-32 -18,-105 -3,-145 35,-94 158,-140 249,-93 118,60 128,235 18,307 -42,28 -114,38 -162,23 z m 127,-14 c 103,-44 137,-180 65,-262 -64,-73 -141,-85 -222,-34 -54,35 -76,76 -76,145 0,120 121,199 233,151 z"
       id="path23"
       style="fill:#00ffff;fill-opacity:1;stroke:#ffffff;stroke-width:24.99999998;stroke-dasharray:none;stroke-opacity:1" />
    <path
       d="m 8181,7274 c -12,-15 -21,-34 -21,-44 0,-10 9,-29 21,-44 41,-52 129,-20 129,47 0,64 -89,92 -129,41 z m 101,-1 c 41,-37 10,-103 -48,-103 -34,0 -64,28 -64,60 0,9 7,26 16,38 18,27 69,30 96,5 z"
       id="path24"
       style="fill:#00ffff;fill-opacity:1;stroke:#ffffff;stroke-width:24.99999998;stroke-dasharray:none;stroke-opacity:1" />
    <path
       d="m 7773,7364 c -21,-21 -24,-32 -19,-62 11,-72 76,-94 127,-43 36,36 37,60 3,100 -33,40 -74,41 -111,5 z m 110,-16 c 26,-34 15,-75 -24,-97 -68,-38 -134,55 -77,109 31,28 75,23 101,-12 z"
       id="path25"
       style="fill:#00ffff;fill-opacity:1;stroke:#ffffff;stroke-width:24.99999998;stroke-dasharray:none;stroke-opacity:1" />
    <path
       d="m 10865,7358 c -31,-37 -28,-71 11,-105 34,-31 60,-29 96,7 25,26 29,36 24,63 -13,70 -85,89 -131,35 z m 104,-4 c 27,-35 26,-59 -4,-89 -28,-29 -55,-32 -83,-7 -32,26 -37,63 -12,95 29,36 71,36 99,1 z"
       id="path26"
       style="fill:#00ffff;fill-opacity:1;stroke:#ffffff;stroke-width:24.99999998;stroke-dasharray:none;stroke-opacity:1" />
    <path
       d="m 9907,7342 c -23,-25 -22,-69 2,-82 31,-16 59,-12 75,12 21,30 20,44 -4,68 -25,25 -52,26 -73,2 z m 68,-12 c 15,-17 16,-24 7,-45 -20,-43 -82,-28 -82,20 0,45 44,59 75,25 z"
       id="path27"
       style="fill:#00ffff;fill-opacity:1;stroke:#ffffff;stroke-width:24.99999998;stroke-dasharray:none;stroke-opacity:1" />
    <path
       d="m 10260,7290 c 0,-9 5,-21 11,-27 23,-23 -2,-61 -116,-180 l -115,-121 v -701 -700 l -30,-16 c -39,-20 -57,-19 -70,4 -16,30 -12,66 10,94 20,25 20,38 17,529 l -2,503 -3,-503 c -2,-487 -3,-505 -22,-529 -25,-32 -26,-85 -2,-106 25,-22 48,-21 83,4 l 29,20 v 701 700 l 120,125 c 66,68 120,132 120,142 0,10 -7,32 -15,47 -8,16 -15,22 -15,14 z"
       id="path28"
       style="fill:#00ffff;fill-opacity:1;stroke:#ffffff;stroke-width:24.99999998;stroke-dasharray:none;stroke-opacity:1" />
    <path
       d="m 12221,7249 c 0,-30 4,-74 9,-99 5,-31 6,-15 3,50 -6,105 -13,134 -12,49 z"
       id="path29"
       style="fill:#00ffff;fill-opacity:1;stroke:#ffffff;stroke-width:24.99999998;stroke-dasharray:none;stroke-opacity:1" />
    <path
       d="m 8510,7230 c -27,-27 -22,-34 89,-152 l 91,-96 2,-713 3,-714 36,-19 c 35,-19 38,-19 63,-3 19,13 26,26 26,51 0,18 -7,39 -15,46 -13,11 -15,101 -15,704 v 691 l -92,91 c -95,93 -144,134 -159,134 -5,0 -18,-9 -29,-20 z m 107,-49 c 38,-32 89,-81 116,-109 l 47,-51 v -689 c 0,-601 2,-691 15,-702 20,-16 19,-64 -1,-84 -19,-20 -27,-20 -64,-1 l -30,16 v 713 713 l -26,24 c -15,13 -60,62 -101,108 -70,80 -73,85 -57,102 10,11 21,19 25,19 5,0 39,-26 76,-59 z"
       id="path30"
       style="fill:#00ffff;fill-opacity:1;stroke:#ffffff;stroke-width:24.99999998;stroke-dasharray:none;stroke-opacity:1" />
    <path
       d="m 7584,7113 c -108,-89 -221,-205 -206,-210 8,-3 74,31 147,76 l 133,81 h 132 131 l -3,48 -3,47 -70,1 -70,1 68,-4 67,-4 v -39 -40 h -126 -127 l -124,-76 c -69,-42 -128,-73 -131,-69 -7,7 111,119 197,187 42,33 65,44 105,49 l 51,6 -51,2 c -47,1 -54,-2 -120,-56 z"
       id="path31"
       style="fill:#00ffff;fill-opacity:1;stroke:#ffffff;stroke-width:24.99999998;stroke-dasharray:none;stroke-opacity:1" />
    <path
       d="m 10994,7163 99,-4 96,-84 c 97,-84 170,-155 159,-155 -3,0 -64,34 -136,75 l -131,76 -103,-4 -103,-3 102,-2 103,-2 141,-81 c 77,-44 144,-78 147,-75 8,8 -93,110 -194,197 l -81,69 -99,-2 -99,-2 z"
       id="path32"
       style="fill:#00ffff;fill-opacity:1;stroke:#ffffff;stroke-width:24.99999998;stroke-dasharray:none;stroke-opacity:1" />
    <path
       d="m 10807,7153 c -4,-3 -7,-24 -7,-45 0,-38 0,-38 38,-36 36,1 36,1 5,5 -30,4 -33,7 -33,38 0,33 2,34 43,38 l 42,4 -41,1 c -22,1 -44,-1 -47,-5 z"
       id="path33"
       style="fill:#00ffff;fill-opacity:1;stroke:#ffffff;stroke-width:24.99999998;stroke-dasharray:none;stroke-opacity:1" />
    <path
       d="m 10252,7012 c -62,-59 -122,-120 -132,-137 -28,-42 -26,-125 3,-125 6,0 70,59 142,130 73,72 139,130 148,130 9,0 17,6 17,13 0,17 -43,90 -55,93 -5,2 -61,-45 -123,-104 z m 168,16 c 0,-5 -5,-8 -11,-8 -7,0 -72,-59 -146,-132 -141,-139 -152,-144 -153,-72 0,39 26,71 159,199 l 103,99 24,-39 c 13,-22 24,-43 24,-47 z"
       id="path34"
       style="fill:#00ffff;fill-opacity:1;stroke:#ffffff;stroke-width:24.99999998;stroke-dasharray:none;stroke-opacity:1" />
    <path
       d="m 12222,7054 c -1,-28 -4,-73 -7,-100 l -4,-49 10,49 c 5,27 8,72 6,100 l -3,51 z"
       id="path35"
       style="fill:#00ffff;fill-opacity:1;stroke:#ffffff;stroke-width:24.99999998;stroke-dasharray:none;stroke-opacity:1" />
    <path
       d="m 8521,6959 c -17,-17 -31,-34 -31,-38 0,-5 10,-23 23,-42 31,-46 76,-52 106,-13 29,37 27,68 -10,98 -39,33 -51,33 -88,-5 z m 84,-4 c 30,-30 32,-58 4,-86 -30,-30 -69,-22 -92,19 l -20,33 29,30 c 34,35 48,36 79,4 z"
       id="path36"
       style="fill:#00ffff;fill-opacity:1;stroke:#ffffff;stroke-width:24.99999998;stroke-dasharray:none;stroke-opacity:1" />
    <path
       d="m 7768,6969 c -136,-20 -315,-103 -427,-197 -131,-112 -244,-300 -277,-462 -20,-100 -15,-259 11,-360 22,-83 87,-215 141,-284 94,-120 274,-240 405,-271 75,-17 310,-20 379,-4 49,11 80,34 80,58 0,31 49,89 95,111 70,34 115,22 183,-49 44,-45 222,-243 304,-337 18,-21 18,-21 -20,-47 -61,-43 -95,-37 -163,28 -61,59 -75,61 -109,21 -10,-13 -35,-16 -120,-16 h -107 l -65,70 -64,70 h -304 -304 l -126,125 c -70,69 -133,125 -141,125 -8,0 -20,-5 -27,-12 -9,-9 -12,-5 -12,21 0,28 -3,32 -22,29 -12,-2 -29,-15 -38,-30 l -15,-28 123,-123 c 67,-67 122,-128 122,-134 0,-7 -49,-63 -110,-126 l -110,-115 v -70 c 0,-54 -3,-71 -16,-76 -9,-3 -85,-6 -169,-6 h -153 l -189,-195 c -103,-108 -189,-199 -191,-204 -2,-5 8,-21 21,-37 l 24,-27 188,186 188,187 h 162 163 l 36,40 c 33,37 36,45 36,103 l 1,62 90,98 91,97 h 315 314 l 57,-53 57,-54 107,-11 c 121,-13 156,-27 298,-121 l 85,-56 -37,-3 c -89,-7 -506,83 -542,117 -21,20 -32,21 -300,21 h -278 l -196,-191 c -194,-189 -195,-191 -208,-166 -15,29 -48,37 -143,37 h -67 l -176,-177 c -183,-185 -268,-278 -268,-292 0,-5 10,-21 22,-36 l 21,-27 211,217 211,217 82,-4 82,-3 -269,-277 c -149,-152 -270,-280 -270,-285 0,-12 43,-53 55,-53 5,0 220,210 477,468 l 469,467 230,3 231,4 35,-41 c 44,-53 72,-67 169,-87 44,-8 156,-41 249,-72 l 170,-57 -75,-6 -75,-5 77,-2 c 74,-2 107,9 70,23 -132,51 -377,125 -466,140 -29,5 -54,21 -97,62 l -58,55 -230,-4 -231,-3 -247,-245 c -772,-764 -700,-696 -723,-675 -11,10 -20,23 -20,28 0,5 122,133 270,283 149,151 270,278 270,284 0,6 -35,10 -87,10 h -88 l -212,-212 c -202,-202 -213,-211 -227,-193 -9,11 -16,24 -16,29 0,9 93,108 305,324 l 130,132 h 66 c 98,0 128,-8 135,-36 3,-13 11,-24 16,-24 6,0 97,86 203,190 l 192,190 h 278 c 270,0 279,-1 301,-21 37,-34 427,-119 547,-119 50,0 50,0 32,20 -22,25 -151,108 -223,144 -38,20 -80,29 -159,38 -105,12 -107,12 -141,50 -62,69 -57,68 -399,68 h -308 l -98,-98 -97,-97 v -65 c 0,-58 -3,-70 -31,-103 l -30,-37 h -167 -167 l -186,-186 -187,-187 -17,27 -17,26 188,194 189,195 h 153 c 85,1 162,6 173,11 16,9 19,22 19,81 v 71 l 110,113 c 61,63 110,120 110,128 0,8 -54,69 -121,137 -110,113 -120,126 -110,147 16,34 41,30 41,-7 0,-31 9,-37 27,-19 20,20 50,-1 167,-121 l 118,-120 h 302 302 l 69,-70 69,-70 h 104 c 96,0 106,2 137,26 l 35,26 54,-56 c 47,-48 60,-56 92,-56 33,0 123,44 124,61 0,8 -143,170 -278,316 -76,83 -102,105 -135,114 -79,21 -170,-31 -202,-115 -24,-62 -44,-69 -225,-74 -173,-4 -251,8 -343,54 -159,81 -282,199 -355,342 -62,119 -82,195 -89,332 -8,145 13,244 77,375 127,257 376,432 662,467 159,20 351,-20 483,-100 33,-20 92,-68 130,-107 104,-105 167,-222 198,-370 9,-38 16,-59 16,-45 2,45 -39,172 -80,252 -143,273 -457,425 -781,377 z"
       id="path37"
       style="fill:#00ffff;fill-opacity:1;stroke:#ffffff;stroke-width:24.99999998;stroke-dasharray:none;stroke-opacity:1" />
    <path
       d="m 10745,6970 c -233,-34 -445,-180 -548,-379 -66,-126 -82,-197 -82,-371 0,-135 3,-165 23,-230 29,-91 89,-211 136,-273 20,-26 36,-52 36,-58 0,-5 -66,-77 -147,-160 l -146,-149 h -67 c -58,0 -70,3 -90,25 l -23,24 v 493 493 l -6,-490 -6,-490 29,-32 c 28,-31 34,-33 96,-33 h 66 l 152,153 c 84,85 152,159 152,166 0,6 -18,35 -39,64 -48,64 -92,152 -128,254 -26,73 -28,88 -27,243 0,154 2,170 28,245 43,125 90,201 180,290 144,143 308,209 521,209 152,0 224,-18 375,-92 105,-51 123,-64 215,-156 89,-89 107,-113 153,-206 61,-123 81,-192 89,-312 19,-272 -115,-545 -339,-694 -79,-53 -170,-87 -284,-108 -43,-8 -65,-15 -49,-15 40,-1 179,33 238,58 115,49 266,186 336,304 122,206 143,463 57,691 -134,356 -530,591 -901,536 z"
       id="path38"
       style="fill:#00ffff;fill-opacity:1;stroke:#ffffff;stroke-width:24.99999998;stroke-dasharray:none;stroke-opacity:1" />
    <path
       d="m 9844,6680 c 0,-140 2,-198 3,-127 2,70 2,184 0,255 -1,70 -3,12 -3,-128 z"
       id="path39"
       style="fill:#00ffff;fill-opacity:1;stroke:#ffffff;stroke-width:24.99999998;stroke-dasharray:none;stroke-opacity:1" />
    <path
       d="m 7913,6685 c -163,-35 -323,-179 -377,-339 -96,-281 14,-555 271,-679 86,-41 91,-42 206,-46 102,-3 128,0 188,19 318,103 468,464 318,769 -71,143 -235,267 -366,276 l -58,4 60,-9 c 91,-15 176,-62 255,-140 282,-283 174,-756 -203,-887 -63,-22 -84,-25 -192,-21 -120,3 -122,3 -209,46 -226,113 -334,337 -281,586 22,105 64,184 140,265 101,106 205,151 385,164 36,3 33,4 -15,4 -33,1 -88,-5 -122,-12 z"
       id="path40"
       style="fill:#00ffff;fill-opacity:1;stroke:#ffffff;stroke-width:24.99999998;stroke-dasharray:none;stroke-opacity:1" />
    <path
       d="m 11005,6690 c -125,-25 -216,-83 -310,-197 -87,-106 -100,-148 -100,-333 v -155 l 38,-79 c 52,-110 144,-199 264,-258 l 88,-43 h 146 145 l 79,39 c 103,51 199,146 245,241 32,68 65,216 57,258 -3,17 -5,15 -6,-8 -11,-198 -91,-346 -237,-444 -100,-67 -151,-81 -293,-81 -105,1 -122,3 -183,29 -142,61 -244,157 -305,286 -25,55 -28,72 -31,195 -3,118 -1,143 18,199 25,76 58,127 130,199 66,67 110,96 184,122 80,27 166,34 261,21 227,-32 411,-215 444,-441 7,-45 9,-48 10,-19 3,98 -73,245 -175,338 -121,111 -308,163 -469,131 z"
       id="path41"
       style="fill:#00ffff;fill-opacity:1;stroke:#ffffff;stroke-width:24.99999998;stroke-dasharray:none;stroke-opacity:1" />
    <path
       d="m 8165,6500 c -64,-26 -93,-115 -57,-179 53,-97 185,-91 238,11 43,82 -24,179 -123,177 -21,0 -47,-4 -58,-9 z m 125,-15 c 34,-17 60,-62 60,-100 0,-62 -63,-125 -125,-125 -63,0 -125,63 -125,127 0,36 34,91 63,103 35,14 95,11 127,-5 z"
       id="path42"
       style="fill:#00ffff;fill-opacity:1;stroke:#ffffff;stroke-width:24.99999998;stroke-dasharray:none;stroke-opacity:1" />
    <path
       d="m 10862,6496 c -36,-19 -62,-66 -62,-111 0,-52 17,-84 60,-113 29,-19 44,-23 84,-19 41,4 55,11 83,41 28,31 33,43 33,87 0,46 -4,55 -39,90 -34,35 -44,39 -87,39 -27,-1 -59,-6 -72,-14 z m 154,-30 c 29,-29 34,-41 34,-83 0,-55 -17,-86 -60,-108 -88,-46 -180,13 -180,116 0,33 6,47 34,75 30,30 40,34 86,34 46,0 56,-4 86,-34 z"
       id="path43"
       style="fill:#00ffff;fill-opacity:1;stroke:#ffffff;stroke-width:24.99999998;stroke-dasharray:none;stroke-opacity:1" />
    <path
       d="m 6866,6339 c -52,-41 -22,-114 45,-107 64,6 73,89 12,117 -30,14 -26,15 -57,-10 z m 54,1 c 34,-18 44,-48 25,-76 -17,-26 -62,-33 -83,-12 -20,20 -14,65 10,82 27,19 24,19 48,6 z"
       id="path44"
       style="fill:#00ffff;fill-opacity:1;stroke:#ffffff;stroke-width:24.99999998;stroke-dasharray:none;stroke-opacity:1" />
    <path
       d="m 11787,6332 c -21,-23 -22,-51 -1,-80 22,-32 70,-26 98,11 19,26 19,30 5,55 -19,35 -76,43 -102,14 z m 87,-8 c 20,-19 20,-34 0,-62 -37,-54 -113,-7 -86,53 14,29 61,35 86,9 z"
       id="path45"
       style="fill:#00ffff;fill-opacity:1;stroke:#ffffff;stroke-width:24.99999998;stroke-dasharray:none;stroke-opacity:1" />
    <path
       d="m 8629,6180 c -9,-194 -48,-306 -158,-454 -61,-82 -75,-52 118,-248 l 136,-138 h 65 c 62,0 68,2 100,35 l 34,36 -3,232 c -1,127 -5,234 -8,237 -3,3 -3,-99 -2,-226 l 4,-231 -28,-37 c -27,-35 -30,-36 -95,-36 h -67 l -105,108 c -58,59 -124,127 -148,152 l -42,46 51,69 c 112,152 162,308 157,490 l -3,100 z"
       id="path46"
       style="fill:#00ffff;fill-opacity:1;stroke:#ffffff;stroke-width:24.99999998;stroke-dasharray:none;stroke-opacity:1" />
    <path
       d="m 9309,6281 c -32,-33 -37,-67 -14,-110 26,-52 91,-57 137,-11 26,27 30,36 25,68 -13,78 -94,107 -148,53 z m 96,13 c 19,-8 45,-55 45,-84 0,-32 -47,-70 -86,-70 -23,0 -38,7 -53,26 -54,69 12,159 94,128 z"
       id="path47"
       style="fill:#00ffff;fill-opacity:1;stroke:#ffffff;stroke-width:24.99999998;stroke-dasharray:none;stroke-opacity:1" />
    <path
       d="m 6801,6133 c -12,-10 -24,-34 -27,-54 -5,-28 -1,-41 17,-62 35,-40 79,-45 114,-14 79,68 -23,195 -104,130 z m 89,-3 c 10,-5 23,-23 29,-40 23,-66 -33,-116 -96,-86 -34,16 -48,45 -39,81 12,49 60,69 106,45 z"
       id="path48"
       style="fill:#00ffff;fill-opacity:1;stroke:#ffffff;stroke-width:24.99999998;stroke-dasharray:none;stroke-opacity:1" />
    <path
       d="m 11832,6127 c -42,-44 -21,-123 37,-142 11,-3 34,1 50,10 58,29 67,81 22,126 -37,36 -79,38 -109,6 z m 103,-12 c 41,-40 30,-92 -25,-115 -28,-11 -34,-11 -58,7 -34,25 -42,85 -16,114 24,27 70,24 99,-6 z"
       id="path49"
       style="fill:#00ffff;fill-opacity:1;stroke:#ffffff;stroke-width:24.99999998;stroke-dasharray:none;stroke-opacity:1" />
    <path
       d="m 9190,5877 c 0,-261 0,-264 23,-285 l 22,-21 42,27 c 51,33 53,41 53,269 v 171 l -34,12 c -19,6 -51,29 -70,51 l -36,39 z m 95,167 35,-14 v -169 c 0,-210 -3,-225 -49,-257 l -36,-25 -17,22 c -16,19 -18,48 -18,267 v 245 l 25,-27 c 14,-15 41,-34 60,-42 z"
       id="path50"
       style="fill:#00ffff;fill-opacity:1;stroke:#ffffff;stroke-width:24.99999998;stroke-dasharray:none;stroke-opacity:1" />
    <path
       d="m 9525,6121 c -7,-24 -71,-81 -89,-81 -8,0 -17,-7 -20,-16 -8,-21 -8,-231 1,-329 6,-76 7,-78 46,-106 l 40,-29 24,22 c 23,21 23,22 23,290 0,246 -6,308 -25,249 z m 0,-530 c -14,-15 -19,-14 -53,5 -34,20 -37,26 -43,80 -4,33 -7,123 -8,201 l -1,142 28,15 c 15,8 41,28 57,46 l 30,31 3,-252 c 2,-218 0,-255 -13,-268 z"
       id="path51"
       style="fill:#00ffff;fill-opacity:1;stroke:#ffffff;stroke-width:24.99999998;stroke-dasharray:none;stroke-opacity:1" />
    <path
       d="m 6737,5902 c -34,-37 -10,-112 35,-112 26,0 68,40 68,64 0,27 -39,66 -67,66 -11,0 -27,-8 -36,-18 z m 78,-12 c 25,-27 10,-71 -27,-84 -35,-12 -58,6 -58,48 0,56 49,76 85,36 z"
       id="path52"
       style="fill:#00ffff;fill-opacity:1;stroke:#ffffff;stroke-width:24.99999998;stroke-dasharray:none;stroke-opacity:1" />
    <path
       d="m 11922,5897 c -27,-29 -28,-47 -1,-81 25,-32 59,-33 87,-3 29,30 28,45 -5,79 -33,34 -53,35 -81,5 z m 77,-11 c 28,-30 24,-56 -11,-76 -33,-18 -58,-7 -72,33 -8,21 -6,31 9,47 24,26 47,25 74,-4 z"
       id="path53"
       style="fill:#00ffff;fill-opacity:1;stroke:#ffffff;stroke-width:24.99999998;stroke-dasharray:none;stroke-opacity:1" />
    <path
       d="m 6623,5889 c 33,-25 35,-62 5,-83 -24,-17 -51,-8 -68,23 -7,14 -5,25 12,46 14,18 17,26 7,23 -8,-2 -19,-15 -26,-28 -23,-46 27,-98 74,-77 45,20 42,86 -4,105 l -28,12 z"
       id="path54"
       style="fill:#00ffff;fill-opacity:1;stroke:#ffffff;stroke-width:24.99999998;stroke-dasharray:none;stroke-opacity:1" />
    <path
       d="m 12106,5889 c -39,-31 -31,-86 16,-102 23,-8 68,29 68,56 0,28 -9,41 -36,55 -18,10 -27,8 -48,-9 z m 69,-44 c 0,-17 -8,-33 -20,-41 -18,-12 -24,-11 -43,2 -12,8 -22,26 -22,39 0,13 10,31 22,39 19,13 25,14 43,2 12,-8 20,-24 20,-41 z"
       id="path55"
       style="fill:#00ffff;fill-opacity:1;stroke:#ffffff;stroke-width:24.99999998;stroke-dasharray:none;stroke-opacity:1" />
    <path
       d="m 6903,5862 -23,-17 20,-32 c 20,-34 47,-42 68,-21 18,18 15,53 -6,71 -23,21 -31,21 -59,-1 z m 51,-5 c 25,-18 18,-61 -11,-65 -30,-4 -53,39 -33,63 15,18 21,19 44,2 z"
       id="path56"
       style="fill:#00ffff;fill-opacity:1;stroke:#ffffff;stroke-width:24.99999998;stroke-dasharray:none;stroke-opacity:1" />
    <path
       d="m 11772,5858 c -21,-21 -14,-57 12,-70 14,-6 32,-8 40,-5 21,8 31,54 16,72 -15,18 -51,20 -68,3 z m 66,-24 c 4,-27 -21,-47 -48,-39 -20,6 -28,44 -13,59 15,15 58,1 61,-20 z"
       id="path57"
       style="fill:#00ffff;fill-opacity:1;stroke:#ffffff;stroke-width:24.99999998;stroke-dasharray:none;stroke-opacity:1" />
    <path
       d="m 6961,5744 c -27,-35 -26,-59 4,-89 30,-31 55,-32 83,-2 28,30 28,71 0,97 -30,27 -62,25 -87,-6 z m 81,-1 c 45,-41 -2,-120 -57,-95 -32,15 -42,55 -21,87 19,29 51,32 78,8 z"
       id="path58"
       style="fill:#00ffff;fill-opacity:1;stroke:#ffffff;stroke-width:24.99999998;stroke-dasharray:none;stroke-opacity:1" />
    <path
       d="m 11691,5744 c -29,-37 -26,-57 14,-93 35,-30 37,-31 66,-16 16,9 34,27 39,40 28,75 -70,131 -119,69 z m 106,-14 c 17,-36 6,-68 -29,-86 -27,-14 -30,-14 -58,15 -35,35 -37,54 -9,82 29,29 80,23 96,-11 z"
       id="path59"
       style="fill:#00ffff;fill-opacity:1;stroke:#ffffff;stroke-width:24.99999998;stroke-dasharray:none;stroke-opacity:1" />
    <path
       d="m 6461,5704 c -21,-27 -20,-35 7,-66 19,-23 45,-23 65,0 22,24 21,55 -1,75 -26,24 -47,21 -71,-9 z m 67,4 c 16,-16 15,-53 -3,-68 -19,-16 -45,-10 -61,15 -26,39 31,86 64,53 z"
       id="path60"
       style="fill:#00ffff;fill-opacity:1;stroke:#ffffff;stroke-width:24.99999998;stroke-dasharray:none;stroke-opacity:1" />
    <path
       d="m 12193,5704 c -15,-24 -15,-29 -2,-53 38,-68 125,-9 89,60 -16,29 -65,25 -87,-7 z m 75,4 c 39,-39 -17,-100 -58,-63 -24,22 -25,33 -3,57 19,21 44,23 61,6 z"
       id="path61"
       style="fill:#00ffff;fill-opacity:1;stroke:#ffffff;stroke-width:24.99999998;stroke-dasharray:none;stroke-opacity:1" />
    <path
       d="m 6776,5661 c -4,-5 -25,-12 -48,-16 -61,-11 -139,-79 -156,-138 -17,-56 -7,-160 20,-204 18,-31 65,-65 136,-98 29,-14 37,-14 78,0 24,8 52,15 62,15 9,0 42,24 73,53 54,52 56,56 63,119 5,49 2,73 -9,99 -9,19 -13,23 -9,9 13,-42 5,-151 -12,-178 -33,-51 -86,-86 -153,-103 -74,-19 -76,-18 -148,28 -75,48 -90,71 -97,155 -8,97 8,142 65,186 50,37 46,35 118,57 l 53,16 42,-27 c 22,-15 61,-43 86,-62 37,-29 40,-31 20,-8 -34,37 -138,106 -161,106 -10,0 -20,-4 -23,-9 z"
       id="path62"
       style="fill:#00ffff;fill-opacity:1;stroke:#ffffff;stroke-width:24.99999998;stroke-dasharray:none;stroke-opacity:1" />
    <path
       d="m 11910,5647 c -79,-50 -130,-92 -130,-106 0,-9 -7,-29 -16,-46 -18,-34 -12,-131 11,-174 22,-42 96,-98 140,-105 121,-19 118,-19 154,8 19,14 40,26 47,26 12,0 74,64 74,78 3,51 8,109 10,117 2,6 -3,32 -11,58 -10,38 -25,58 -65,93 -29,24 -63,44 -76,44 -12,1 -34,7 -48,15 -34,20 -49,18 -90,-8 z m 86,-2 c 16,-8 39,-15 50,-15 12,0 43,-18 70,-39 39,-31 52,-49 63,-87 8,-27 13,-53 11,-59 -1,-5 -4,-34 -6,-63 -3,-55 -40,-122 -68,-122 -6,0 -28,-12 -47,-26 -35,-27 -34,-27 -152,-8 -27,5 -53,21 -91,58 -52,49 -55,54 -61,116 -5,50 -3,72 9,95 9,17 16,35 16,42 0,11 85,81 135,110 27,16 37,16 71,-2 z"
       id="path63"
       style="fill:#00ffff;fill-opacity:1;stroke:#ffffff;stroke-width:24.99999998;stroke-dasharray:none;stroke-opacity:1" />
    <path
       d="m 11888,5533 c -53,-57 -62,-114 -28,-170 56,-92 177,-94 237,-4 28,41 29,73 4,128 -24,52 -63,73 -134,73 -45,0 -57,-4 -79,-27 z m 177,-16 c 79,-79 41,-196 -68,-214 -96,-15 -180,95 -136,180 28,54 50,67 112,67 54,0 62,-3 92,-33 z"
       id="path64"
       style="fill:#00ffff;fill-opacity:1;stroke:#ffffff;stroke-width:24.99999998;stroke-dasharray:none;stroke-opacity:1" />
    <path
       d="m 10452,5579 c -28,-11 -76,-60 -262,-265 -77,-86 -139,-161 -137,-168 2,-6 19,-21 37,-34 53,-35 111,-23 173,36 41,40 50,45 65,34 40,-29 85,-42 145,-42 109,0 121,5 183,81 l 56,69 h 312 311 l 132,126 c 116,109 135,124 152,115 28,-15 31,-14 31,14 0,14 7,28 15,31 16,7 45,-12 45,-29 0,-6 -58,-69 -130,-142 -71,-72 -130,-135 -130,-139 0,-5 50,-59 110,-121 l 110,-113 v -65 c 0,-97 1,-97 183,-97 h 152 l 188,-194 c 103,-107 187,-198 187,-202 0,-4 -8,-16 -17,-26 -16,-18 -24,-11 -203,167 l -186,185 h -161 -161 l -31,42 c -27,36 -31,51 -31,103 v 60 l -98,98 -97,97 h -320 -321 l -59,-62 -60,-63 60,58 61,57 h 319 320 l 93,-93 92,-92 v -60 c 0,-51 5,-67 33,-107 l 32,-48 h 159 158 l 194,-186 c 190,-183 195,-186 214,-169 11,10 20,26 20,35 0,9 -86,105 -191,213 l -191,197 h -152 c -105,0 -156,4 -164,12 -7,7 -12,40 -12,76 v 64 l -111,119 -112,120 133,133 c 107,109 131,138 125,154 -13,43 -75,35 -75,-10 0,-16 -3,-17 -21,-8 -18,10 -30,2 -107,-69 -48,-43 -107,-100 -132,-125 l -44,-46 h -312 -312 l -33,-37 c -19,-21 -46,-54 -61,-73 -27,-34 -27,-34 -120,-37 -70,-3 -99,0 -118,11 -70,42 -66,43 -118,-6 -59,-55 -116,-69 -165,-41 -17,10 -32,23 -34,29 -3,9 285,332 356,399 27,25 40,30 80,29 68,-1 111,-31 150,-104 18,-33 40,-64 49,-69 28,-15 173,-33 232,-29 l 55,4 -65,2 c -62,2 -176,17 -213,28 -9,3 -30,31 -46,62 -34,67 -56,89 -108,108 -44,15 -69,16 -101,3 z"
       id="path65"
       style="fill:#00ffff;fill-opacity:1;stroke:#ffffff;stroke-width:24.99999998;stroke-dasharray:none;stroke-opacity:1" />
    <path
       d="m 6698,5537 c -48,-39 -63,-120 -33,-177 18,-34 73,-70 109,-70 74,0 146,65 146,131 0,68 -54,140 -104,138 -15,0 -10,-4 14,-12 73,-25 105,-132 58,-192 -25,-32 -74,-55 -119,-55 -23,0 -42,10 -71,40 -39,39 -40,42 -36,95 6,66 41,111 92,118 l 31,4 -30,1 c -18,1 -41,-7 -57,-21 z"
       id="path66"
       style="fill:#00ffff;fill-opacity:1;stroke:#ffffff;stroke-width:24.99999998;stroke-dasharray:none;stroke-opacity:1" />
    <path
       d="m 6417,5492 c -33,-36 -8,-92 40,-92 25,0 53,30 53,57 0,46 -62,69 -93,35 z m 73,-8 c 10,-11 11,-23 4,-42 -17,-48 -84,-38 -84,12 0,43 53,63 80,30 z"
       id="path67"
       style="fill:#00ffff;fill-opacity:1;stroke:#ffffff;stroke-width:24.99999998;stroke-dasharray:none;stroke-opacity:1" />
    <path
       d="m 12257,5492 c -10,-10 -17,-30 -17,-45 0,-44 62,-64 93,-29 23,26 21,58 -5,76 -29,21 -51,20 -71,-2 z m 67,-8 c 30,-30 13,-74 -29,-74 -27,0 -45,18 -45,45 0,42 44,59 74,29 z"
       id="path68"
       style="fill:#00ffff;fill-opacity:1;stroke:#ffffff;stroke-width:24.99999998;stroke-dasharray:none;stroke-opacity:1" />
    <path
       d="m 8195,5408 c -21,-25 -25,-38 -21,-62 9,-44 39,-70 81,-70 42,0 72,26 81,71 5,27 1,37 -24,63 -41,41 -81,41 -117,-2 z m 110,-3 c 28,-27 30,-42 14,-78 -25,-55 -103,-55 -128,-1 -16,35 -14,48 10,78 27,34 71,35 104,1 z"
       id="path69"
       style="fill:#00ffff;fill-opacity:1;stroke:#ffffff;stroke-width:24.99999998;stroke-dasharray:none;stroke-opacity:1" />
    <path
       d="m 10419,5409 c -34,-36 -36,-53 -10,-95 46,-75 151,-40 151,50 0,31 -50,76 -84,76 -18,0 -38,-11 -57,-31 z m 108,-1 c 31,-29 30,-72 -2,-103 -32,-33 -60,-31 -96,4 -36,36 -37,57 -2,93 32,34 68,36 100,6 z"
       id="path70"
       style="fill:#00ffff;fill-opacity:1;stroke:#ffffff;stroke-width:24.99999998;stroke-dasharray:none;stroke-opacity:1" />
    <path
       d="m 11758,5233 c 16,-13 23,-28 20,-44 -2,-20 -9,-24 -38,-24 -28,0 -36,4 -38,21 -2,12 5,30 15,39 13,13 14,17 3,13 -8,-2 -19,-16 -24,-31 -12,-33 6,-57 44,-57 54,0 67,59 20,88 l -25,14 z"
       id="path71"
       style="fill:#00ffff;fill-opacity:1;stroke:#ffffff;stroke-width:24.99999998;stroke-dasharray:none;stroke-opacity:1" />
    <path
       d="m 6969,5219 c -28,-53 41,-96 75,-47 13,19 14,25 3,42 -8,11 -20,22 -27,24 -7,3 -3,-5 9,-17 17,-17 19,-25 11,-41 -13,-24 -55,-27 -64,-4 -9,24 -8,31 10,48 8,9 11,16 5,16 -6,0 -15,-10 -22,-21 z"
       id="path72"
       style="fill:#00ffff;fill-opacity:1;stroke:#ffffff;stroke-width:24.99999998;stroke-dasharray:none;stroke-opacity:1" />
    <path
       d="m 12224,5200 c -114,-26 -169,-154 -109,-256 28,-47 92,-85 141,-83 23,1 19,3 -16,10 -53,10 -86,33 -118,80 -20,28 -23,43 -20,92 4,52 9,62 44,98 69,69 161,71 221,5 80,-87 54,-225 -48,-262 -27,-10 -29,-13 -12,-13 13,-1 40,15 62,34 105,95 54,275 -84,297 -16,3 -44,2 -61,-2 z"
       id="path73"
       style="fill:#00ffff;fill-opacity:1;stroke:#ffffff;stroke-width:24.99999998;stroke-dasharray:none;stroke-opacity:1" />
    <path
       d="m 6400,5178 c -50,-34 -72,-71 -78,-127 -9,-97 59,-180 156,-188 58,-5 103,17 146,70 27,33 31,47 31,96 0,104 -68,171 -173,171 -34,0 -59,-7 -82,-22 z m 191,-23 c 61,-58 75,-132 36,-199 -34,-61 -68,-81 -137,-81 -92,0 -150,54 -157,147 -5,65 17,112 67,146 30,20 45,23 97,20 53,-3 68,-9 94,-33 z"
       id="path74"
       style="fill:#00ffff;fill-opacity:1;stroke:#ffffff;stroke-width:24.99999998;stroke-dasharray:none;stroke-opacity:1" />
    <path
       d="m 6451,5093 c -11,-10 -24,-32 -27,-50 -5,-26 -1,-37 19,-57 33,-33 61,-33 92,-1 39,38 32,86 -16,110 -36,19 -42,19 -68,-2 z m 73,-14 c 31,-25 34,-61 6,-89 -26,-26 -50,-25 -78,0 -28,26 -28,50 -1,84 25,31 38,32 73,5 z"
       id="path75"
       style="fill:#00ffff;fill-opacity:1;stroke:#ffffff;stroke-width:24.99999998;stroke-dasharray:none;stroke-opacity:1" />
    <path
       d="m 8870,5120 c -122,-42 -176,-158 -133,-286 39,-115 300,-313 501,-378 l 52,-18 v -112 c 0,-185 -36,-281 -148,-393 -107,-107 -287,-181 -494,-203 l -83,-9 85,4 c 188,9 383,88 500,203 113,112 150,212 150,402 v 115 l -78,27 c -207,74 -434,249 -479,371 -42,114 20,236 137,271 62,19 206,21 265,5 22,-6 79,-40 126,-75 48,-35 92,-64 98,-64 7,0 45,25 84,56 106,83 133,94 253,94 115,0 188,-17 234,-57 76,-63 93,-177 41,-269 -68,-118 -318,-291 -498,-345 l -43,-12 v -113 c 0,-201 32,-286 150,-404 57,-58 95,-85 160,-117 102,-50 218,-82 320,-88 l 75,-4 -74,9 c -276,36 -482,155 -571,330 -38,75 -50,142 -50,269 v 108 l 74,27 c 190,69 414,235 475,351 28,52 28,141 2,194 -28,53 -82,98 -143,116 -61,18 -229,20 -279,4 -19,-7 -72,-40 -118,-75 -46,-35 -88,-64 -94,-64 -6,0 -46,28 -89,61 -44,34 -100,68 -125,75 -68,21 -216,17 -283,-6 z"
       id="path76"
       style="fill:#00ffff;fill-opacity:1;stroke:#ffffff;stroke-width:24.99999998;stroke-dasharray:none;stroke-opacity:1" />
    <path
       d="m 12216,5085 c -47,-43 -24,-115 38,-115 40,0 63,17 71,52 6,22 1,33 -23,58 -37,36 -51,37 -86,5 z m 80,-11 c 20,-19 24,-31 19,-52 -8,-31 -21,-42 -54,-42 -58,0 -80,63 -35,99 34,27 40,26 70,-5 z"
       id="path77"
       style="fill:#00ffff;fill-opacity:1;stroke:#ffffff;stroke-width:24.99999998;stroke-dasharray:none;stroke-opacity:1" />
    <path
       d="m 6781,5074 c -60,-51 -28,-144 50,-144 52,0 79,27 79,79 0,32 -6,44 -31,65 -17,14 -39,26 -49,26 -10,0 -32,-12 -49,-26 z m 87,-4 c 27,-16 32,-26 32,-57 0,-49 -23,-73 -71,-73 -45,0 -69,27 -69,76 0,24 8,38 28,53 34,25 39,26 80,1 z"
       id="path78"
       style="fill:#00ffff;fill-opacity:1;stroke:#ffffff;stroke-width:24.99999998;stroke-dasharray:none;stroke-opacity:1" />
    <path
       d="m 11874,5090 c -58,-23 -70,-95 -25,-141 33,-33 50,-35 91,-14 58,30 66,87 19,134 -31,32 -48,36 -85,21 z m 80,-31 c 35,-41 33,-71 -5,-103 -35,-29 -41,-31 -72,-14 -62,33 -63,103 -2,136 33,18 52,14 79,-19 z"
       id="path79"
       style="fill:#00ffff;fill-opacity:1;stroke:#ffffff;stroke-width:24.99999998;stroke-dasharray:none;stroke-opacity:1" />
    <path
       d="m 10420,5066 c -86,-32 -277,-167 -265,-187 9,-14 156,8 390,58 131,28 176,42 196,60 25,23 26,23 303,23 h 278 l 194,-190 c 106,-104 198,-190 203,-190 5,0 14,14 20,31 l 10,30 97,-7 97,-7 106,-111 c 333,-347 331,-344 291,-368 -12,-7 -62,37 -225,201 l -209,211 h -78 c -60,0 -78,-3 -78,-14 0,-8 117,-135 260,-282 143,-148 260,-273 260,-280 0,-6 -10,-19 -21,-30 l -22,-19 -466,473 -466,472 h -235 -234 l -56,-55 c -51,-50 -62,-56 -118,-66 -118,-18 -442,-125 -450,-147 -3,-9 19,-12 80,-10 l 83,2 -80,5 -80,6 170,56 c 94,32 197,62 230,69 121,23 133,29 176,80 l 42,50 h 232 232 l 474,-476 474,-475 22,28 c 13,15 23,33 23,39 0,6 -117,132 -260,280 -143,148 -260,272 -260,277 0,4 33,7 74,7 h 74 l 209,-215 208,-215 24,24 c 19,20 22,29 15,45 -5,11 -101,117 -214,235 -191,202 -206,216 -240,216 -19,0 -65,3 -101,6 l -66,7 -11,-33 -12,-32 -127,120 c -71,66 -159,152 -198,191 l -69,71 h -280 c -280,0 -280,0 -305,-23 -21,-19 -67,-32 -226,-66 -179,-37 -344,-63 -353,-55 -7,6 131,101 201,139 56,30 87,41 142,46 l 70,6 -60,1 c -33,0 -76,-5 -95,-12 z"
       id="path80"
       style="fill:#00ffff;fill-opacity:1;stroke:#ffffff;stroke-width:24.99999998;stroke-dasharray:none;stroke-opacity:1" />
    <path
       d="m 7553,4768 c -12,-6 -27,-23 -33,-39 -10,-24 -10,-33 4,-54 25,-39 58,-50 98,-35 18,7 97,15 176,17 135,5 144,7 158,28 9,14 12,33 9,48 l -7,25 -171,5 c -95,2 -181,7 -192,10 -11,3 -30,1 -42,-5 z m 229,-15 c 153,-4 168,-6 173,-23 3,-11 1,-28 -5,-40 -10,-18 -20,-20 -123,-20 -62,-1 -130,-5 -152,-9 -22,-5 -54,-12 -72,-16 -26,-6 -36,-3 -57,18 -33,33 -33,51 0,83 19,20 31,24 47,19 12,-5 97,-10 189,-12 z"
       id="path81"
       style="fill:#00ffff;fill-opacity:1;stroke:#ffffff;stroke-width:24.99999998;stroke-dasharray:none;stroke-opacity:1" />
    <path
       d="m 11116,4773 c -4,-5 -76,-11 -159,-14 l -152,-5 134,-2 c 79,-1 150,3 173,10 34,10 42,9 66,-9 34,-25 40,-65 13,-92 -26,-26 -51,-26 -102,0 -23,11 -43,19 -45,16 -2,-2 19,-14 46,-27 40,-19 56,-22 77,-14 35,12 58,52 49,87 -9,37 -78,71 -100,50 z"
       id="path82"
       style="fill:#00ffff;fill-opacity:1;stroke:#ffffff;stroke-width:24.99999998;stroke-dasharray:none;stroke-opacity:1" />
    <path
       d="m 10773,4734 c -3,-9 -2,-28 3,-43 l 9,-26 125,-1 h 125 l -120,3 c -79,3 -122,8 -127,16 -12,19 -9,55 5,60 9,4 9,6 -1,6 -7,1 -15,-6 -19,-15 z"
       id="path83"
       style="fill:#00ffff;fill-opacity:1;stroke:#ffffff;stroke-width:24.99999998;stroke-dasharray:none;stroke-opacity:1" />
    <path
       d="m 6368,4719 c -10,-5 -18,-17 -18,-26 0,-11 5,-9 19,8 16,20 21,21 35,10 19,-16 21,-42 4,-59 -16,-16 -23,-15 -42,4 -9,8 -16,11 -16,5 0,-9 31,-31 44,-31 12,0 36,33 36,50 0,18 -25,50 -38,50 -4,0 -15,-5 -24,-11 z"
       id="path84"
       style="fill:#00ffff;fill-opacity:1;stroke:#ffffff;stroke-width:24.99999998;stroke-dasharray:none;stroke-opacity:1" />
    <path
       d="m 12315,4714 c -9,-9 -15,-28 -13,-43 2,-20 9,-27 29,-29 25,-3 59,19 59,39 0,12 -37,49 -49,49 -5,0 -17,-7 -26,-16 z m 49,-10 c 9,-8 16,-19 16,-23 0,-15 -25,-31 -47,-31 -17,0 -23,6 -23,23 0,22 16,47 31,47 4,0 15,-7 23,-16 z"
       id="path85"
       style="fill:#00ffff;fill-opacity:1;stroke:#ffffff;stroke-width:24.99999998;stroke-dasharray:none;stroke-opacity:1" />
    <path
       d="m 8173,4653 c 37,-2 97,-2 135,0 37,2 6,3 -68,3 -74,0 -105,-1 -67,-3 z"
       id="path86"
       style="fill:#00ffff;fill-opacity:1;stroke:#ffffff;stroke-width:24.99999998;stroke-dasharray:none;stroke-opacity:1" />
    <path
       d="m 10438,4653 c 39,-2 105,-2 145,0 39,1 7,3 -73,3 -80,0 -112,-2 -72,-3 z"
       id="path87"
       style="fill:#00ffff;fill-opacity:1;stroke:#ffffff;stroke-width:24.99999998;stroke-dasharray:none;stroke-opacity:1" />
    <path
       d="m 8019,4629 c -6,-12 -8,-36 -5,-55 6,-28 13,-35 44,-44 20,-5 48,-9 62,-9 14,1 1,6 -28,11 -59,11 -80,36 -68,82 5,20 13,26 44,29 l 37,4 -37,1 c -29,2 -40,-3 -49,-19 z"
       id="path88"
       style="fill:#00ffff;fill-opacity:1;stroke:#ffffff;stroke-width:24.99999998;stroke-dasharray:none;stroke-opacity:1" />
    <path
       d="m 10680,4642 c 20,-6 26,-15 28,-46 2,-21 0,-42 -5,-47 -4,-4 -80,-19 -168,-33 -183,-28 -302,-54 -310,-66 -6,-10 97,-33 123,-28 9,2 -9,8 -41,12 -31,4 -55,11 -52,16 5,9 171,41 334,65 58,9 111,21 118,27 9,7 13,27 11,57 -3,43 -5,46 -33,48 -28,2 -28,1 -5,-5 z"
       id="path89"
       style="fill:#00ffff;fill-opacity:1;stroke:#ffffff;stroke-width:24.99999998;stroke-dasharray:none;stroke-opacity:1" />
    <path
       d="m 6905,4294 -247,-256 28,-29 c 15,-16 32,-29 38,-29 5,0 111,104 234,230 l 224,230 322,2 321,3 -320,2 -320,3 -230,-230 -231,-231 -23,25 -24,25 71,78 c 39,43 149,156 244,250 l 173,173 305,3 305,2 -311,3 -312,2 z"
       id="path90"
       style="fill:#00ffff;fill-opacity:1;stroke:#ffffff;stroke-width:24.99999998;stroke-dasharray:none;stroke-opacity:1" />
    <path
       d="m 10796,4528 c -9,-12 -16,-35 -16,-50 0,-23 4,-28 23,-27 16,1 18,2 5,6 -20,5 -23,34 -8,64 10,18 25,19 383,19 h 373 l 242,-244 c 133,-134 242,-251 242,-259 0,-9 -10,-23 -22,-32 -22,-15 -28,-10 -253,215 l -230,230 -350,-3 -350,-2 351,-3 351,-2 227,-230 226,-231 30,18 c 17,9 30,26 30,36 0,17 -447,490 -482,508 -9,5 -183,9 -387,9 h -370 z"
       id="path91"
       style="fill:#00ffff;fill-opacity:1;stroke:#ffffff;stroke-width:24.99999998;stroke-dasharray:none;stroke-opacity:1" />
    <path
       d="m 7865,4531 70,-6 3,-32 c 3,-32 3,-32 -50,-36 l -53,-3 58,-2 c 57,-2 57,-2 57,27 0,57 -6,61 -84,59 l -71,-2 z"
       id="path92"
       style="fill:#00ffff;fill-opacity:1;stroke:#ffffff;stroke-width:24.99999998;stroke-dasharray:none;stroke-opacity:1" />
    <path
       d="m 8200,4509 c 175,-29 283,-52 265,-59 -11,-4 -108,-22 -215,-39 -107,-18 -204,-36 -215,-41 -17,-8 -17,-9 5,-5 14,3 119,21 235,40 115,19 213,39 218,44 6,6 -6,14 -29,20 -64,17 -265,51 -293,50 -14,-1 -1,-5 29,-10 z"
       id="path93"
       style="fill:#00ffff;fill-opacity:1;stroke:#ffffff;stroke-width:24.99999998;stroke-dasharray:none;stroke-opacity:1" />
    <path
       d="m 10405,4409 c 22,-4 51,-8 65,-7 16,0 11,3 -15,9 -22,4 -51,8 -65,7 -16,0 -11,-3 15,-9 z"
       id="path94"
       style="fill:#00ffff;fill-opacity:1;stroke:#ffffff;stroke-width:24.99999998;stroke-dasharray:none;stroke-opacity:1" />
    <path
       d="m 10595,4380 c 55,-11 101,-19 103,-19 8,-2 0,-50 -10,-59 -7,-5 -116,-15 -243,-21 -126,-7 -231,-14 -234,-16 -9,-10 13,-19 200,-77 243,-75 244,-75 217,-110 -12,-15 -32,-14 -247,8 -129,13 -237,22 -239,19 -3,-3 87,-50 201,-105 113,-55 208,-104 211,-109 3,-4 -3,-16 -12,-25 -17,-15 -26,-14 -118,10 -142,37 -318,74 -324,67 -6,-6 5,-14 166,-118 68,-44 124,-84 124,-90 0,-6 -51,-12 -122,-15 l -123,-6 115,-2 c 115,-2 160,3 160,18 0,4 -66,49 -146,100 -80,51 -143,94 -140,97 6,6 92,-11 255,-52 99,-26 138,-32 152,-24 18,9 21,14 23,40 1,7 -84,53 -189,104 -219,107 -221,105 60,76 163,-17 182,-18 198,-3 26,23 21,51 -10,63 -16,6 -111,36 -213,67 l -184,57 79,7 c 44,4 147,10 228,14 161,7 177,12 177,65 0,16 -1,29 -2,29 -2,0 -41,7 -88,15 -47,8 -94,14 -105,14 -11,-1 25,-9 80,-19 z"
       id="path95"
       style="fill:#00ffff;fill-opacity:1;stroke:#ffffff;stroke-width:24.99999998;stroke-dasharray:none;stroke-opacity:1" />
    <path
       d="m 8033,4326 c 3,-39 19,-43 225,-52 273,-11 272,-10 69,-71 -234,-70 -250,-77 -242,-105 15,-49 17,-49 235,-24 113,13 192,24 175,25 -16,0 -109,-8 -204,-19 -96,-11 -176,-18 -177,-17 -17,23 -22,46 -11,55 11,9 121,45 330,107 48,14 87,30 87,34 0,10 -83,17 -295,27 -158,7 -181,13 -188,46 -4,17 -5,15 -4,-6 z"
       id="path96"
       style="fill:#00ffff;fill-opacity:1;stroke:#ffffff;stroke-width:24.99999998;stroke-dasharray:none;stroke-opacity:1" />
    <path
       d="m 7207,4252 c -52,-52 -67,-74 -67,-97 0,-24 -39,-68 -255,-285 -140,-141 -255,-261 -255,-267 0,-16 40,-63 54,-63 13,0 555,541 557,556 4,45 9,58 34,84 l 29,30 h 311 c 346,0 349,1 343,60 -2,27 -9,36 -28,41 -14,4 -167,7 -340,8 l -316,1 z m 712,52 c 27,-6 31,-11 31,-39 0,-21 -6,-35 -16,-39 -9,-3 -154,-6 -324,-6 h -308 l -37,-41 c -21,-24 -34,-47 -31,-55 4,-9 -13,-36 -41,-67 -96,-107 -498,-507 -509,-507 -11,0 -44,42 -44,57 0,4 115,122 255,263 217,218 255,261 255,285 0,23 14,43 66,92 l 65,63 h 303 c 167,0 318,-3 335,-6 z"
       id="path97"
       style="fill:#00ffff;fill-opacity:1;stroke:#ffffff;stroke-width:24.99999998;stroke-dasharray:none;stroke-opacity:1" />
    <path
       d="m 10774,4285 c -5,-27 -2,-41 11,-55 17,-19 33,-20 322,-20 h 304 l 35,-27 c 25,-21 34,-36 34,-58 0,-26 37,-67 278,-308 152,-152 282,-277 289,-277 12,0 53,47 53,61 0,5 -115,126 -255,268 -140,143 -255,265 -255,271 0,31 -38,85 -92,130 l -60,50 h -328 -329 z m 730,-36 c 43,-40 67,-71 72,-92 5,-24 56,-83 198,-227 348,-356 322,-325 302,-354 -9,-14 -22,-26 -29,-26 -6,0 -135,123 -284,272 -244,244 -273,276 -273,305 0,25 -8,39 -35,60 l -35,28 -311,5 c -341,5 -340,5 -325,63 l 6,27 h 325 324 z"
       id="path98"
       style="fill:#00ffff;fill-opacity:1;stroke:#ffffff;stroke-width:24.99999998;stroke-dasharray:none;stroke-opacity:1" />
    <path
       d="m 8548,4102 c 18,-6 -19,-26 -178,-101 -208,-97 -222,-108 -184,-145 8,-9 17,-16 20,-16 2,0 72,18 156,39 84,22 176,42 203,46 l 50,7 -75,-49 c -41,-27 -110,-71 -153,-97 -57,-36 -75,-52 -67,-60 7,-7 57,-11 128,-12 l 117,-1 -117,6 c -64,3 -119,9 -122,12 -3,3 25,23 62,44 58,35 239,151 251,161 24,22 -122,-4 -318,-57 -101,-27 -115,-29 -129,-16 -8,9 -12,22 -9,29 2,8 95,56 206,108 111,51 201,97 201,102 0,4 -15,8 -32,7 -28,-1 -29,-2 -10,-7 z"
       id="path99"
       style="fill:#00ffff;fill-opacity:1;stroke:#ffffff;stroke-width:24.99999998;stroke-dasharray:none;stroke-opacity:1" />
    <path
       d="m 7102,3726 c -172,-173 -312,-319 -312,-325 0,-5 12,-24 27,-41 l 26,-32 306,306 306,306 265,3 265,2 -265,3 -265,2 -305,-305 c -317,-318 -313,-315 -342,-262 -9,17 26,56 303,333 l 314,314 h 296 c 262,0 298,-2 303,-16 11,-29 6,-45 -16,-54 l -23,-9 h 22 c 27,-1 40,37 23,68 -10,21 -16,21 -314,21 h -303 z"
       id="path100"
       style="fill:#00ffff;fill-opacity:1;stroke:#ffffff;stroke-width:24.99999998;stroke-dasharray:none;stroke-opacity:1" />
    <path
       d="m 10700,4021 c -16,-30 -12,-59 9,-71 12,-6 122,-10 287,-10 h 267 l 310,-306 309,-306 36,35 35,35 -324,321 -324,320 -297,1 c -284,0 -298,-1 -308,-19 z m 923,-309 318,-318 -29,-27 -28,-27 -304,305 -305,305 h -272 c -149,0 -278,3 -287,6 -16,6 -21,30 -10,58 5,14 41,16 303,16 h 296 z"
       id="path101"
       style="fill:#00ffff;fill-opacity:1;stroke:#ffffff;stroke-width:24.99999998;stroke-dasharray:none;stroke-opacity:1" />
    <path
       d="m 6487,3862 c -10,-10 -17,-28 -17,-39 0,-23 30,-53 53,-53 21,0 57,35 57,55 0,21 -36,55 -58,55 -11,0 -26,-8 -35,-18 z m 65,-9 c 23,-21 23,-36 -1,-57 -39,-35 -85,1 -63,48 13,30 37,33 64,9 z"
       id="path102"
       style="fill:#00ffff;fill-opacity:1;stroke:#ffffff;stroke-width:24.99999998;stroke-dasharray:none;stroke-opacity:1" />
    <path
       d="m 12163,3854 c -15,-24 -15,-29 -2,-53 18,-33 67,-41 86,-15 18,25 16,58 -5,77 -27,25 -59,21 -79,-9 z m 75,4 c 26,-26 7,-78 -28,-78 -9,0 -25,9 -35,20 -37,41 24,97 63,58 z"
       id="path103"
       style="fill:#00ffff;fill-opacity:1;stroke:#ffffff;stroke-width:24.99999998;stroke-dasharray:none;stroke-opacity:1" />
    <path
       d="m 8035,3780 c -15,-16 -17,-26 -9,-48 12,-34 59,-38 80,-6 13,18 12,24 -7,47 -25,32 -40,34 -64,7 z m 59,-12 c 27,-39 -18,-80 -52,-46 -23,23 -7,68 24,68 7,0 20,-10 28,-22 z"
       id="path104"
       style="fill:#00ffff;fill-opacity:1;stroke:#ffffff;stroke-width:24.99999998;stroke-dasharray:none;stroke-opacity:1" />
    <path
       d="m 10636,3784 c -9,-8 -16,-20 -16,-26 0,-6 8,0 18,12 16,19 22,21 40,11 12,-6 22,-20 22,-29 0,-39 -50,-57 -69,-24 -6,9 -11,12 -11,7 0,-16 22,-35 40,-35 21,0 50,31 50,53 0,15 -35,47 -52,47 -3,0 -14,-7 -22,-16 z"
       id="path105"
       style="fill:#00ffff;fill-opacity:1;stroke:#ffffff;stroke-width:24.99999998;stroke-dasharray:none;stroke-opacity:1" />
    <path
       d="m 7626,3728 c -21,-30 -20,-54 4,-78 41,-41 110,-14 110,42 0,55 -83,81 -114,36 z m 88,-4 c 19,-18 21,-55 4,-72 -28,-28 -98,-4 -98,34 0,49 59,73 94,38 z"
       id="path106"
       style="fill:#00ffff;fill-opacity:1;stroke:#ffffff;stroke-width:24.99999998;stroke-dasharray:none;stroke-opacity:1" />
    <path
       d="m 10996,3728 c -9,-12 -16,-29 -16,-38 0,-53 71,-79 110,-40 26,26 25,50 0,78 -27,29 -74,29 -94,0 z m 86,-5 c 37,-33 11,-83 -43,-83 -22,0 -32,7 -41,25 -26,57 37,101 84,58 z"
       id="path107"
       style="fill:#00ffff;fill-opacity:1;stroke:#ffffff;stroke-width:24.99999998;stroke-dasharray:none;stroke-opacity:1" />
    <path
       d="m 7305,3675 c -14,-13 -25,-30 -25,-38 0,-17 48,-63 57,-54 3,4 1,7 -5,7 -6,0 -19,11 -27,24 -20,31 -6,63 30,72 34,9 55,-11 55,-53 0,-26 -5,-36 -22,-43 -14,-5 -17,-9 -7,-9 39,-2 55,72 21,102 -26,24 -49,21 -77,-8 z"
       id="path108"
       style="fill:#00ffff;fill-opacity:1;stroke:#ffffff;stroke-width:24.99999998;stroke-dasharray:none;stroke-opacity:1" />
    <path
       d="m 11346,3678 c -22,-31 -20,-51 7,-76 30,-28 62,-28 81,0 22,31 20,54 -6,78 -29,26 -63,26 -82,-2 z m 79,-8 c 41,-46 -20,-105 -66,-64 -23,21 -24,47 -3,68 21,22 47,20 69,-4 z"
       id="path109"
       style="fill:#00ffff;fill-opacity:1;stroke:#ffffff;stroke-width:24.99999998;stroke-dasharray:none;stroke-opacity:1" />
    <path
       d="m 7858,3663 c -26,-31 -29,-42 -18,-63 18,-34 48,-44 76,-25 32,21 31,58 -2,84 -32,25 -37,26 -56,4 z m 50,-9 c 45,-31 11,-100 -37,-75 -27,15 -34,41 -16,67 18,28 23,29 53,8 z"
       id="path110"
       style="fill:#00ffff;fill-opacity:1;stroke:#ffffff;stroke-width:24.99999998;stroke-dasharray:none;stroke-opacity:1" />
    <path
       d="m 10793,3644 c -15,-24 -15,-29 -2,-53 21,-37 61,-40 88,-5 26,33 26,39 1,64 -28,28 -66,26 -87,-6 z m 81,0 c 20,-19 20,-24 0,-52 -19,-27 -45,-28 -69,-2 -40,44 27,97 69,54 z"
       id="path111"
       style="fill:#00ffff;fill-opacity:1;stroke:#ffffff;stroke-width:24.99999998;stroke-dasharray:none;stroke-opacity:1" />
    <path
       d="m 9190,3619 c -72,-53 -179,-104 -260,-124 -36,-9 -80,-21 -99,-27 l -34,-10 7,-107 c 15,-219 48,-408 107,-603 l 21,-69 131,3 131,3 8,30 c 17,63 48,255 58,365 15,170 13,580 -2,580 -7,0 -38,-19 -68,-41 z m 70,-196 c 0,-294 -13,-447 -57,-656 l -16,-78 -125,3 -125,3 -14,45 c -61,199 -101,431 -105,615 l -3,99 95,26 c 113,31 205,73 280,128 30,23 58,41 63,42 4,0 7,-102 7,-227 z"
       id="path112"
       style="fill:#00ffff;fill-opacity:1;stroke:#ffffff;stroke-width:24.99999998;stroke-dasharray:none;stroke-opacity:1" />
    <path
       d="m 9472,3378 3,-273 5,268 5,267 39,-26 c 67,-45 218,-112 306,-135 47,-12 89,-25 93,-29 11,-10 -10,-252 -34,-399 -11,-69 -35,-174 -52,-235 l -32,-111 -60,-6 -60,-6 62,-1 62,-2 26,81 c 47,151 82,356 100,595 5,60 3,83 -7,91 -7,5 -51,19 -97,31 -92,24 -226,84 -297,131 -25,17 -49,31 -55,31 -5,0 -8,-106 -7,-272 z"
       id="path113"
       style="fill:#00ffff;fill-opacity:1;stroke:#ffffff;stroke-width:24.99999998;stroke-dasharray:none;stroke-opacity:1" />
    <path
       d="m 8236,3588 c -21,-29 -20,-41 4,-63 17,-15 24,-16 45,-7 34,16 41,37 21,67 -20,31 -50,32 -70,3 z m 64,-7 c 13,-25 13,-27 -6,-45 -21,-22 -41,-20 -54,4 -8,14 -8,26 0,40 14,25 46,26 60,1 z"
       id="path114"
       style="fill:#00ffff;fill-opacity:1;stroke:#ffffff;stroke-width:24.99999998;stroke-dasharray:none;stroke-opacity:1" />
    <path
       d="m 10428,3599 c -23,-13 -23,-51 0,-72 24,-22 35,-21 55,1 22,24 21,45 -1,65 -21,19 -30,20 -54,6 z m 50,-11 c 17,-17 15,-43 -4,-59 -31,-26 -70,25 -44,56 15,18 32,19 48,3 z"
       id="path115"
       style="fill:#00ffff;fill-opacity:1;stroke:#ffffff;stroke-width:24.99999998;stroke-dasharray:none;stroke-opacity:1" />
    <path
       d="m 7533,3565 c -12,-8 -23,-25 -25,-37 -2,-11 -15,-30 -30,-41 -26,-19 -29,-20 -46,-4 -10,9 -23,17 -29,17 -18,0 -41,-34 -48,-73 -7,-36 -9,-37 -40,-31 -27,5 -36,2 -49,-17 -22,-32 -20,-54 5,-71 18,-11 20,-20 15,-46 -6,-26 -13,-32 -42,-38 -32,-6 -34,-9 -34,-45 0,-32 4,-39 19,-39 21,0 51,-35 51,-59 0,-9 -12,-25 -27,-37 l -28,-23 21,-38 c 12,-23 26,-36 35,-34 8,2 21,5 30,8 9,3 23,-6 33,-22 17,-25 17,-28 0,-46 -17,-18 -16,-20 7,-47 13,-15 25,-29 27,-32 1,-2 18,4 37,14 32,17 36,18 59,3 14,-10 26,-28 28,-44 5,-44 88,-56 88,-13 0,38 83,38 93,0 11,-41 97,-18 97,26 0,33 40,53 74,35 30,-17 64,-6 78,25 8,17 8,27 -1,38 -23,27 22,81 68,81 21,0 28,7 37,35 14,42 9,60 -17,60 -15,0 -19,7 -19,34 0,37 21,66 47,66 12,0 14,8 10,36 -7,43 -23,64 -48,64 -12,0 -26,13 -36,35 -15,32 -15,36 0,53 23,25 21,35 -9,71 -29,34 -40,37 -63,17 -14,-12 -23,-9 -68,21 -41,26 -53,39 -53,59 0,17 -8,27 -26,34 -40,15 -54,12 -64,-15 -8,-21 -16,-25 -48,-25 -33,0 -39,4 -49,30 -13,33 -28,37 -60,15 z m 54,-25 c 6,-30 7,-31 57,-28 44,3 51,6 54,26 6,39 72,19 72,-22 0,-18 15,-32 61,-61 57,-35 61,-36 74,-19 17,23 38,13 63,-28 15,-25 15,-28 -3,-48 -19,-21 -19,-22 0,-58 13,-23 29,-38 43,-40 14,-2 27,-14 33,-28 14,-39 11,-51 -15,-58 -24,-6 -36,-30 -36,-79 0,-20 7,-30 24,-37 23,-8 24,-12 15,-42 -5,-18 -9,-35 -9,-37 0,-2 -11,0 -24,3 -19,5 -31,-2 -55,-29 -36,-41 -35,-39 -19,-65 11,-17 9,-23 -10,-42 -19,-19 -25,-21 -42,-10 -41,25 -100,0 -100,-42 0,-25 -17,-36 -56,-36 -15,0 -24,6 -24,15 0,21 -43,39 -75,31 -15,-4 -30,-17 -35,-32 -7,-18 -15,-24 -26,-20 -9,3 -22,6 -29,6 -8,0 -15,12 -17,27 -2,14 -15,35 -31,47 -27,20 -28,20 -58,2 -31,-18 -31,-18 -58,8 -24,25 -25,28 -8,37 23,14 21,33 -7,66 -21,24 -27,26 -49,16 -24,-11 -26,-9 -42,23 -16,34 -16,36 2,49 10,8 21,15 26,15 11,0 9,36 -5,65 -6,14 -22,28 -35,31 -17,5 -23,13 -23,34 0,22 6,29 32,36 25,7 35,17 42,43 9,30 7,36 -14,53 -20,16 -22,23 -14,46 8,23 15,27 49,27 38,0 39,1 50,44 13,55 40,75 61,47 13,-19 16,-19 49,-3 23,11 37,26 41,44 13,56 61,71 71,23 z"
       id="path116"
       style="fill:#00ffff;fill-opacity:1;stroke:#ffffff;stroke-width:24.99999998;stroke-dasharray:none;stroke-opacity:1" />
    <path
       d="m 7535,3386 c -86,-37 -145,-129 -145,-226 0,-101 58,-187 155,-231 132,-61 310,39 338,189 23,119 -87,270 -202,278 l -46,3 40,-8 c 196,-37 268,-286 118,-410 -125,-103 -304,-68 -369,73 -62,134 2,289 138,331 24,8 34,14 23,14 -11,0 -33,-6 -50,-13 z"
       id="path117"
       style="fill:#00ffff;fill-opacity:1;stroke:#ffffff;stroke-width:24.99999998;stroke-dasharray:none;stroke-opacity:1" />
    <path
       d="m 7602,3224 c -46,-32 -48,-87 -3,-121 23,-18 45,-16 75,8 37,29 35,70 -5,103 -36,31 -38,31 -67,10 z m 62,-15 c 35,-27 35,-72 1,-95 -31,-20 -53,-15 -77,17 -19,25 -19,28 -4,57 14,27 27,39 47,41 4,1 18,-8 33,-20 z"
       id="path118"
       style="fill:#00ffff;fill-opacity:1;stroke:#ffffff;stroke-width:24.99999998;stroke-dasharray:none;stroke-opacity:1" />
    <path
       d="m 10998,3568 c -20,-7 -28,-16 -28,-33 0,-16 -15,-34 -50,-59 -56,-40 -66,-43 -91,-20 -16,15 -20,13 -48,-27 -36,-49 -37,-56 -14,-81 15,-17 15,-21 0,-53 -13,-28 -22,-35 -46,-35 -31,0 -41,-18 -41,-72 0,-24 4,-28 29,-28 24,0 29,-5 35,-31 10,-50 8,-56 -19,-63 -28,-7 -34,-41 -14,-78 8,-16 17,-19 39,-14 24,4 33,0 54,-27 23,-28 24,-33 10,-48 -18,-20 -10,-41 25,-73 20,-18 22,-18 39,-3 22,20 33,21 67,5 16,-7 25,-19 25,-34 0,-16 9,-25 31,-33 44,-15 48,-14 59,14 8,20 16,25 45,25 28,0 38,-5 47,-25 8,-18 19,-25 39,-25 45,0 59,10 59,41 0,22 7,32 31,45 30,15 33,15 58,-3 l 26,-20 24,29 c 20,25 22,32 11,52 -13,25 -5,51 24,76 12,9 20,9 29,2 15,-13 30,-5 46,25 17,33 13,61 -9,68 -15,5 -20,15 -20,45 0,33 4,41 28,52 17,9 28,22 29,38 2,24 2,24 -5,2 -4,-12 -18,-28 -32,-35 -35,-17 -42,-90 -11,-107 25,-13 27,-37 5,-68 -13,-18 -19,-21 -30,-11 -12,10 -20,7 -39,-11 -31,-29 -40,-57 -25,-75 10,-12 9,-20 -4,-40 -20,-30 -24,-30 -48,-8 -18,16 -21,16 -56,-2 -27,-15 -38,-28 -42,-50 -4,-25 -10,-30 -38,-33 -24,-2 -34,1 -39,15 -9,26 -23,33 -65,33 -32,0 -39,-4 -44,-25 -7,-28 -11,-29 -48,-15 -15,6 -26,17 -26,29 0,38 -75,66 -100,36 -12,-14 -16,-13 -41,11 -27,25 -28,29 -13,45 14,16 14,20 -2,46 -26,41 -44,53 -72,46 -46,-11 -61,60 -16,77 24,10 26,14 20,52 -9,53 -12,58 -42,58 -20,0 -24,5 -24,28 0,36 10,49 39,53 16,3 33,17 45,38 19,32 19,35 3,64 -17,28 -16,31 4,63 20,34 42,43 54,24 10,-17 31,-11 84,23 35,22 53,41 57,60 11,46 74,55 74,11 0,-10 14,-14 50,-14 45,0 52,3 60,25 15,38 70,31 70,-10 0,-24 17,-42 68,-71 32,-18 34,-18 46,-1 19,25 44,11 52,-28 4,-25 13,-36 35,-44 33,-12 35,-18 12,-43 -14,-15 -14,-24 -4,-58 10,-35 16,-40 41,-40 15,0 31,-5 33,-10 3,-6 4,-5 3,2 -1,7 -16,15 -31,18 -39,7 -57,60 -31,89 20,22 12,49 -17,53 -13,2 -24,15 -32,37 -15,46 -41,62 -60,37 -13,-18 -15,-17 -57,6 -32,17 -44,30 -46,51 -6,50 -77,63 -89,17 -8,-29 -89,-29 -98,-1 -8,25 -24,30 -57,19 z"
       id="path119"
       style="fill:#00ffff;fill-opacity:1;stroke:#ffffff;stroke-width:24.99999998;stroke-dasharray:none;stroke-opacity:1" />
    <path
       d="m 11026,3395 c -170,-61 -223,-290 -95,-412 40,-37 97,-63 136,-62 22,1 18,3 -14,9 -116,23 -183,107 -183,227 1,74 24,126 83,180 53,49 111,68 181,58 107,-14 166,-67 202,-180 7,-22 13,-31 13,-20 1,37 -46,121 -89,157 -62,54 -156,71 -234,43 z"
       id="path120"
       style="fill:#00ffff;fill-opacity:1;stroke:#ffffff;stroke-width:24.99999998;stroke-dasharray:none;stroke-opacity:1" />
    <path
       d="m 6985,3375 c -29,-28 -31,-45 -10,-84 25,-50 73,-55 116,-12 36,36 36,51 3,90 -33,39 -74,41 -109,6 z m 104,-11 c 27,-34 26,-50 -4,-79 -32,-33 -68,-32 -94,1 -26,33 -27,58 -1,84 29,29 74,26 99,-6 z"
       id="path121"
       style="fill:#00ffff;fill-opacity:1;stroke:#ffffff;stroke-width:24.99999998;stroke-dasharray:none;stroke-opacity:1" />
    <path
       d="m 11626,3379 c -34,-27 -35,-71 -1,-104 28,-29 61,-32 93,-9 34,24 43,48 31,83 -19,54 -75,67 -123,30 z m 91,3 c 21,-13 34,-61 23,-82 -33,-62 -130,-43 -130,25 0,48 66,83 107,57 z"
       id="path122"
       style="fill:#00ffff;fill-opacity:1;stroke:#ffffff;stroke-width:24.99999998;stroke-dasharray:none;stroke-opacity:1" />
    <path
       d="m 11051,3204 c -27,-34 -26,-46 5,-83 31,-37 63,-40 91,-8 32,36 35,45 19,75 -26,50 -82,58 -115,16 z m 85,8 c 6,-4 16,-17 23,-30 26,-49 -48,-104 -89,-67 -29,26 -34,53 -16,80 16,25 58,33 82,17 z"
       id="path123"
       style="fill:#00ffff;fill-opacity:1;stroke:#ffffff;stroke-width:24.99999998;stroke-dasharray:none;stroke-opacity:1" />
    <path
       d="m 6933,3188 c -12,-6 -26,-22 -31,-37 -27,-76 77,-134 123,-68 43,61 -25,138 -92,105 z m 71,-19 c 61,-48 -4,-137 -69,-95 -36,24 -37,70 -3,99 26,22 40,22 72,-4 z"
       id="path124"
       style="fill:#00ffff;fill-opacity:1;stroke:#ffffff;stroke-width:24.99999998;stroke-dasharray:none;stroke-opacity:1" />
    <path
       d="m 11733,3190 c -47,-19 -53,-80 -13,-120 27,-27 54,-25 91,8 25,22 31,34 26,53 -13,53 -58,78 -104,59 z m 72,-25 c 32,-31 31,-50 0,-81 -31,-31 -61,-28 -88,8 -33,44 -7,95 51,97 7,1 24,-10 37,-24 z"
       id="path125"
       style="fill:#00ffff;fill-opacity:1;stroke:#ffffff;stroke-width:24.99999998;stroke-dasharray:none;stroke-opacity:1" />
    <path
       d="m 11336,3108 c -10,-35 -29,-78 -42,-96 -28,-36 -90,-72 -144,-83 -32,-6 -32,-7 -7,-8 40,-1 120,42 155,85 27,32 70,149 59,160 -2,2 -12,-24 -21,-58 z"
       id="path126"
       style="fill:#00ffff;fill-opacity:1;stroke:#ffffff;stroke-width:24.99999998;stroke-dasharray:none;stroke-opacity:1" />
    <path
       d="m 9481,3059 c -1,-42 25,-211 50,-331 l 11,-48 66,2 67,2 -62,3 c -48,3 -63,8 -67,21 -11,38 -48,249 -55,320 -7,60 -9,67 -10,31 z"
       id="path127"
       style="fill:#00ffff;fill-opacity:1;stroke:#ffffff;stroke-width:24.99999998;stroke-dasharray:none;stroke-opacity:1" />
    <path
       d="m 8100,2758 c -75,-39 -113,-146 -76,-216 23,-43 69,-81 106,-87 l 35,-6 -38,15 c -77,29 -112,82 -105,158 12,115 119,177 218,126 132,-68 113,-250 -29,-288 -53,-14 -51,-22 3,-10 68,15 126,89 126,160 0,35 -29,97 -57,122 -25,22 -86,48 -116,48 -12,0 -43,-10 -67,-22 z"
       id="path128"
       style="fill:#00ffff;fill-opacity:1;stroke:#ffffff;stroke-width:24.99999998;stroke-dasharray:none;stroke-opacity:1" />
    <path
       d="m 10500,2758 c -54,-28 -79,-61 -85,-113 -5,-39 -5,-39 8,8 17,59 38,82 93,103 106,41 204,-32 204,-153 0,-88 -57,-143 -150,-143 -85,0 -132,36 -151,115 -6,27 -7,28 -8,5 -1,-34 32,-86 71,-110 45,-27 131,-27 176,0 53,33 74,75 70,145 -4,74 -33,119 -92,146 -54,24 -83,24 -136,-3 z"
       id="path129"
       style="fill:#00ffff;fill-opacity:1;stroke:#ffffff;stroke-width:24.99999998;stroke-dasharray:none;stroke-opacity:1" />
    <path
       d="m 7771,2696 c -30,-32 -26,-82 10,-108 25,-19 28,-19 57,-4 30,15 52,43 52,65 0,20 -53,71 -74,71 -12,0 -33,-11 -45,-24 z m 81,-3 c 36,-43 32,-75 -14,-99 -27,-14 -32,-14 -54,1 -45,29 -22,115 31,115 12,0 29,-8 37,-17 z"
       id="path130"
       style="fill:#00ffff;fill-opacity:1;stroke:#ffffff;stroke-width:24.99999998;stroke-dasharray:none;stroke-opacity:1" />
    <path
       d="m 10881,2694 c -25,-32 -26,-46 -6,-83 24,-47 59,-53 99,-16 35,32 35,76 0,104 -36,28 -68,26 -93,-5 z m 89,-4 c 28,-28 25,-64 -6,-89 -15,-12 -33,-21 -40,-21 -17,0 -54,48 -54,71 0,25 35,59 60,59 11,0 29,-9 40,-20 z"
       id="path131"
       style="fill:#00ffff;fill-opacity:1;stroke:#ffffff;stroke-width:24.99999998;stroke-dasharray:none;stroke-opacity:1" />
    <path
       d="m 8135,2656 c -22,-16 -25,-67 -5,-91 20,-24 69,-15 92,16 19,25 19,28 4,58 -18,34 -57,42 -91,17 z m 81,-21 c 15,-23 15,-27 0,-50 -16,-24 -50,-33 -72,-17 -20,14 -25,45 -9,68 21,32 60,31 81,-1 z"
       id="path132"
       style="fill:#00ffff;fill-opacity:1;stroke:#ffffff;stroke-width:24.99999998;stroke-dasharray:none;stroke-opacity:1" />
    <path
       d="m 10527,2652 c -21,-23 -22,-51 -1,-80 32,-46 104,-16 104,44 0,47 -71,72 -103,36 z m 74,-2 c 39,-22 16,-90 -31,-90 -19,0 -33,7 -40,19 -30,58 13,101 71,71 z"
       id="path133"
       style="fill:#00ffff;fill-opacity:1;stroke:#ffffff;stroke-width:24.99999998;stroke-dasharray:none;stroke-opacity:1" />
  </g>
</svg>
