<?xml version="1.0" encoding="UTF-8" standalone="no"?>
<svg
   class="svg-icon"
   style="width: 1em; height: 1em;vertical-align: middle;fill: currentColor;overflow: hidden;"
   viewBox="0 0 1024 1024"
   version="1.1"
   id="svg2"
   sodipodi:docname="snip-to-clip.svg"
   xml:space="preserve"
   inkscape:version="1.3 (0e150ed, 2023-07-21)"
   inkscape:export-filename="snip-to-clip.png"
   inkscape:export-xdpi="96"
   inkscape:export-ydpi="96"
   xmlns:inkscape="http://www.inkscape.org/namespaces/inkscape"
   xmlns:sodipodi="http://sodipodi.sourceforge.net/DTD/sodipodi-0.dtd"
   xmlns:xlink="http://www.w3.org/1999/xlink"
   xmlns="http://www.w3.org/2000/svg"
   xmlns:svg="http://www.w3.org/2000/svg"><defs
     id="defs2"><marker
       style="overflow:visible"
       id="ArrowWideHeavy"
       refX="0"
       refY="0"
       orient="auto-start-reverse"
       inkscape:stockid="Wide, heavy arrow"
       markerWidth="2"
       markerHeight="2"
       viewBox="0 0 1 1"
       inkscape:isstock="true"
       inkscape:collect="always"
       preserveAspectRatio="xMidYMid"><path
         style="fill:context-stroke;fill-rule:evenodd;stroke:none"
         d="m 1,0 -3,3 h -2 l 3,-3 -3,-3 h 2 z"
         id="path3" /></marker><rect
       x="110.4647"
       y="380.48952"
       width="22.09294"
       height="99.41823"
       id="rect27" /><rect
       x="3330.5476"
       y="1589.8433"
       width="4270.5279"
       height="2541.4283"
       id="rect25" /><rect
       x="634.65467"
       y="-1822.6973"
       width="1010.0297"
       height="472.12116"
       id="rect18" /><rect
       x="1013.8995"
       y="-1772.3893"
       width="619.17529"
       height="514.68946"
       id="rect17" /><rect
       x="197.36212"
       y="-2058.7578"
       width="1478.281"
       height="1315.7475"
       id="rect16" /><rect
       x="1509.2398"
       y="-793.31834"
       width="2109.0658"
       height="1439.5825"
       id="rect15" /><rect
       x="-19.349228"
       y="-1714.3416"
       width="1338.9666"
       height="909.4137"
       id="rect14" /><rect
       x="417.94332"
       y="-1555.6779"
       width="1478.281"
       height="971.33123"
       id="rect13" /><rect
       x="123.28925"
       y="115.81718"
       width="549.19758"
       height="481.9489"
       id="rect11" /><rect
       x="151.0759"
       y="163.16197"
       width="489.48592"
       height="235.67841"
       id="rect5" /><linearGradient
       id="linearGradient2795"><stop
         style="stop-color:#b8b8b8;stop-opacity:0.49803922;"
         offset="0"
         id="stop2797" /><stop
         style="stop-color:#7f7f7f;stop-opacity:0;"
         offset="1"
         id="stop2799" /></linearGradient><linearGradient
       id="linearGradient2787"><stop
         style="stop-color:#7f7f7f;stop-opacity:0.5;"
         offset="0"
         id="stop2789" /><stop
         style="stop-color:#7f7f7f;stop-opacity:0;"
         offset="1"
         id="stop2791" /></linearGradient><linearGradient
       id="linearGradient3676"><stop
         style="stop-color:#b2b2b2;stop-opacity:0.5;"
         offset="0"
         id="stop3678" /><stop
         style="stop-color:#b3b3b3;stop-opacity:0;"
         offset="1"
         id="stop3680" /></linearGradient><linearGradient
       id="linearGradient3236"><stop
         style="stop-color:#f4f4f4;stop-opacity:1"
         offset="0"
         id="stop3244" /><stop
         style="stop-color:white;stop-opacity:1"
         offset="1"
         id="stop3240" /></linearGradient><linearGradient
       id="linearGradient4671"><stop
         style="stop-color:#ffd43b;stop-opacity:1;"
         offset="0"
         id="stop4673" /><stop
         style="stop-color:#ffe873;stop-opacity:1"
         offset="1"
         id="stop4675" /></linearGradient><linearGradient
       id="linearGradient4689"><stop
         style="stop-color:#5a9fd4;stop-opacity:1;"
         offset="0"
         id="stop4691" /><stop
         style="stop-color:#306998;stop-opacity:1;"
         offset="1"
         id="stop4693" /></linearGradient><linearGradient
       x1="224.23996"
       y1="144.75717"
       x2="-65.308502"
       y2="144.75717"
       id="linearGradient2987"
       xlink:href="#linearGradient4671"
       gradientUnits="userSpaceOnUse"
       gradientTransform="translate(100.2702,99.61116)" /><linearGradient
       x1="172.94208"
       y1="77.475983"
       x2="26.670298"
       y2="76.313133"
       id="linearGradient2990"
       xlink:href="#linearGradient4689"
       gradientUnits="userSpaceOnUse"
       gradientTransform="translate(100.2702,99.61116)" /><linearGradient
       inkscape:collect="always"
       xlink:href="#linearGradient4671"
       id="linearGradient2255"
       gradientUnits="userSpaceOnUse"
       gradientTransform="matrix(0.562541,0,0,0.567972,-11.5974,-7.60954)"
       x1="224.23996"
       y1="144.75717"
       x2="-65.308502"
       y2="144.75717" /><linearGradient
       inkscape:collect="always"
       xlink:href="#linearGradient4689"
       id="linearGradient2258"
       gradientUnits="userSpaceOnUse"
       gradientTransform="matrix(0.562541,0,0,0.567972,-11.5974,-7.60954)"
       x1="172.94208"
       y1="76.176224"
       x2="26.670298"
       y2="76.313133" /><radialGradient
       inkscape:collect="always"
       xlink:href="#linearGradient2795"
       id="radialGradient2801"
       cx="61.518883"
       cy="132.28575"
       fx="61.518883"
       fy="132.28575"
       r="29.036913"
       gradientTransform="matrix(1,0,0,0.177966,0,108.7434)"
       gradientUnits="userSpaceOnUse" /><linearGradient
       inkscape:collect="always"
       xlink:href="#linearGradient4671"
       id="linearGradient1475"
       gradientUnits="userSpaceOnUse"
       gradientTransform="matrix(0.562541,0,0,0.567972,-14.99112,-11.702371)"
       x1="150.96111"
       y1="192.35176"
       x2="112.03144"
       y2="137.27299" /><linearGradient
       inkscape:collect="always"
       xlink:href="#linearGradient4689"
       id="linearGradient1478"
       gradientUnits="userSpaceOnUse"
       gradientTransform="matrix(0.562541,0,0,0.567972,-14.99112,-11.702371)"
       x1="26.648937"
       y1="20.603781"
       x2="135.66525"
       y2="114.39767" /><radialGradient
       inkscape:collect="always"
       xlink:href="#linearGradient2795"
       id="radialGradient1480"
       gradientUnits="userSpaceOnUse"
       gradientTransform="matrix(1.7490565e-8,-0.23994696,1.054668,3.7915457e-7,-83.7008,142.46201)"
       cx="61.518883"
       cy="132.28575"
       fx="61.518883"
       fy="132.28575"
       r="29.036913" /></defs><sodipodi:namedview
     id="namedview2"
     pagecolor="#ffffff"
     bordercolor="#000000"
     borderopacity="0.25"
     inkscape:showpageshadow="2"
     inkscape:pageopacity="0.0"
     inkscape:pagecheckerboard="0"
     inkscape:deskcolor="#d1d1d1"
     inkscape:export-bgcolor="#ffffffff"
     inkscape:zoom="0.70905801"
     inkscape:cx="457.64944"
     inkscape:cy="445.6617"
     inkscape:window-width="1800"
     inkscape:window-height="1097"
     inkscape:window-x="0"
     inkscape:window-y="44"
     inkscape:window-maximized="1"
     inkscape:current-layer="svg2" /><path
     d="m 179.1108,336.6178 h -30.63465 c -3.06347,0 -5.10578,-2.33584 -5.10578,-5.83959 0,-3.50376 2.04231,-5.83959 5.10578,-5.83959 h 30.63465 c 3.06348,0 5.10577,2.33583 5.10577,5.83959 0,3.50375 -2.04229,5.83959 -5.10577,5.83959 z m 81.69243,0 h -30.63467 c -3.06345,0 -5.10577,-2.33584 -5.10577,-5.83959 0,-3.50376 2.04232,-5.83959 5.10577,-5.83959 h 30.63467 c 3.06347,0 5.10578,2.33583 5.10578,5.83959 0,3.50375 -2.04231,5.83959 -5.10578,5.83959 z M 179.1108,570.20187 h -30.63465 c -3.06347,0 -5.10578,-2.33584 -5.10578,-5.8396 0,-3.50375 2.04231,-5.83958 5.10578,-5.83958 h 30.63465 c 3.06348,0 5.10577,2.33583 5.10577,5.83958 0,3.50376 -2.04229,5.8396 -5.10577,5.8396 z m 71.48089,0 h -20.42313 c -3.06345,0 -5.10577,-2.33584 -5.10577,-5.8396 0,-3.50375 2.04232,-5.83958 5.10577,-5.83958 h 20.42313 c 3.06345,0 5.10576,2.33583 5.10576,5.83958 0,3.50376 -2.04231,5.8396 -5.10576,5.8396 z M 97.418381,523.48507 c -3.06346,0 -5.10578,-2.33584 -5.10578,-5.83959 v -35.03762 c 0,-3.50376 2.04232,-5.83959 5.10578,-5.83959 3.063469,0 5.105779,2.33583 5.105779,5.83959 v 35.03762 c 0,3.50375 -2.04231,5.83959 -5.105779,5.83959 z m 0,-93.43368 c -3.06346,0 -5.10578,-2.33583 -5.10578,-5.83959 v -35.03761 c 0,-3.50376 2.04232,-5.8396 5.10578,-5.8396 3.063469,0 5.105779,2.33584 5.105779,5.8396 v 35.03761 c 0,3.50376 -2.04231,5.83959 -5.105779,5.83959 z M 311.861,511.80589 c -3.06347,0 -5.10578,-2.33584 -5.10578,-5.83958 v -23.35845 c 0,-3.50376 2.04231,-5.83959 5.10578,-5.83959 3.06347,0 5.10578,2.33583 5.10578,5.83959 v 23.35845 c 0,3.50374 -2.04231,5.83958 -5.10578,5.83958 z m 0,-81.7545 c -3.06347,0 -5.10578,-2.33583 -5.10578,-5.83959 v -35.03761 c 0,-3.50376 2.04231,-5.8396 5.10578,-5.8396 3.06347,0 5.10578,2.33584 5.10578,5.8396 v 35.03761 c 0,3.50376 -2.04231,5.83959 -5.10578,5.83959 z m 10.21156,-81.75441 h -20.42312 c -3.06346,0 -5.10577,-2.33584 -5.10577,-5.83959 v -23.35837 c 0,-3.50383 2.04231,-5.83966 5.10577,-5.83966 h 20.42312 c 3.06346,0 5.10577,2.33583 5.10577,5.83966 v 23.35837 c 0,3.50375 -2.04231,5.83959 -5.10577,5.83959 z M 306.75522,336.6178 h 10.21156 V 324.93862 H 306.75522 Z M 107.62994,348.29698 H 87.206831 c -3.06347,0 -5.10578,-2.33584 -5.10578,-5.83959 v -23.35837 c 0,-3.50383 2.04231,-5.83966 5.10578,-5.83966 h 20.423109 c 3.06346,0 5.10578,2.33583 5.10578,5.83966 v 23.35837 c 0,3.50375 -2.04232,5.83959 -5.10578,5.83959 z M 92.312601,336.6178 H 102.52416 V 324.93862 H 92.312601 Z M 107.62994,581.88112 H 87.206831 c -3.06347,0 -5.10578,-2.33584 -5.10578,-5.83966 V 552.6831 c 0,-3.50376 2.04231,-5.8396 5.10578,-5.8396 h 20.423109 c 3.06346,0 5.10578,2.33584 5.10578,5.8396 v 23.35836 c 0,3.50382 -2.04232,5.83966 -5.10578,5.83966 z M 92.312601,570.20187 H 102.52416 V 558.52269 H 92.312601 Z"
     fill=""
     id="path1"
     style="opacity:1;stroke-width:0.319943" /><path
     d="m 322.07256,663.63554 c -2.04233,0 -4.08464,-1.16791 -5.10578,-3.50376 L 265.90901,519.98132 c -1.02117,-2.33584 0,-4.67168 1.02116,-7.00751 2.04231,-1.16792 4.08462,-2.33584 6.12692,-1.16792 l 112.32709,70.07523 c 2.04231,1.16792 3.06347,3.50375 3.06347,4.67168 0,2.33584 -1.02116,4.67167 -3.06347,4.67167 l -39.82506,22.19044 -19.40195,45.54896 c 0,3.50376 -2.04231,4.67167 -4.08461,4.67167 z m -40.84622,-133.14296 40.84622,113.28828 15.31732,-35.03762 c 0,-1.16792 1.02115,-2.33583 2.04231,-2.33583 l 31.65581,-18.6867 z"
     fill=""
     id="path2"
     style="opacity:1;stroke-width:0.319943" /><g
     style="fill:#000000"
     id="g4"
     transform="matrix(9.9625826,0,0,10.073414,598.80624,323.20113)"><path
       d="M 29.182586,0.90854889 H 26.748739 V 3.1907176 h 2.12563 V 31.717827 H 5.4924326 V 3.1907176 H 7.6180632 V 0.90854889 H 5.4924326 A 1.8599268,1.9968977 0 0 0 3.366802,2.8369815 V 32.071563 a 1.806786,1.9398434 0 0 0 1.8174142,1.928433 H 29.182586 A 1.806786,1.9398434 0 0 0 31,32.071563 V 2.8369815 A 1.806786,1.9398434 0 0 0 29.182586,0.90854889 Z"
       class="clr-i-outline clr-i-outline-path-1"
       id="path1-0"
       style="stroke-width:1.10125" /><path
       d="M 25.685923,3.5672755 A 2.4869878,2.6701374 0 0 0 23.209564,0.90854889 h -1.913068 a 4.2512612,4.5643375 0 0 0 -8.236818,0 h -1.90244 A 2.4869878,2.6701374 0 0 0 8.6808785,3.5672755 V 7.7550552 H 25.685923 Z m -2.12563,1.9056109 H 10.806509 V 3.5672755 A 0.35072905,0.37655784 0 0 1 11.157238,3.1907176 H 15.05777 V 2.0496333 a 2.125631,2.2821692 0 0 1 4.251262,0 v 1.1410843 h 3.900532 a 0.35072905,0.37655784 0 0 1 0.350729,0.3765579 z"
       class="clr-i-outline clr-i-outline-path-2"
       id="path2-4"
       style="stroke-width:1.10125" /><rect
       x="0"
       y="0"
       width="36"
       height="36"
       fill-opacity="0"
       id="rect6" /></g><g
     id="g5"
     transform="matrix(1.7404117,0,0,1.9389931,396.10036,224.05334)"><path
       style="fill:url(#linearGradient1478);fill-opacity:1"
       d="M 54.918785,9.1927421e-4 C 50.335132,0.02221727 45.957846,0.41313697 42.106285,1.0946693 30.760069,3.0991731 28.700036,7.2947714 28.700035,15.032169 v 10.21875 h 26.8125 v 3.40625 h -26.8125 -10.0625 c -7.792459,0 -14.6157588,4.683717 -16.7499998,13.59375 -2.46181998,10.212966 -2.57101508,16.586023 0,27.25 1.9059283,7.937852 6.4575432,13.593748 14.2499998,13.59375 h 9.21875 v -12.25 c 0,-8.849902 7.657144,-16.656248 16.75,-16.65625 h 26.78125 c 7.454951,0 13.406253,-6.138164 13.40625,-13.625 v -25.53125 c 0,-7.2663386 -6.12998,-12.7247771 -13.40625,-13.9374997 C 64.281548,0.32794397 59.502438,-0.02037903 54.918785,9.1927421e-4 Z m -14.5,8.21875012579 c 2.769547,0 5.03125,2.2986456 5.03125,5.1249996 -2e-6,2.816336 -2.261703,5.09375 -5.03125,5.09375 -2.779476,-1e-6 -5.03125,-2.277415 -5.03125,-5.09375 -10e-7,-2.826353 2.251774,-5.1249996 5.03125,-5.1249996 z"
       id="path1948" /><path
       style="fill:url(#linearGradient1475);fill-opacity:1"
       d="m 85.637535,28.657169 v 11.90625 c 0,9.230755 -7.825895,16.999999 -16.75,17 h -26.78125 c -7.335833,0 -13.406249,6.278483 -13.40625,13.625 v 25.531247 c 0,7.266344 6.318588,11.540324 13.40625,13.625004 8.487331,2.49561 16.626237,2.94663 26.78125,0 6.750155,-1.95439 13.406253,-5.88761 13.40625,-13.625004 V 86.500919 h -26.78125 v -3.40625 h 26.78125 13.406254 c 7.792461,0 10.696251,-5.435408 13.406241,-13.59375 2.79933,-8.398886 2.68022,-16.475776 0,-27.25 -1.92578,-7.757441 -5.60387,-13.59375 -13.406241,-13.59375 z m -15.0625,64.65625 c 2.779478,3e-6 5.03125,2.277417 5.03125,5.093747 -2e-6,2.826354 -2.251775,5.125004 -5.03125,5.125004 -2.76955,0 -5.03125,-2.29865 -5.03125,-5.125004 2e-6,-2.81633 2.261697,-5.093747 5.03125,-5.093747 z"
       id="path1950" /><ellipse
       style="opacity:0.44382;fill:url(#radialGradient1480);fill-opacity:1;fill-rule:nonzero;stroke:none;stroke-width:15.4174;stroke-miterlimit:4;stroke-dasharray:none;stroke-opacity:1"
       id="path1894"
       cx="55.816761"
       cy="127.70079"
       rx="35.930977"
       ry="6.9673119" /></g><text
     xml:space="preserve"
     id="text5"
     style="white-space:pre;shape-inside:url(#rect5);display:inline;opacity:1;fill:#000000;fill-opacity:1;stroke:#000000;stroke-width:46.035;stroke-dasharray:none"
     transform="matrix(0.9568354,0,0,0.92422951,19.73721,33.92162)" /><text
     xml:space="preserve"
     style="font-size:11.2847px;opacity:1;fill:#000000;fill-opacity:1;stroke:#000000;stroke-width:43.2909;stroke-dasharray:none"
     x="246.71071"
     y="295.92438"
     id="text6"
     transform="scale(1.0174866,0.98281393)"><tspan
       sodipodi:role="line"
       id="tspan6"
       x="246.71071"
       y="295.92438"
       style="stroke-width:43.2909" /></text><text
     xml:space="preserve"
     style="font-style:normal;font-variant:normal;font-weight:normal;font-stretch:normal;font-size:125.385px;line-height:0;font-family:'Apple SD Gothic Neo';-inkscape-font-specification:'Apple SD Gothic Neo';letter-spacing:2.00304px;opacity:1;fill:#000000;fill-opacity:1;stroke:#000000;stroke-width:43.2909;stroke-dasharray:none"
     x="563.10669"
     y="320.58371"
     id="text8"
     transform="scale(1.0174866,0.98281393)"><tspan
       sodipodi:role="line"
       id="tspan8"
       x="563.10669"
       y="320.58371"
       style="stroke-width:43.2909" /></text><text
     xml:space="preserve"
     style="font-style:normal;font-variant:normal;font-weight:normal;font-stretch:normal;font-size:125.385px;line-height:0;font-family:'Apple SD Gothic Neo';-inkscape-font-specification:'Apple SD Gothic Neo';letter-spacing:2.00304px;opacity:1;fill:#000000;fill-opacity:1;stroke:#000000;stroke-width:43.2909;stroke-dasharray:none"
     x="590.31531"
     y="261.12503"
     id="text9"
     transform="scale(1.0174866,0.98281393)"><tspan
       sodipodi:role="line"
       id="tspan9"
       x="590.31531"
       y="261.12503"
       style="stroke-width:43.2909" /></text><text
     xml:space="preserve"
     style="font-style:normal;font-variant:normal;font-weight:normal;font-stretch:normal;font-size:90.2772px;line-height:0;font-family:'Apple SD Gothic Neo';-inkscape-font-specification:'Apple SD Gothic Neo';letter-spacing:2.00304px;opacity:1;fill:#000000;fill-opacity:1;stroke:#000000;stroke-width:43.2909;stroke-dasharray:none"
     x="159.93149"
     y="241.80168"
     id="text10"
     transform="scale(1.0174866,0.98281393)"><tspan
       sodipodi:role="line"
       id="tspan10"
       x="159.93149"
       y="241.80168"
       style="stroke-width:43.2909" /></text><text
     xml:space="preserve"
     id="text11"
     style="font-style:normal;font-variant:normal;font-weight:normal;font-stretch:normal;font-size:96px;line-height:0;font-family:'Apple SD Gothic Neo';-inkscape-font-specification:'Apple SD Gothic Neo';letter-spacing:2.13px;word-spacing:6.79px;white-space:pre;shape-inside:url(#rect11);display:inline;opacity:1;fill:#000000;fill-opacity:1;stroke:#000000;stroke-width:46.035;stroke-dasharray:none"
     transform="matrix(0.9568354,0,0,0.92422951,19.73721,33.92162)" /><text
     xml:space="preserve"
     style="font-style:normal;font-variant:normal;font-weight:normal;font-stretch:normal;font-size:150.462px;line-height:500;font-family:'Apple SD Gothic Neo';-inkscape-font-specification:'Apple SD Gothic Neo';letter-spacing:2.00304px;word-spacing:6.38526px;writing-mode:lr-tb;opacity:1;fill:#000000;fill-opacity:1;stroke:#000000;stroke-width:43.2909;stroke-dasharray:none"
     x="1055.5819"
     y="-756.09955"
     id="text12"
     transform="scale(1.0174866,0.98281393)"><tspan
       sodipodi:role="line"
       id="tspan12"
       x="1055.5819"
       y="-756.09955"
       style="stroke-width:43.2909" /></text><text
     xml:space="preserve"
     id="text13"
     style="font-style:normal;font-variant:normal;font-weight:normal;font-stretch:normal;font-size:160px;line-height:500;font-family:'Apple SD Gothic Neo';-inkscape-font-specification:'Apple SD Gothic Neo';letter-spacing:2.13px;word-spacing:6.79px;writing-mode:lr-tb;white-space:pre;shape-inside:url(#rect13);display:inline;opacity:1;fill:#000000;fill-opacity:1;stroke:#000000;stroke-width:46.035;stroke-dasharray:none"
     transform="matrix(0.9568354,0,0,0.92422951,19.73721,33.92162)" /><text
     xml:space="preserve"
     id="text14"
     style="font-style:normal;font-variant:normal;font-weight:normal;font-stretch:normal;font-size:160px;line-height:500;font-family:'Apple SD Gothic Neo';-inkscape-font-specification:'Apple SD Gothic Neo';letter-spacing:2.13px;word-spacing:6.79px;writing-mode:lr-tb;white-space:pre;shape-inside:url(#rect14);display:inline;opacity:1;fill:#000000;fill-opacity:1;stroke:#000000;stroke-width:46.035;stroke-dasharray:none"
     transform="matrix(0.9568354,0,0,0.92422951,19.73721,33.92162)"><tspan
       x="-19.349609"
       y="39235.072"
       id="tspan13"><tspan
         dx="0 55.999756 87.039787 79.999702 66.399834"
         id="tspan11">tTest</tspan></tspan></text><text
     xml:space="preserve"
     id="text15"
     style="font-style:normal;font-variant:normal;font-weight:normal;font-stretch:normal;font-size:160px;line-height:500;font-family:'Apple SD Gothic Neo';-inkscape-font-specification:'Apple SD Gothic Neo';letter-spacing:2.13px;word-spacing:6.79px;writing-mode:lr-tb;white-space:pre;shape-inside:url(#rect15);display:inline;opacity:1;fill:#000000;fill-opacity:1;stroke:#000000;stroke-width:46.035;stroke-dasharray:none"
     transform="matrix(0.9568354,0,0,0.92422951,19.73721,33.92162)" /><text
     xml:space="preserve"
     id="text16"
     style="font-style:normal;font-variant:normal;font-weight:normal;font-stretch:normal;font-size:160px;line-height:500;font-family:'Apple SD Gothic Neo';-inkscape-font-specification:'Apple SD Gothic Neo';letter-spacing:2.13px;word-spacing:6.79px;writing-mode:lr-tb;white-space:pre;shape-inside:url(#rect16);display:inline;opacity:1;fill:#000000;fill-opacity:1;stroke:#000000;stroke-width:46.035;stroke-dasharray:none"
     transform="matrix(0.9568354,0,0,0.92422951,19.73721,33.92162)"><tspan
       x="197.36133"
       y="39296.99"
       id="tspan15"><tspan
         dx="0 76.479797 36.319889 76.479797 36.319889 76.47979 36.319889 76.479805 76.479805 76.479774 76.479805 76.479805 51.679996 87.199715 66.399849 75.519661 75.519783 66.399788 87.199715 51.680058"
         id="tspan14">kjkjkjkkkkkfdsaasdfs</tspan></tspan></text><text
     xml:space="preserve"
     id="text17"
     style="font-style:normal;font-variant:normal;font-weight:normal;font-stretch:normal;font-size:160px;line-height:500;font-family:'Apple SD Gothic Neo';-inkscape-font-specification:'Apple SD Gothic Neo';letter-spacing:2.13px;word-spacing:6.79px;writing-mode:lr-tb;white-space:pre;shape-inside:url(#rect17);display:inline;opacity:1;fill:#000000;fill-opacity:1;stroke:#000000;stroke-width:46.035;stroke-dasharray:none"
     transform="matrix(0.9568354,0,0,0.92422951,19.73721,33.92162)" /><text
     xml:space="preserve"
     id="text18"
     style="font-style:normal;font-variant:normal;font-weight:normal;font-stretch:normal;font-size:160px;line-height:10000px;font-family:'Apple SD Gothic Neo';-inkscape-font-specification:'Apple SD Gothic Neo';letter-spacing:2.13px;word-spacing:6.79px;writing-mode:lr-tb;white-space:pre;shape-inside:url(#rect18);display:inline;opacity:1;fill:#000000;fill-opacity:1;stroke:#000000;stroke-width:46.035;stroke-dasharray:none"
     transform="matrix(0.9568354,0,0,0.92422951,19.73721,33.92162)"><tspan
       x="634.6543"
       y="3689.4238"
       id="tspan17"><tspan
         dx="0 51.679993 87.199699 66.399849"
         id="tspan16">fdsa</tspan></tspan></text><text
     xml:space="preserve"
     style="font-style:normal;font-variant:normal;font-weight:normal;font-stretch:normal;font-size:150.462px;line-height:9403.88px;font-family:'Apple SD Gothic Neo';-inkscape-font-specification:'Apple SD Gothic Neo';letter-spacing:0px;word-spacing:0px;writing-mode:lr-tb;opacity:1;fill:#000000;fill-opacity:1;stroke:#000000;stroke-width:43.2909;stroke-dasharray:none"
     x="910.99432"
     y="-1683.1729"
     id="text19"
     transform="scale(1.0174866,0.98281393)"><tspan
       sodipodi:role="line"
       id="tspan19"
       x="910.99432"
       y="-1683.1729"
       style="stroke-width:43.2909" /></text><text
     xml:space="preserve"
     style="font-style:normal;font-variant:normal;font-weight:normal;font-stretch:normal;font-size:150.462px;line-height:9403.88px;font-family:'Apple SD Gothic Neo';-inkscape-font-specification:'Apple SD Gothic Neo';letter-spacing:94.0388px;word-spacing:0px;writing-mode:lr-tb;opacity:1;fill:#000000;fill-opacity:1;stroke:#000000;stroke-width:43.2909;stroke-dasharray:none"
     x="863.68518"
     y="-1788.7086"
     id="text20"
     transform="scale(1.0174866,0.98281393)"><tspan
       sodipodi:role="line"
       id="tspan20"
       x="863.68518"
       y="-1788.7086"
       style="stroke-width:43.2909" /></text><text
     xml:space="preserve"
     style="font-style:normal;font-variant:normal;font-weight:normal;font-stretch:normal;font-size:90.2772px;line-height:0px;font-family:'Apple SD Gothic Neo';-inkscape-font-specification:'Apple SD Gothic Neo';letter-spacing:47.0196px;word-spacing:0px;writing-mode:lr-tb;opacity:1;fill:#000000;fill-opacity:1;stroke:#000000;stroke-width:43.2909;stroke-dasharray:none"
     x="918.27271"
     y="-1795.9872"
     id="text21"
     transform="scale(1.0174866,0.98281393)"><tspan
       sodipodi:role="line"
       id="tspan21"
       x="918.27271"
       y="-1795.9872"
       style="font-style:normal;font-variant:normal;font-weight:100;font-stretch:normal;font-size:90.2772px;line-height:0px;font-family:'Apple SD Gothic Neo';-inkscape-font-specification:'Apple SD Gothic Neo Thin';stroke-width:43.2909" /></text><text
     xml:space="preserve"
     style="font-style:normal;font-variant:normal;font-weight:normal;font-stretch:normal;font-size:90.2772px;line-height:0px;font-family:Verdana;-inkscape-font-specification:Verdana;letter-spacing:47.0196px;word-spacing:0px;writing-mode:lr-tb;opacity:1;fill:#000000;fill-opacity:1;stroke:#000000;stroke-width:43.2909;stroke-dasharray:none"
     x="954.66443"
     y="-1392.0394"
     id="text22"
     transform="scale(1.0174866,0.98281393)"><tspan
       sodipodi:role="line"
       id="tspan22"
       x="954.66443"
       y="-1392.0394"
       style="stroke-width:43.2909" /></text><text
     xml:space="preserve"
     style="font-style:normal;font-variant:normal;font-weight:normal;font-stretch:normal;font-size:90.2772px;line-height:0px;font-family:'Times New Roman';-inkscape-font-specification:'Times New Roman, Normal';font-variant-ligatures:normal;font-variant-caps:normal;font-variant-numeric:normal;font-variant-east-asian:normal;letter-spacing:47.0196px;word-spacing:0px;writing-mode:lr-tb;opacity:1;fill:#000000;fill-opacity:1;stroke:#000000;stroke-width:43.2909;stroke-dasharray:none"
     x="1042.0044"
     y="-1563.0802"
     id="text23"
     transform="scale(1.0174866,0.98281393)"><tspan
       sodipodi:role="line"
       id="tspan23"
       x="1042.0044"
       y="-1563.0802"
       style="stroke-width:43.2909" /></text><text
     xml:space="preserve"
     style="font-style:normal;font-variant:normal;font-weight:normal;font-stretch:normal;font-size:90.2772px;line-height:0px;font-family:'Times New Roman';-inkscape-font-specification:'Times New Roman, Normal';font-variant-ligatures:normal;font-variant-caps:normal;font-variant-numeric:normal;font-variant-east-asian:normal;letter-spacing:47.0196px;word-spacing:0px;writing-mode:lr-tb;opacity:1;fill:#000000;fill-opacity:1;stroke:#000000;stroke-width:43.2909;stroke-dasharray:none"
     x="1092.9526"
     y="-1595.8328"
     id="text24"
     transform="scale(1.0174866,0.98281393)"><tspan
       sodipodi:role="line"
       id="tspan24"
       x="1092.9526"
       y="-1595.8328"
       style="stroke-width:43.2909" /></text><text
     xml:space="preserve"
     id="text25"
     style="font-style:normal;font-variant:normal;font-weight:normal;font-stretch:normal;font-size:96px;line-height:0px;font-family:'Times New Roman';-inkscape-font-specification:'Times New Roman, Normal';font-variant-ligatures:normal;font-variant-caps:normal;font-variant-numeric:normal;font-variant-east-asian:normal;letter-spacing:50px;word-spacing:0px;writing-mode:lr-tb;white-space:pre;shape-inside:url(#rect25);display:inline;opacity:1;fill:#000000;fill-opacity:1;stroke:#000000;stroke-width:22.235;stroke-dasharray:none"
     inkscape:label="text25"
     transform="matrix(0.9568354,0,0,0.92422951,19.73721,33.92162)" /><text
     xml:space="preserve"
     style="font-style:normal;font-variant:normal;font-weight:normal;font-stretch:normal;font-size:70.2159px;line-height:0px;font-family:'Times New Roman';-inkscape-font-specification:'Times New Roman, Normal';font-variant-ligatures:normal;font-variant-caps:normal;font-variant-numeric:normal;font-variant-east-asian:normal;letter-spacing:47.0196px;word-spacing:0px;writing-mode:lr-tb;opacity:1;fill:#000000;fill-opacity:1;stroke:#000000;stroke-width:4.70196;stroke-dasharray:none"
     x="128.91354"
     y="398.93716"
     id="text26"
     transform="scale(1.0174866,0.98281393)"><tspan
       sodipodi:role="line"
       id="tspan26"
       style="font-style:normal;font-variant:normal;font-weight:normal;font-stretch:normal;font-size:70.2159px;font-family:Verdana;-inkscape-font-specification:Verdana;fill:#000000;fill-opacity:1;stroke:#000000;stroke-width:4.70196;stroke-dasharray:none;stroke-opacity:0.473098"
       x="128.91354"
       y="398.93716" /></text><text
     xml:space="preserve"
     id="text27"
     style="font-style:normal;font-variant:normal;font-weight:normal;font-stretch:normal;font-size:74.6667px;line-height:0px;font-family:Verdana;-inkscape-font-specification:Verdana;font-variant-ligatures:normal;font-variant-caps:normal;font-variant-numeric:normal;font-variant-east-asian:normal;letter-spacing:50px;word-spacing:0px;writing-mode:lr-tb;white-space:pre;shape-inside:url(#rect27);display:inline;opacity:1;fill:#000000;fill-opacity:1;stroke:#000000;stroke-width:5;stroke-dasharray:none;stroke-opacity:0.473098"
     transform="matrix(0.9568354,0,0,0.92422951,19.73721,33.92162)" /><text
     xml:space="preserve"
     style="font-style:normal;font-variant:normal;font-weight:normal;font-stretch:normal;font-size:40.1234px;line-height:0px;font-family:Verdana;-inkscape-font-specification:Verdana;font-variant-ligatures:normal;font-variant-caps:normal;font-variant-numeric:normal;font-variant-east-asian:normal;letter-spacing:14.1059px;word-spacing:0px;writing-mode:lr-tb;opacity:1;fill:#000000;fill-opacity:1;stroke:#000000;stroke-width:4.70196;stroke-dasharray:none;stroke-opacity:0.473098"
     x="130.25336"
     y="453.27402"
     id="text28"
     transform="scale(1.0174866,0.98281393)"><tspan
       sodipodi:role="line"
       id="tspan28"
       x="130.25336"
       y="453.27402"
       style="font-style:normal;font-variant:normal;font-weight:bold;font-stretch:normal;font-family:Verdana;-inkscape-font-specification:'Verdana Bold';letter-spacing:14.1059px;stroke:#000000;stroke-width:4.70196;stroke-opacity:0">Text</tspan></text><text
     xml:space="preserve"
     style="font-style:normal;font-variant:normal;font-weight:normal;font-stretch:normal;font-size:40.1234px;line-height:0px;font-family:Verdana;-inkscape-font-specification:Verdana;font-variant-ligatures:normal;font-variant-caps:normal;font-variant-numeric:normal;font-variant-east-asian:normal;letter-spacing:23.5097px;word-spacing:0px;writing-mode:lr-tb;opacity:1;fill:#000000;fill-opacity:1;stroke:#000000;stroke-width:4.70196;stroke-dasharray:none;stroke-opacity:0.473098"
     x="722.31958"
     y="533.13898"
     id="text29"
     transform="scale(1.0174866,0.98281393)"><tspan
       sodipodi:role="line"
       id="tspan29"
       x="722.31958"
       y="533.13898"
       style="stroke-width:4.70196" /></text><text
     xml:space="preserve"
     style="font-style:normal;font-variant:normal;font-weight:normal;font-stretch:normal;font-size:40.1234px;line-height:0px;font-family:Verdana;-inkscape-font-specification:Verdana;font-variant-ligatures:normal;font-variant-caps:normal;font-variant-numeric:normal;font-variant-east-asian:normal;letter-spacing:14.1059px;word-spacing:0px;writing-mode:lr-tb;opacity:1;fill:#000000;fill-opacity:1;stroke:#000000;stroke-width:4.70196;stroke-dasharray:none;stroke-opacity:0.473098"
     x="682.73047"
     y="517.53125"
     id="text30"
     transform="scale(1.0174866,0.98281393)"><tspan
       sodipodi:role="line"
       id="tspan30"
       x="682.73047"
       y="517.53125"
       style="font-style:normal;font-variant:normal;font-weight:bold;font-stretch:normal;font-family:Verdana;-inkscape-font-specification:'Verdana Bold';letter-spacing:14.1059px;stroke:#000000;stroke-width:4.70196;stroke-opacity:0">Text</tspan></text><path
     style="opacity:1;fill:none;fill-opacity:1;stroke:#000000;stroke-width:4.93517;stroke-dasharray:none;stroke-opacity:1;marker-end:url(#ArrowWideHeavy)"
     d="m 344.17377,508.3509 c 93.90105,-53.17375 266.05297,-14.66863 266.05297,-14.66863"
     id="path30" /><text
     xml:space="preserve"
     style="font-style:normal;font-variant:normal;font-weight:normal;font-stretch:normal;font-size:30.0925px;line-height:0px;font-family:Verdana;-inkscape-font-specification:Verdana;font-variant-ligatures:normal;font-variant-caps:normal;font-variant-numeric:normal;font-variant-east-asian:normal;letter-spacing:4.70196px;word-spacing:0px;writing-mode:lr-tb;opacity:1;fill:none;fill-opacity:1;stroke:#000000;stroke-width:1.54977;stroke-dasharray:none;stroke-opacity:1"
     x="136.84218"
     y="763.66388"
     id="text31"
     transform="scale(1.0174866,0.98281393)"><tspan
       sodipodi:role="line"
       id="tspan31"
       x="136.84218"
       y="763.66388"
       style="font-size:30.0925px;letter-spacing:4.70196px;fill:#5e5e5e;fill-opacity:0.233766;stroke:#868686;stroke-width:1.54977;stroke-dasharray:none;stroke-opacity:0.495362">My passion is graphic design hahaha</tspan></text></svg>
