<?xml version="1.0" encoding="UTF-8" standalone="no"?>
<svg
   version="1.0"
   width="1792pt"
   height="1024pt"
   viewBox="0 0 1792 1024"
   preserveAspectRatio="xMidYMid"
   id="svg4"
   sodipodi:docname="workout_logo_5.svg"
   inkscape:version="1.3 (0e150ed, 2023-07-21)"
   xmlns:inkscape="http://www.inkscape.org/namespaces/inkscape"
   xmlns:sodipodi="http://sodipodi.sourceforge.net/DTD/sodipodi-0.dtd"
   xmlns="http://www.w3.org/2000/svg"
   xmlns:svg="http://www.w3.org/2000/svg">
  <defs
     id="defs4" />
  <sodipodi:namedview
     id="namedview4"
     pagecolor="#ffffff"
     bordercolor="#000000"
     borderopacity="0.25"
     inkscape:showpageshadow="2"
     inkscape:pageopacity="0.0"
     inkscape:pagecheckerboard="0"
     inkscape:deskcolor="#d1d1d1"
     inkscape:document-units="pt"
     inkscape:zoom="0.098772321"
     inkscape:cx="1189.6045"
     inkscape:cy="678.32768"
     inkscape:window-width="1800"
     inkscape:window-height="1097"
     inkscape:window-x="0"
     inkscape:window-y="44"
     inkscape:window-maximized="1"
     inkscape:current-layer="g4"
     inkscape:export-bgcolor="#ffffffff" />
  <g
     transform="matrix(0.1,0,0,-0.1,0,1024)"
     fill="#000000"
     stroke="none"
     id="g4"
     inkscape:label="g4">
    <path
       d="M 0,5120 V 0 h 8960 8960 v 5120 5120 H 8960 0 Z m 10795,3409 320,-20 238,-112 c 189,-89 242,-118 260,-144 12,-17 96,-129 188,-250 91,-120 185,-246 209,-281 l 43,-62 -32,-223 c -18,-122 -44,-300 -57,-396 -13,-96 -25,-176 -28,-178 -2,-2 -21,6 -43,19 -21,14 -43,28 -50,32 -14,8 -270,-275 -285,-315 -6,-18 -25,-33 -66,-50 -31,-13 -59,-25 -63,-27 -4,-2 -11,93 -15,209 l -9,212 -80,64 c -126,101 -175,144 -175,151 0,4 18,27 40,51 22,24 40,45 40,47 0,2 -53,4 -119,4 -65,0 -139,3 -164,6 l -45,6 -95,217 c -108,246 -93,229 -263,287 l -80,28 -116,-56 c -135,-65 -113,-68 -266,39 -53,38 -109,76 -125,86 l -28,17 -74,-56 c -41,-31 -75,-62 -75,-68 0,-7 46,-62 103,-122 56,-61 133,-143 170,-184 l 68,-73 112,6 c 62,4 151,10 199,13 l 88,7 42,-89 c 22,-49 51,-95 62,-103 12,-8 57,-50 101,-93 l 80,-78 h -282 c -156,0 -283,-3 -283,-7 0,-22 125,-313 134,-313 6,0 80,-29 165,-65 l 155,-64 100,34 c 56,19 184,63 286,98 102,35 200,68 218,72 l 32,7 v -481 -480 l -32,-24 c -51,-38 -269,-159 -275,-153 -5,5 -15,132 -29,361 -5,88 -9,120 -14,98 -19,-87 -112,-187 -209,-224 -77,-30 -242,-38 -331,-15 -91,24 -180,70 -258,136 l -67,56 -64,-53 c -252,-207 -609,-183 -711,49 -25,58 -28,143 -6,186 20,39 68,65 118,65 40,0 71,-20 90,-58 10,-18 8,-18 -14,3 -35,32 -71,28 -103,-10 -22,-26 -26,-39 -22,-71 7,-48 48,-94 93,-103 41,-8 93,9 167,55 58,36 59,36 53,76 -3,22 -22,94 -43,160 -27,86 -38,137 -37,180 0,70 12,135 23,135 4,0 48,-25 96,-56 l 89,-55 85,27 c 48,16 89,31 94,34 4,4 26,78 48,166 56,217 57,222 51,228 -3,4 -115,6 -250,6 h -244 l 6,23 c 3,12 15,69 26,127 11,58 27,127 35,154 9,27 13,51 11,54 -3,2 -21,-28 -40,-67 -20,-39 -40,-71 -45,-71 -4,0 -11,25 -15,55 -3,30 -22,141 -42,246 -19,106 -33,198 -30,204 4,11 172,159 239,212 25,19 31,36 52,148 13,69 27,131 31,137 10,16 470,233 574,271 23,8 26,8 365,-14 z M 6679,7469 c 81,-13 222,-65 297,-110 74,-44 190,-153 254,-237 142,-187 210,-444 181,-681 -21,-173 -63,-287 -156,-426 -103,-152 -265,-286 -421,-346 -158,-61 -383,-77 -541,-39 -265,63 -496,275 -602,550 -44,112 -61,213 -61,351 0,287 90,504 288,691 143,134 292,210 497,252 41,8 202,5 264,-5 z m 1415,-269 c 237,-64 457,-248 566,-474 115,-239 118,-531 8,-774 -89,-197 -287,-390 -480,-469 -198,-80 -460,-86 -648,-14 -93,36 -93,27 0,149 l 83,109 71,6 c 163,14 299,72 406,174 85,79 124,140 161,246 69,197 19,419 -125,562 -108,107 -231,155 -402,155 h -92 l -22,55 c -12,30 -44,93 -71,140 -27,47 -49,88 -49,91 0,13 103,44 230,68 62,12 287,-3 364,-24 z m -310,-660 c 93,-24 136,-53 165,-113 26,-54 26,-109 1,-164 -18,-41 -21,-43 -63,-43 -42,0 -214,33 -224,44 -3,2 0,28 6,56 6,28 11,94 11,145 0,70 3,95 13,95 6,0 48,-9 91,-20 z m 2522,-826 c 87,-59 168,-116 179,-128 18,-18 20,-31 17,-98 l -4,-77 -54,-7 c -53,-6 -61,-4 -203,61 l -148,67 -89,-45 c -139,-69 -128,-71 -147,29 -13,65 -14,90 -6,101 26,30 267,202 285,203 6,0 82,-48 170,-106 z m 1294,29 c 0,-5 36,-147 79,-316 63,-246 76,-307 62,-301 -155,65 -336,81 -498,44 -54,-12 -120,-31 -147,-42 -27,-10 -51,-16 -54,-14 -7,8 217,277 367,440 37,39 90,99 120,134 50,57 71,73 71,55 z M 6640,5490 c 96,-12 178,-25 182,-28 3,-4 20,-57 37,-118 28,-103 59,-230 217,-874 44,-181 63,-242 82,-265 14,-16 102,-115 196,-219 94,-103 176,-196 183,-206 6,-9 24,-93 39,-186 15,-93 28,-171 30,-173 2,-2 12,3 21,12 23,20 132,72 189,88 50,15 46,6 74,164 l 21,120 83,81 c 190,184 406,266 696,266 164,0 295,-22 440,-74 121,-43 117,-44 144,32 35,101 81,180 149,256 247,278 527,405 895,405 140,0 236,-11 351,-41 l 76,-20 14,23 c 59,91 217,202 358,252 248,86 560,46 697,-91 117,-117 255,-472 302,-775 24,-156 24,-462 0,-617 -61,-402 -215,-728 -470,-999 -141,-150 -267,-214 -421,-215 -97,-1 -175,18 -315,78 -159,67 -156,61 -74,127 38,31 108,89 155,129 47,40 136,115 198,167 61,51 111,95 111,96 0,2 -26,-8 -59,-21 -82,-33 -290,-91 -391,-108 -416,-71 -716,-34 -1373,169 -27,8 -47,10 -45,5 2,-5 48,-55 103,-112 229,-236 345,-360 345,-368 0,-15 -238,-223 -358,-312 -238,-177 -438,-255 -705,-274 -89,-6 -96,-5 -212,34 -66,22 -182,67 -258,100 l -138,61 -149,-30 c -191,-37 -409,-65 -627,-79 -186,-13 -420,-3 -628,25 -110,16 -394,70 -399,76 -1,2 -24,177 -50,389 l -48,385 -63,130 c -114,231 -171,440 -182,660 -10,217 9,325 207,1163 21,92 42,185 46,207 3,22 17,85 29,140 23,98 47,237 60,343 7,51 8,53 34,48 14,-3 105,-15 201,-26 z m 3168,-627 -3,-97 -90,-51 c -84,-47 -407,-260 -502,-329 -23,-17 -96,-66 -162,-109 l -121,-78 -74,16 c -42,8 -84,15 -96,15 -11,0 -20,2 -20,5 0,3 15,36 34,74 68,134 223,301 371,398 82,54 260,140 359,172 63,21 281,79 299,81 4,0 6,-44 5,-97 z"
       id="path1"
       style="fill:#9c0000;fill-opacity:1" />
    <path
       d="m 9975,6343 c -3,-21 -9,-48 -12,-60 -4,-19 -1,-23 18,-23 16,0 38,-16 67,-50 24,-28 49,-50 56,-50 8,0 31,16 52,35 51,46 112,75 157,75 42,0 45,10 23,64 l -14,33 -107,6 c -60,4 -136,7 -170,7 h -63 z"
       id="path2"
       style="fill:#9c0000;fill-opacity:1" />
    <path
       d="m 10738,6304 c -58,-31 -74,-107 -35,-165 40,-60 104,-64 158,-9 24,23 29,37 29,75 0,40 -5,52 -34,81 -38,38 -73,43 -118,18 z"
       id="path3"
       style="fill:#9c0000;fill-opacity:1" />
    <path
       d="m 6405,6791 c -22,-11 -32,-20 -23,-20 10,-1 32,-14 50,-30 28,-25 32,-35 36,-92 3,-55 0,-69 -20,-99 -40,-59 -107,-77 -170,-44 -43,22 -50,7 -44,-84 7,-88 33,-153 84,-205 52,-55 101,-77 164,-77 70,1 100,16 141,70 115,152 161,311 125,432 -15,52 -74,118 -130,146 -58,29 -155,30 -213,3 z"
       id="path4"
       style="fill:#9c0000;fill-opacity:1" />
  </g>
</svg>
